<?xml version="1.0" encoding="UTF-8"?>
<svg version="1.1" xmlns="http://www.w3.org/2000/svg" width="" height="" viewBox="0 0 512 512">
<path d="M0 0 C0.98136932 -0.01606293 1.96273865 -0.03212585 2.97384644 -0.04867554 C7.44446954 -0.09330447 11.91494843 -0.13416517 16.38574219 -0.15722656 C18.74261334 -0.17380365 21.09943387 -0.20111635 23.45605469 -0.23925781 C26.8604531 -0.29403686 30.26367722 -0.31590024 33.66845703 -0.33056641 C34.71863007 -0.35323578 35.7688031 -0.37590515 36.85079956 -0.39926147 C45.01526081 -0.37570206 45.01526081 -0.37570206 48.70019531 2.60058594 C51.91218383 6.1421118 52.44578778 8.26399136 52.41064453 13.08740234 C51.77545139 16.80880562 49.71147937 18.59599959 47.05126953 21.19287109 C44.7297648 22.35362346 43.35774581 22.32905548 40.77270508 22.35058594 C39.4457386 22.36597916 39.4457386 22.36597916 38.09196472 22.38168335 C37.1336525 22.38898468 36.17534027 22.39628601 35.18798828 22.40380859 C33.16649585 22.43187985 31.14501158 22.46054433 29.12353516 22.48974609 C25.93058523 22.53099931 22.73778733 22.5678792 19.54467773 22.59423828 C16.46712577 22.62185886 13.39027134 22.6677347 10.31298828 22.71630859 C8.88462898 22.7211879 8.88462898 22.7211879 7.42741394 22.72616577 C1.29913122 22.83971448 -2.28321285 23.65428289 -6.83544922 27.98974609 C-7.42970703 28.63427734 -8.02396484 29.27880859 -8.63623047 29.94287109 C-16.11562478 37.60606905 -23.96166945 43.36747391 -34.97607422 43.50146484 C-36.09820312 43.52660156 -37.22033203 43.55173828 -38.37646484 43.57763672 C-40.71234771 43.61273346 -43.0482914 43.6439966 -45.38427734 43.67138672 C-51.60749078 43.81777327 -56.52206083 44.00026851 -61.94873047 47.19287109 C-64.07441244 50.38139405 -64.20242519 51.19005009 -64.22288513 54.84786987 C-64.23286026 55.80398163 -64.24283539 56.76009338 -64.25311279 57.74517822 C-64.2541098 59.31619293 -64.2541098 59.31619293 -64.25512695 60.91894531 C-64.26345047 62.02325897 -64.27177399 63.12757263 -64.28034973 64.26535034 C-64.30450057 67.92612199 -64.31322797 71.58671566 -64.31982422 75.24755859 C-64.32878636 77.78720149 -64.33790812 80.32684382 -64.34718323 82.8664856 C-64.36368941 88.19453549 -64.37140952 93.52251843 -64.37426758 98.85058594 C-64.3779026 105.00544952 -64.40779482 111.15981434 -64.44967216 117.31452549 C-64.48856449 123.23853928 -64.49986047 129.16240335 -64.50099373 135.08655167 C-64.50520575 137.6055891 -64.51767905 140.12462658 -64.53851128 142.64358139 C-64.56532 146.16550051 -64.56063037 149.6860393 -64.5480957 153.20800781 C-64.56292999 154.25130249 -64.57776428 155.29459717 -64.5930481 156.36950684 C-64.545211 161.0816214 -64.50598721 163.43180866 -61.66127014 167.31692505 C-57.40697141 170.25912529 -53.9710094 170.31930847 -48.85820007 170.33331299 C-47.60910858 170.33902313 -46.36001709 170.34473328 -45.07307434 170.35061646 C-43.69137583 170.35186172 -42.30967721 170.35298684 -40.92797852 170.35400391 C-39.47078323 170.35863397 -38.01358916 170.36365889 -36.55639648 170.36904907 C-32.59967841 170.38215659 -28.6429773 170.38861477 -24.68624091 170.39305973 C-22.21304901 170.39599301 -19.73986171 170.40009829 -17.26667213 170.4045639 C-9.52513389 170.41823426 -1.78360621 170.42790328 5.95794326 170.43176579 C14.88802982 170.43624608 23.81796329 170.45379452 32.7480033 170.48276639 C39.65514574 170.50439593 46.56224515 170.51447075 53.46942109 170.51580691 C57.59274986 170.516854 61.71593462 170.5227412 65.83922768 170.54062653 C69.71918628 170.55712935 73.59889297 170.55925209 77.47887421 170.55048752 C78.89983229 170.54971833 80.32080404 170.55404424 81.74172783 170.56394577 C91.91728818 170.90479849 91.91728818 170.90479849 101.05126953 167.19287109 C103.98201935 162.31011786 104.48118007 157.80341683 104.42016602 152.22558594 C104.4239325 151.46206314 104.42769897 150.69854034 104.43157959 149.91188049 C104.4379794 148.26630247 104.43771291 146.62068744 104.43139458 144.9751091 C104.42223941 142.36854254 104.43255663 139.76268836 104.44801331 137.15615845 C104.4880014 129.750112 104.48931141 122.34412479 104.48706055 114.93798828 C104.48700944 110.39751627 104.50617188 105.85743194 104.53639412 101.31706619 C104.54720998 98.7526565 104.53509811 96.18898899 104.52256775 93.62460327 C104.53147186 92.05018379 104.54154614 90.47577034 104.55297852 88.90136719 C104.54323502 88.19163254 104.53349152 87.48189789 104.52345276 86.75065613 C104.59265981 81.97074844 105.67102223 79.55190918 109.05126953 76.19287109 C112.76837516 74.33431828 117.00404234 74.6137867 121.05126953 75.19287109 C124.39751977 77.71963148 125.731048 79.23220651 127.05126953 83.19287109 C127.15757393 85.77135347 127.208508 88.32320297 127.21240234 90.90209961 C127.21736725 91.68626755 127.22233215 92.47043549 127.22744751 93.27836609 C127.24206601 95.87617877 127.24887276 98.47393026 127.25439453 101.07177734 C127.26014892 102.88199362 127.26590661 104.69220989 127.27166748 106.50242615 C127.28217842 110.30297123 127.2880196 114.10349516 127.29150391 117.90405273 C127.29697033 122.75368465 127.32095813 127.60303321 127.34947586 132.45257664 C127.368187 136.19572234 127.37331247 139.93880117 127.37483978 143.68198967 C127.37785082 145.46840898 127.38582651 147.25482755 127.39902496 149.04120064 C127.4884364 162.0800716 127.32987099 173.0885393 118.05126953 183.19287109 C111.77844276 189.55221962 105.02731799 192.93707338 95.98080158 193.32429886 C94.2484163 193.32876085 94.2484163 193.32876085 92.48103333 193.33331299 C91.83453203 193.33628411 91.18803074 193.33925523 90.5219385 193.34231639 C88.36348935 193.35096262 86.20509593 193.35250817 84.04663086 193.35400391 C82.49563479 193.35863502 80.94463986 193.36366008 79.39364624 193.36904907 C75.18472785 193.38214804 70.97582539 193.38861331 66.76688981 193.39305973 C64.13436753 193.3959949 61.50184956 193.40010058 58.86932945 193.4045639 C50.6242868 193.41823314 42.37925406 193.42790222 34.13420087 193.43176579 C24.63251318 193.43624326 15.13096958 193.45377907 5.62932569 193.48276639 C-1.72543828 193.50442123 -9.08016183 193.51447213 -16.43495733 193.51580691 C-20.82272946 193.51685235 -25.21036605 193.52270418 -29.59810448 193.54062653 C-33.72923835 193.55717279 -37.86013573 193.55923112 -41.99129105 193.55048752 C-43.50129266 193.5497206 -45.01130733 193.55401397 -46.52127647 193.56394577 C-58.09861908 193.63558437 -67.76568313 192.85972657 -76.90576172 185.22412109 C-82.74610084 179.41728296 -87.17387447 172.34289553 -87.22961426 163.96482849 C-87.24103455 162.93194199 -87.25245483 161.89905548 -87.26422119 160.83486938 C-87.26645691 159.71220673 -87.26869263 158.58954407 -87.27099609 157.43286133 C-87.2809259 156.24196396 -87.29085571 155.05106659 -87.30108643 153.82408142 C-87.32525845 150.56332189 -87.34020924 147.30270558 -87.34910774 144.04187274 C-87.35498575 141.99963019 -87.36319865 139.95740968 -87.37211609 137.9151783 C-87.39945114 131.51114368 -87.41878874 125.10715995 -87.42651987 118.70307106 C-87.43546263 111.33774111 -87.47047639 103.97315697 -87.52852106 96.60805362 C-87.57193993 90.89824328 -87.59193837 85.18864126 -87.59460211 79.4786678 C-87.59668615 76.07651946 -87.60823626 72.67507277 -87.64424133 69.2730999 C-87.67856681 65.46771598 -87.67455336 61.66412087 -87.66162109 57.85864258 C-87.68005066 56.75014954 -87.69848022 55.64165649 -87.71746826 54.49957275 C-87.62249478 45.52410689 -84.98503686 37.76443393 -78.97006989 30.95181942 C-72.10121596 24.36347858 -63.58080538 21.04938492 -54.15185547 21.12255859 C-53.02779297 21.11224609 -51.90373047 21.10193359 -50.74560547 21.09130859 C-48.39668543 21.0757871 -46.04749116 21.08328948 -43.69873047 21.11474609 C-36.55719994 21.00061204 -32.58118463 20.18125101 -27.54541016 14.98388672 C-27.01850586 14.39285156 -26.49160156 13.80181641 -25.94873047 13.19287109 C-25.13404297 12.43619141 -24.31935547 11.67951172 -23.47998047 10.89990234 C-22.80966797 10.27470703 -22.13935547 9.64951172 -21.44873047 9.00537109 C-15.04984718 3.30273936 -8.61806611 0.12868501 0 0 Z " fill="#83858E" transform="translate(230.94873046875,164.80712890625)"/>
<path d="M0 0 C11.0907025 8.91467859 19.61379143 21.17665521 21.30029297 35.5612793 C21.43568188 38.15325786 21.46813729 40.71725592 21.4375 43.3125 C21.42920166 44.22821777 21.42090332 45.14393555 21.41235352 46.08740234 C21.01781958 62.00635543 14.45641456 74.67378332 3.00390625 85.63671875 C-5.169837 92.06729699 -15.5342014 97.21591737 -26 98 C-27.34191406 98.11988281 -27.34191406 98.11988281 -28.7109375 98.2421875 C-43.35406915 98.90956884 -57.28341841 94.2481003 -68.52734375 84.8984375 C-78.61093191 75.40207993 -85.40864428 62.38284172 -86.203125 48.43359375 C-86.40352008 31.34991293 -82.42794786 17.96290981 -70.41796875 5.2890625 C-50.78770791 -13.29467393 -22.43373446 -14.8618574 0 0 Z M-54.234375 21.08203125 C-61.0525976 28.38549232 -64.40209474 35.61126919 -64.2109375 45.76171875 C-63.30056039 55.42183137 -58.98298634 62.10552447 -52.1875 68.75 C-44.31439342 74.30748699 -36.57345414 76.93487162 -27 75.3125 C-17.43204311 73.07412476 -9.96435299 68.30640592 -4.64453125 59.84375 C-0.63227335 52.07995854 0.39455586 43.86385536 -1.6484375 35.2734375 C-4.82350723 26.50807407 -10.91966554 19.62270297 -19 15 C-31.2797951 9.77455528 -44.45726061 11.97153829 -54.234375 21.08203125 Z " fill="#83858E" transform="translate(283,228)"/>
<path d="M0 0 C3.52787301 1.95657197 5.70285021 4.10855063 7 8 C7.08239169 9.84610532 7.10743359 11.69505164 7.09765625 13.54296875 C7.09443359 14.61611328 7.09121094 15.68925781 7.08789062 16.79492188 C7.07532227 18.47424805 7.07532227 18.47424805 7.0625 20.1875 C7.05798828 21.31865234 7.05347656 22.44980469 7.04882812 23.61523438 C7.03703498 26.41020927 7.0205765 29.2050782 7 32 C7.72590332 31.97381592 8.45180664 31.94763184 9.19970703 31.9206543 C12.50791541 31.8163319 15.8157772 31.75156128 19.125 31.6875 C20.26710938 31.64560547 21.40921875 31.60371094 22.5859375 31.56054688 C32.0941468 31.42234616 32.0941468 31.42234616 35.734375 34.2421875 C38.54633385 37.66502017 39.02762541 39.49000813 39.2421875 43.78125 C38.85639279 47.31562734 37.30350467 49.37656412 35 52 C31.55366118 54.29755922 30.28931609 54.23643976 26.23828125 54.1953125 C25.12001953 54.18886719 24.00175781 54.18242187 22.84960938 54.17578125 C21.68236328 54.15902344 20.51511719 54.14226562 19.3125 54.125 C18.13365234 54.11597656 16.95480469 54.10695312 15.74023438 54.09765625 C12.82661974 54.07406423 9.91341108 54.0411454 7 54 C7.02094727 54.69561035 7.04189453 55.3912207 7.06347656 56.10791016 C7.1469698 59.28012458 7.19876529 62.45210731 7.25 65.625 C7.28351563 66.71941406 7.31703125 67.81382812 7.3515625 68.94140625 C7.42833527 75.27515938 7.38391751 79.25338428 3 84 C-0.70174739 86.4678316 -3.70493475 86.68072732 -8 86 C-13.5 83 -13.5 83 -15 80 C-15.08510205 78.0406396 -15.10717656 76.07837206 -15.09765625 74.1171875 C-15.09443359 72.95058594 -15.09121094 71.78398437 -15.08789062 70.58203125 C-15.07951172 69.35871094 -15.07113281 68.13539063 -15.0625 66.875 C-15.05798828 65.64394531 -15.05347656 64.41289062 -15.04882812 63.14453125 C-15.0370133 60.09630608 -15.02054028 57.04817686 -15 54 C-16.08885498 54.0314209 -16.08885498 54.0314209 -17.19970703 54.06347656 C-20.50799555 54.1469365 -23.81606211 54.19875539 -27.125 54.25 C-28.26710938 54.28351563 -29.40921875 54.31703125 -30.5859375 54.3515625 C-41.20998773 54.47509797 -41.20998773 54.47509797 -46 50 C-47.85726616 46.28546768 -47.58501089 42.04420575 -47 38 C-44.80977082 35.17575712 -43.16982793 33.58491397 -40 32 C-38.1136088 31.915085 -36.22421485 31.892807 -34.3359375 31.90234375 C-33.21445312 31.90556641 -32.09296875 31.90878906 -30.9375 31.91210938 C-29.761875 31.92048828 -28.58625 31.92886719 -27.375 31.9375 C-26.19164062 31.94201172 -25.00828125 31.94652344 -23.7890625 31.95117188 C-20.85932493 31.96298533 -17.92968728 31.97945742 -15 32 C-15.02618408 31.23856689 -15.05236816 30.47713379 -15.0793457 29.69262695 C-15.18347015 26.23279565 -15.24837729 22.77329415 -15.3125 19.3125 C-15.35439453 18.11431641 -15.39628906 16.91613281 -15.43945312 15.68164062 C-15.56028038 7.00624403 -15.56028038 7.00624403 -13.93505859 4.08740234 C-9.93821143 0.00835781 -5.52967613 -0.93358168 0 0 Z " fill="#83858E" transform="translate(351,133)"/>
</svg>
