<?xml version="1.0" encoding="UTF-8"?>
<svg version="1.1" xmlns="http://www.w3.org/2000/svg" width="" height="" viewBox="0 0 512 512">
<path d="M0 0 C1.921539 0.0001133 1.921539 0.0001133 3.88189697 0.00022888 C5.27510619 0.00533513 6.66831501 0.01055112 8.06152344 0.01586914 C9.49070181 0.01773507 10.91988082 0.01915815 12.34906006 0.02015686 C16.10389992 0.02396824 19.85870087 0.03378672 23.61352539 0.04486084 C27.44774855 0.05510464 31.28197802 0.05966084 35.11621094 0.06469727 C42.63445781 0.07541026 50.15267266 0.09247008 57.67089844 0.11352539 C57.67676468 0.84300385 57.68263092 1.5724823 57.68867493 2.32406616 C57.74685744 9.23773497 57.81907797 16.15113411 57.90661335 23.06448936 C57.95112109 26.61775773 57.99041859 30.17091661 58.01733398 33.72436523 C58.04859801 37.82051599 58.10337715 41.91607235 58.15917969 46.01196289 C58.16556961 47.27277679 58.17195953 48.5335907 58.17854309 49.83261108 C58.38021901 62.06399114 60.94559038 71.459789 68.98339844 80.80102539 C78.93750994 89.3661911 89.68896066 91.85312604 102.67089844 91.11352539 C112.46075874 90.04775522 121.358025 86.45125066 128.13574219 79.14477539 C144.61419456 57.34122518 136.30263728 23.31397852 136.67089844 0.11352539 C196.07089844 0.11352539 255.47089844 0.11352539 316.67089844 0.11352539 C317.00089844 20.90352539 317.33089844 41.69352539 317.67089844 63.11352539 C322.50002541 75.26024904 322.50002541 75.26024904 331.35839844 83.73852539 C332.14601563 84.30829102 332.93363281 84.87805664 333.74511719 85.46508789 C341.13265159 89.62735694 348.08285699 90.64308212 356.48339844 90.55102539 C357.93480225 90.53966553 357.93480225 90.53966553 359.41552734 90.52807617 C370.17498665 90.28054537 379.87907153 87.97766624 387.67089844 80.11352539 C392.86710431 73.58836661 394.89220849 66.69151602 394.98974609 58.35205078 C395.00961578 57.05123062 395.02948547 55.75041046 395.04995728 54.41017151 C395.06183012 53.01050994 395.07349319 51.61084658 395.08496094 50.21118164 C395.10369336 48.76385927 395.12326829 47.31654758 395.14364624 45.86924744 C395.1947547 42.08001024 395.23449354 38.29073773 395.27178955 34.50134277 C395.3119635 30.62654027 395.36299442 26.751882 395.41308594 22.87719727 C395.50959279 15.28940596 395.59407736 7.70154426 395.67089844 0.11352539 C403.32109299 0.0203733 410.97122788 -0.05046692 418.62186241 -0.0937233 C422.17535983 -0.1144965 425.72846597 -0.14262234 429.28173828 -0.18823242 C433.37763986 -0.24047182 437.47313786 -0.25950445 441.56933594 -0.27709961 C442.83014984 -0.29774475 444.09096375 -0.31838989 445.38998413 -0.33966064 C456.54609297 -0.34246827 464.53947975 2.172713 472.69042969 9.89086914 C478.71337711 16.65035057 480.79232315 23.10640462 480.80511951 32.01493359 C480.80747174 32.71246255 480.80982397 33.40999152 480.81224748 34.12865773 C480.8189305 36.47748559 480.81847947 38.82625804 480.81806946 41.1750946 C480.82136851 42.8715512 480.82509417 44.56800701 480.82921094 46.26446182 C480.83923422 50.93549849 480.84294825 55.60652231 480.84560025 60.27756822 C480.84950228 65.3118058 480.85908063 70.3460332 480.86781311 75.38026428 C480.88757952 87.54188791 480.89764358 99.70351237 480.9065409 111.86514804 C480.91092317 117.59062407 480.91629011 123.31609918 480.92152977 129.04157448 C480.93854159 148.07109097 480.95303644 167.10060688 480.96027851 186.13012981 C480.96218844 191.06884957 480.96410877 196.00756932 480.96606445 200.94628906 C480.96654819 202.17379955 480.96703193 203.40131003 480.96753033 204.66601781 C480.97583317 224.5572141 481.0011746 244.44835031 481.03364513 264.33952036 C481.06670123 284.7556257 481.08472593 305.1717005 481.08792275 325.58783275 C481.0900891 337.05309164 481.09885612 348.51826288 481.12438393 359.98349571 C481.14607104 369.74636626 481.15415109 379.50912787 481.14441714 389.27201977 C481.13986681 394.25337817 481.1418014 399.2345117 481.16117859 404.21583939 C481.17877038 408.77757176 481.17784492 413.33891456 481.1622813 417.90065084 C481.15989918 419.54940661 481.16426004 421.19818909 481.17610995 422.846904 C481.23300212 431.2863937 481.23701603 438.69050088 476.67089844 446.11352539 C476.29294563 446.76328187 475.91499282 447.41303835 475.5255869 448.08248442 C471.13394937 455.32417752 463.84863931 459.15900259 455.92980576 461.4680779 C448.80479916 462.87923114 441.45987485 462.52342372 434.22412109 462.49447632 C432.34170574 462.49793574 430.45929242 462.50270221 428.57688332 462.50865805 C423.41960986 462.52115855 418.26250337 462.51500193 413.10522938 462.5056994 C407.53732496 462.49890539 401.96944903 462.50939189 396.40155029 462.51763916 C385.5001313 462.5309749 374.5987743 462.52809944 363.69735289 462.51940124 C354.83706879 462.51262449 345.97680206 462.51170794 337.11651611 462.51497269 C335.85519352 462.51543239 334.59387092 462.51589208 333.29432642 462.51636571 C330.73192707 462.5173249 328.16952772 462.51829754 325.60712838 462.51928349 C302.26758159 462.52759311 278.92807455 462.51897755 255.58853546 462.5032557 C234.29240398 462.48901939 212.99632632 462.49029329 191.70019531 462.50463867 C167.76149067 462.52071031 143.82281964 462.52701295 119.88410759 462.51780188 C117.33116532 462.51684624 114.77822304 462.51590313 112.22528076 462.51497269 C110.96920348 462.51450986 109.71312619 462.51404703 108.41898596 462.51357018 C99.56994569 462.51098055 90.72092452 462.51535073 81.87188721 462.52241135 C71.08701895 462.53082744 60.3022162 462.52854384 49.51735544 462.51256911 C44.01538647 462.50468794 38.51352668 462.50159229 33.01155853 462.51151657 C27.97327307 462.520467 22.93519785 462.51552471 17.89693141 462.49958391 C16.07607059 462.49623762 14.25519195 462.49792678 12.43434262 462.50521128 C-0.80489983 462.55410618 -11.61212291 462.07762808 -21.89160156 452.80102539 C-28.32476156 445.70805411 -31.57520314 439.8283365 -31.58637047 429.96881485 C-31.58987654 429.26927779 -31.59338262 428.56974073 -31.59699494 427.84900558 C-31.60629766 425.5053162 -31.60138858 423.16187591 -31.5965271 420.81817627 C-31.60026393 419.12070506 -31.60486559 417.42323557 -31.61025774 415.7257688 C-31.62249913 411.06116291 -31.62222593 406.39662867 -31.61986899 401.73201036 C-31.61946111 396.70119145 -31.63049724 391.67039559 -31.63998413 386.6395874 C-31.6566015 376.78306028 -31.66209402 366.92655708 -31.66320889 357.07001713 C-31.66415904 349.05822807 -31.66826769 341.0464469 -31.67461014 333.03466034 C-31.69222477 310.32170015 -31.70144869 287.60875887 -31.69994919 264.8957918 C-31.69986928 263.67116927 -31.69978937 262.44654675 -31.69970703 261.18481445 C-31.69962527 259.95869728 -31.69954351 258.73258011 -31.69945927 257.46930787 C-31.69864637 237.59831007 -31.7177845 217.72738807 -31.74598376 197.8564122 C-31.7747075 177.45492467 -31.78852433 157.05347412 -31.78679621 136.65196586 C-31.78613212 125.19732955 -31.79163277 113.7427727 -31.81315231 102.2881546 C-31.8313574 92.53523645 -31.83571696 82.78243378 -31.82213347 73.029506 C-31.81560038 68.05408992 -31.815499 63.07889541 -31.83283997 58.10350037 C-31.84856058 53.54610594 -31.84571733 48.98910896 -31.8282717 44.43172428 C-31.82519958 42.78570522 -31.8288422 41.13965657 -31.83999185 39.4936724 C-31.91911889 26.98066701 -30.45184068 17.49314708 -21.55175781 8.09399414 C-15.02144927 2.27524822 -8.63439959 -0.01699685 0 0 Z M1.67089844 130.11352539 C1.67089844 228.45352539 1.67089844 326.79352539 1.67089844 428.11352539 C148.85089844 428.11352539 296.03089844 428.11352539 447.67089844 428.11352539 C447.67089844 329.77352539 447.67089844 231.43352539 447.67089844 130.11352539 C300.49089844 130.11352539 153.31089844 130.11352539 1.67089844 130.11352539 Z " fill="" transform="translate(31.3291015625,45.886474609375)"/>
<path d="M0 0 C6.04654866 3.87250869 9.21806675 8.26110266 10.89217186 15.23260689 C11.54611656 18.66297003 11.59937717 22.06869651 11.5871582 25.54663086 C11.59226913 26.31362808 11.59738007 27.08062531 11.60264587 27.87086487 C11.61643385 30.38143939 11.61559345 32.89173609 11.61328125 35.40234375 C11.61717384 37.16296997 11.62150966 38.92359526 11.62626648 40.68421936 C11.63370528 44.36495007 11.63345424 48.04558481 11.62817383 51.72631836 C11.62237938 56.42459892 11.63932096 61.12248522 11.6625185 65.82070065 C11.67730536 69.45400763 11.67812087 73.0872207 11.67500877 76.72055244 C11.6755194 78.45196883 11.68070816 80.18339083 11.69082069 81.91477776 C11.78789397 100.85580666 11.78789397 100.85580666 6.25 109.75 C-0.41948 115.85186468 -7.71301902 117.08971254 -16.57421875 116.74609375 C-24.63136127 115.94745604 -29.07033413 113.84826736 -34.27734375 107.5703125 C-37.58571936 102.56650895 -37.98881854 98.02029818 -37.99389648 92.1340332 C-38.00222 91.31055893 -38.01054352 90.48708466 -38.01911926 89.63865662 C-38.04317217 86.92181637 -38.05198689 84.20521662 -38.05859375 81.48828125 C-38.06756574 79.59124177 -38.07668769 77.69420299 -38.08595276 75.79716492 C-38.10243399 71.82024418 -38.11014093 67.84340752 -38.11303711 63.86645508 C-38.11841093 58.79022041 -38.15605333 53.71478525 -38.20178127 48.63877583 C-38.23164691 44.7188993 -38.23876277 40.79921278 -38.23976326 36.87923241 C-38.24394898 35.00905902 -38.25631655 33.13888419 -38.27728081 31.26882362 C-38.4813388 11.48704066 -38.4813388 11.48704066 -32.6875 4.4375 C-24.26473488 -2.39960397 -10.14307849 -4.63570384 0 0 Z " fill="" transform="translate(400.6875,5.5625)"/>
<path d="M0 0 C0.87333984 -0.03738281 1.74667969 -0.07476563 2.64648438 -0.11328125 C9.14057384 -0.20058044 13.27496268 1.25413802 18.3125 5.375 C23.68375555 11.02895321 24.61184303 16.18656877 24.60302734 23.80200195 C24.60974457 24.63844238 24.61646179 25.47488281 24.62338257 26.33666992 C24.64234462 29.09560119 24.64628598 31.85428891 24.6484375 34.61328125 C24.6548671 36.53753254 24.66159559 38.46178285 24.66860962 40.3860321 C24.68057821 44.41842921 24.68429091 48.45074068 24.68310547 52.4831543 C24.6829024 57.63794231 24.71019357 62.79217823 24.74464989 67.94683552 C24.7669419 71.92152911 24.77094229 75.89609038 24.76988602 79.87084007 C24.77223892 81.77055957 24.78104491 83.67028289 24.79655075 85.56994057 C24.8162557 88.23361932 24.81035514 90.89611462 24.79833984 93.55981445 C24.80957886 94.33671127 24.82081787 95.11360809 24.83239746 95.91404724 C24.76260039 102.03599567 23.12084006 107.32884638 18.90057945 111.90648365 C13.11277348 117.00357115 7.89289182 117.73779043 0.5 117.75 C-0.26892578 117.77449219 -1.03785156 117.79898438 -1.83007812 117.82421875 C-8.53307115 117.85815796 -13.46756409 115.92981401 -18.7109375 111.76953125 C-19.15695313 111.24746094 -19.60296875 110.72539063 -20.0625 110.1875 C-20.52398437 109.67832031 -20.98546875 109.16914062 -21.4609375 108.64453125 C-26.09824694 100.06403194 -24.97979771 89.42561211 -24.953125 79.96875 C-24.95447475 78.27681421 -24.95641787 76.58487881 -24.95892334 74.89294434 C-24.96185999 71.35941855 -24.95762414 67.82599438 -24.94824219 64.29248047 C-24.93684854 59.78374897 -24.94341586 55.27525567 -24.95538712 50.7665329 C-24.96264525 47.27649165 -24.9602997 43.78650602 -24.95513153 40.29646301 C-24.95380595 38.63483145 -24.95540409 36.97319469 -24.96009064 35.31156921 C-25.00938587 12.92614146 -25.00938587 12.92614146 -18.6875 5.375 C-12.36239044 0.59889686 -7.63635122 0.12129944 0 0 Z " fill="" transform="translate(128.6875,4.625)"/>
<path d="M0 0 C2.65673828 -0.3742218 2.65673828 -0.3742218 6.0703125 -0.37231445 C7.98239502 -0.38165764 7.98239502 -0.38165764 9.93310547 -0.39118958 C11.3304076 -0.38250176 12.72770594 -0.37318381 14.125 -0.36328125 C15.55224609 -0.36276279 16.9794929 -0.36327994 18.40673828 -0.36479187 C21.39952235 -0.36470209 24.39203736 -0.35426115 27.38476562 -0.33618164 C31.22518206 -0.31349401 35.06520517 -0.31294964 38.90567017 -0.31969929 C41.85330718 -0.32303731 44.80085417 -0.31641239 47.74847412 -0.30657005 C49.16468841 -0.30271485 50.5809127 -0.30157116 51.99713135 -0.3031559 C53.97467285 -0.30352584 55.95220125 -0.28944529 57.9296875 -0.2746582 C59.61940674 -0.26774712 59.61940674 -0.26774712 61.34326172 -0.26069641 C64 0 64 0 66 2 C66.24050903 4.40444946 66.24050903 4.40444946 66.22705078 7.45947266 C66.22689972 8.60050446 66.22674866 9.74153625 66.22659302 10.91714478 C66.21627045 12.15362762 66.20594788 13.39011047 66.1953125 14.6640625 C66.1924826 15.92640717 66.18965271 17.18875183 66.18673706 18.48934937 C66.17742131 21.84646944 66.15944835 25.20331912 66.1373291 28.56036377 C66.1168755 31.98553122 66.1077364 35.41072659 66.09765625 38.8359375 C66.07556458 45.55736671 66.04206377 52.27866773 66 59 C63.24327579 60.3783621 61.01487184 60.13482398 57.9296875 60.14526367 C56.65496582 60.15164352 55.38024414 60.15802338 54.06689453 60.16459656 C52.66959674 60.166125 51.27229844 60.16723909 49.875 60.16796875 C48.44775356 60.17118063 47.02050746 60.17454465 45.59326172 60.17805481 C42.60057817 60.18404652 39.6079235 60.18589462 36.61523438 60.18530273 C32.7748568 60.185201 28.93466364 60.19886481 25.09432983 60.21607494 C22.14671981 60.22717552 19.19915467 60.22922256 16.25152588 60.22869301 C14.83530032 60.22987562 13.4190737 60.23431306 12.00286865 60.24202538 C10.02537401 60.25178755 8.04782548 60.24769279 6.0703125 60.24291992 C4.94383301 60.24434494 3.81735352 60.24576996 2.65673828 60.24723816 C0 60 0 60 -2 58 C-2.25396729 55.69166565 -2.25396729 55.69166565 -2.25878906 52.77172852 C-2.26509338 51.6804213 -2.27139771 50.58911407 -2.27789307 49.46473694 C-2.2738446 48.28141281 -2.26979614 47.09808868 -2.265625 45.87890625 C-2.26753845 44.6680687 -2.2694519 43.45723114 -2.27142334 42.20970154 C-2.27278645 39.64492587 -2.26908131 37.08014333 -2.26074219 34.51538086 C-2.25005398 30.58236215 -2.26062882 26.64980121 -2.2734375 22.71679688 C-2.27211575 20.22916565 -2.26955302 17.74153472 -2.265625 15.25390625 C-2.26967346 14.07260635 -2.27372192 12.89130646 -2.27789307 11.67420959 C-2.27158875 10.57975021 -2.26528442 9.48529083 -2.25878906 8.35766602 C-2.25719788 7.39329117 -2.25560669 6.42891632 -2.25396729 5.43531799 C-2 3 -2 3 0 0 Z " fill="" transform="translate(174,383)"/>
<path d="M0 0 C2.65673828 -0.3742218 2.65673828 -0.3742218 6.0703125 -0.37231445 C7.98239502 -0.38165764 7.98239502 -0.38165764 9.93310547 -0.39118958 C11.3304076 -0.38250176 12.72770594 -0.37318381 14.125 -0.36328125 C15.55224609 -0.36276279 16.9794929 -0.36327994 18.40673828 -0.36479187 C21.39952235 -0.36470209 24.39203736 -0.35426115 27.38476562 -0.33618164 C31.22518206 -0.31349401 35.06520517 -0.31294964 38.90567017 -0.31969929 C41.85330718 -0.32303731 44.80085417 -0.31641239 47.74847412 -0.30657005 C49.16468841 -0.30271485 50.5809127 -0.30157116 51.99713135 -0.3031559 C53.97467285 -0.30352584 55.95220125 -0.28944529 57.9296875 -0.2746582 C59.61940674 -0.26774712 59.61940674 -0.26774712 61.34326172 -0.26069641 C64 0 64 0 66 2 C66.24050903 4.40444946 66.24050903 4.40444946 66.22705078 7.45947266 C66.22689972 8.60050446 66.22674866 9.74153625 66.22659302 10.91714478 C66.21627045 12.15362762 66.20594788 13.39011047 66.1953125 14.6640625 C66.1924826 15.92640717 66.18965271 17.18875183 66.18673706 18.48934937 C66.17742131 21.84646944 66.15944835 25.20331912 66.1373291 28.56036377 C66.1168755 31.98553122 66.1077364 35.41072659 66.09765625 38.8359375 C66.07556458 45.55736671 66.04206377 52.27866773 66 59 C63.24327579 60.3783621 61.01487184 60.13482398 57.9296875 60.14526367 C56.65496582 60.15164352 55.38024414 60.15802338 54.06689453 60.16459656 C52.66959674 60.166125 51.27229844 60.16723909 49.875 60.16796875 C48.44775356 60.17118063 47.02050746 60.17454465 45.59326172 60.17805481 C42.60057817 60.18404652 39.6079235 60.18589462 36.61523438 60.18530273 C32.7748568 60.185201 28.93466364 60.19886481 25.09432983 60.21607494 C22.14671981 60.22717552 19.19915467 60.22922256 16.25152588 60.22869301 C14.83530032 60.22987562 13.4190737 60.23431306 12.00286865 60.24202538 C10.02537401 60.25178755 8.04782548 60.24769279 6.0703125 60.24291992 C4.94383301 60.24434494 3.81735352 60.24576996 2.65673828 60.24723816 C0 60 0 60 -2 58 C-2.25396729 55.69166565 -2.25396729 55.69166565 -2.25878906 52.77172852 C-2.26509338 51.6804213 -2.27139771 50.58911407 -2.27789307 49.46473694 C-2.2738446 48.28141281 -2.26979614 47.09808868 -2.265625 45.87890625 C-2.26753845 44.6680687 -2.2694519 43.45723114 -2.27142334 42.20970154 C-2.27278645 39.64492587 -2.26908131 37.08014333 -2.26074219 34.51538086 C-2.25005398 30.58236215 -2.26062882 26.64980121 -2.2734375 22.71679688 C-2.27211575 20.22916565 -2.26955302 17.74153472 -2.265625 15.25390625 C-2.26967346 14.07260635 -2.27372192 12.89130646 -2.27789307 11.67420959 C-2.27158875 10.57975021 -2.26528442 9.48529083 -2.25878906 8.35766602 C-2.25719788 7.39329117 -2.25560669 6.42891632 -2.25396729 5.43531799 C-2 3 -2 3 0 0 Z " fill="" transform="translate(78,383)"/>
<path d="M0 0 C1.14726059 0.00142502 2.29452118 0.00285004 3.47654724 0.00431824 C4.77451736 0.00124161 6.07248749 -0.00183502 7.40979004 -0.00500488 C8.83235348 0.00189235 10.25491517 0.00915928 11.67747498 0.01676941 C13.12953653 0.01796109 14.58159887 0.0184144 16.03366089 0.01815796 C19.07766033 0.01972312 22.12154221 0.02801593 25.16551208 0.04142761 C29.07544649 0.05843264 32.9852518 0.06224155 36.89521885 0.06148243 C39.89340456 0.06175378 42.89156181 0.06722912 45.88973808 0.07448387 C47.33190127 0.07767498 48.77406768 0.07963897 50.21623421 0.08037758 C52.22749611 0.08253559 54.23874609 0.09206467 56.24998474 0.10197449 C57.96968224 0.10769218 57.96968224 0.10769218 59.72412109 0.11352539 C62.29856873 0.24723816 62.29856873 0.24723816 63.29856873 1.24723816 C63.40273665 3.01623851 63.43710692 4.78939524 63.4438324 6.56144714 C63.45021225 7.69609909 63.4565921 8.83075104 63.46316528 9.99978638 C63.46427811 11.2351564 63.46539093 12.47052643 63.46653748 13.74333191 C63.47153008 15.63185631 63.47153008 15.63185631 63.47662354 17.55853271 C63.48169816 20.22767151 63.48446286 22.89670857 63.48387146 25.56584167 C63.48376982 28.99036531 63.49742073 32.41468167 63.51464367 35.83915615 C63.52841989 39.09887379 63.52785199 42.35858908 63.52903748 45.61833191 C63.53622299 46.8516777 63.54340851 48.0850235 63.55081177 49.35574341 C63.54773514 50.49354752 63.54465851 51.63135162 63.54148865 52.80363464 C63.54291367 53.80877609 63.54433868 54.81391754 63.54580688 55.84951782 C63.29856873 58.24723816 63.29856873 58.24723816 61.29856873 60.24723816 C58.68652344 60.50793457 58.68652344 60.50793457 55.33592224 60.52189636 C54.08444901 60.53142838 52.83297577 60.54096039 51.5435791 60.55078125 C50.17154411 60.55051983 48.7995091 60.54958281 47.42747498 60.54801941 C46.02504346 60.55190509 44.62261313 60.55623949 43.22018433 60.56100464 C40.27874438 60.56847251 37.33742445 60.56817165 34.39598083 60.56291199 C30.62508921 60.55711812 26.85468889 60.57404299 23.08387852 60.59725666 C20.1868197 60.61198391 17.28987946 60.61286709 14.39278984 60.60974693 C13.00250717 60.61026071 11.61221796 60.61550911 10.22197151 60.62555885 C8.2782223 60.6378842 6.33437407 60.62920274 4.39060974 60.61955261 C3.28411575 60.62018204 2.17762177 60.62081146 1.03759766 60.62145996 C-1.70143127 60.24723816 -1.70143127 60.24723816 -3.55891418 59.05882263 C-5.12494384 56.57571316 -5.07565736 54.81849045 -5.07374573 51.88957214 C-5.07997452 50.79511276 -5.08620331 49.70065338 -5.09262085 48.57302856 C-5.0834111 47.39172867 -5.07420135 46.21042877 -5.06471252 44.99333191 C-5.06521103 43.78153763 -5.06570953 42.56974335 -5.06622314 41.32122803 C-5.06388125 38.75821799 -5.05414606 36.19520571 -5.03761292 33.63224792 C-5.01400521 29.69706287 -5.01705328 25.7625542 -5.0236969 21.82731628 C-5.01812093 19.3409841 -5.01101156 16.85465478 -5.00221252 14.36833191 C-5.00312393 13.18500778 -5.00403534 12.00168365 -5.00497437 10.78250122 C-4.99544235 9.691194 -4.98591034 8.59988678 -4.97608948 7.47550964 C-4.97148209 6.51193039 -4.96687469 5.54835114 -4.96212769 4.55557251 C-4.56407932 1.03105639 -3.46527427 0.31714597 0 0 Z " fill="" transform="translate(368.70143127441406,299.7527618408203)"/>
<path d="M0 0 C1.14726059 0.00142502 2.29452118 0.00285004 3.47654724 0.00431824 C4.77451736 0.00124161 6.07248749 -0.00183502 7.40979004 -0.00500488 C8.83235348 0.00189235 10.25491517 0.00915928 11.67747498 0.01676941 C13.12953653 0.01796109 14.58159887 0.0184144 16.03366089 0.01815796 C19.07766033 0.01972312 22.12154221 0.02801593 25.16551208 0.04142761 C29.07544649 0.05843264 32.9852518 0.06224155 36.89521885 0.06148243 C39.89340456 0.06175378 42.89156181 0.06722912 45.88973808 0.07448387 C47.33190127 0.07767498 48.77406768 0.07963897 50.21623421 0.08037758 C52.22749611 0.08253559 54.23874609 0.09206467 56.24998474 0.10197449 C57.96968224 0.10769218 57.96968224 0.10769218 59.72412109 0.11352539 C62.29856873 0.24723816 62.29856873 0.24723816 63.29856873 1.24723816 C63.40273665 3.01623851 63.43710692 4.78939524 63.4438324 6.56144714 C63.45021225 7.69609909 63.4565921 8.83075104 63.46316528 9.99978638 C63.46427811 11.2351564 63.46539093 12.47052643 63.46653748 13.74333191 C63.47153008 15.63185631 63.47153008 15.63185631 63.47662354 17.55853271 C63.48169816 20.22767151 63.48446286 22.89670857 63.48387146 25.56584167 C63.48376982 28.99036531 63.49742073 32.41468167 63.51464367 35.83915615 C63.52841989 39.09887379 63.52785199 42.35858908 63.52903748 45.61833191 C63.53622299 46.8516777 63.54340851 48.0850235 63.55081177 49.35574341 C63.54773514 50.49354752 63.54465851 51.63135162 63.54148865 52.80363464 C63.54291367 53.80877609 63.54433868 54.81391754 63.54580688 55.84951782 C63.29856873 58.24723816 63.29856873 58.24723816 61.29856873 60.24723816 C58.68652344 60.50793457 58.68652344 60.50793457 55.33592224 60.52189636 C54.08444901 60.53142838 52.83297577 60.54096039 51.5435791 60.55078125 C50.17154411 60.55051983 48.7995091 60.54958281 47.42747498 60.54801941 C46.02504346 60.55190509 44.62261313 60.55623949 43.22018433 60.56100464 C40.27874438 60.56847251 37.33742445 60.56817165 34.39598083 60.56291199 C30.62508921 60.55711812 26.85468889 60.57404299 23.08387852 60.59725666 C20.1868197 60.61198391 17.28987946 60.61286709 14.39278984 60.60974693 C13.00250717 60.61026071 11.61221796 60.61550911 10.22197151 60.62555885 C8.2782223 60.6378842 6.33437407 60.62920274 4.39060974 60.61955261 C3.28411575 60.62018204 2.17762177 60.62081146 1.03759766 60.62145996 C-1.70143127 60.24723816 -1.70143127 60.24723816 -3.55891418 59.05882263 C-5.12494384 56.57571316 -5.07565736 54.81849045 -5.07374573 51.88957214 C-5.07997452 50.79511276 -5.08620331 49.70065338 -5.09262085 48.57302856 C-5.0834111 47.39172867 -5.07420135 46.21042877 -5.06471252 44.99333191 C-5.06521103 43.78153763 -5.06570953 42.56974335 -5.06622314 41.32122803 C-5.06388125 38.75821799 -5.05414606 36.19520571 -5.03761292 33.63224792 C-5.01400521 29.69706287 -5.01705328 25.7625542 -5.0236969 21.82731628 C-5.01812093 19.3409841 -5.01101156 16.85465478 -5.00221252 14.36833191 C-5.00312393 13.18500778 -5.00403534 12.00168365 -5.00497437 10.78250122 C-4.99544235 9.691194 -4.98591034 8.59988678 -4.97608948 7.47550964 C-4.97148209 6.51193039 -4.96687469 5.54835114 -4.96212769 4.55557251 C-4.56407932 1.03105639 -3.46527427 0.31714597 0 0 Z " fill="" transform="translate(272.70143127441406,299.7527618408203)"/>
<path d="M0 0 C1.14726059 0.00142502 2.29452118 0.00285004 3.47654724 0.00431824 C4.77451736 0.00124161 6.07248749 -0.00183502 7.40979004 -0.00500488 C8.83235348 0.00189235 10.25491517 0.00915928 11.67747498 0.01676941 C13.12953653 0.01796109 14.58159887 0.0184144 16.03366089 0.01815796 C19.07766033 0.01972312 22.12154221 0.02801593 25.16551208 0.04142761 C29.07544649 0.05843264 32.9852518 0.06224155 36.89521885 0.06148243 C39.89340456 0.06175378 42.89156181 0.06722912 45.88973808 0.07448387 C47.33190127 0.07767498 48.77406768 0.07963897 50.21623421 0.08037758 C52.22749611 0.08253559 54.23874609 0.09206467 56.24998474 0.10197449 C57.96968224 0.10769218 57.96968224 0.10769218 59.72412109 0.11352539 C62.29856873 0.24723816 62.29856873 0.24723816 63.29856873 1.24723816 C63.40273665 3.01623851 63.43710692 4.78939524 63.4438324 6.56144714 C63.45021225 7.69609909 63.4565921 8.83075104 63.46316528 9.99978638 C63.46427811 11.2351564 63.46539093 12.47052643 63.46653748 13.74333191 C63.47153008 15.63185631 63.47153008 15.63185631 63.47662354 17.55853271 C63.48169816 20.22767151 63.48446286 22.89670857 63.48387146 25.56584167 C63.48376982 28.99036531 63.49742073 32.41468167 63.51464367 35.83915615 C63.52841989 39.09887379 63.52785199 42.35858908 63.52903748 45.61833191 C63.53622299 46.8516777 63.54340851 48.0850235 63.55081177 49.35574341 C63.54773514 50.49354752 63.54465851 51.63135162 63.54148865 52.80363464 C63.54291367 53.80877609 63.54433868 54.81391754 63.54580688 55.84951782 C63.29856873 58.24723816 63.29856873 58.24723816 61.29856873 60.24723816 C58.68652344 60.50793457 58.68652344 60.50793457 55.33592224 60.52189636 C54.08444901 60.53142838 52.83297577 60.54096039 51.5435791 60.55078125 C50.17154411 60.55051983 48.7995091 60.54958281 47.42747498 60.54801941 C46.02504346 60.55190509 44.62261313 60.55623949 43.22018433 60.56100464 C40.27874438 60.56847251 37.33742445 60.56817165 34.39598083 60.56291199 C30.62508921 60.55711812 26.85468889 60.57404299 23.08387852 60.59725666 C20.1868197 60.61198391 17.28987946 60.61286709 14.39278984 60.60974693 C13.00250717 60.61026071 11.61221796 60.61550911 10.22197151 60.62555885 C8.2782223 60.6378842 6.33437407 60.62920274 4.39060974 60.61955261 C3.28411575 60.62018204 2.17762177 60.62081146 1.03759766 60.62145996 C-1.70143127 60.24723816 -1.70143127 60.24723816 -3.55891418 59.05882263 C-5.12494384 56.57571316 -5.07565736 54.81849045 -5.07374573 51.88957214 C-5.07997452 50.79511276 -5.08620331 49.70065338 -5.09262085 48.57302856 C-5.0834111 47.39172867 -5.07420135 46.21042877 -5.06471252 44.99333191 C-5.06521103 43.78153763 -5.06570953 42.56974335 -5.06622314 41.32122803 C-5.06388125 38.75821799 -5.05414606 36.19520571 -5.03761292 33.63224792 C-5.01400521 29.69706287 -5.01705328 25.7625542 -5.0236969 21.82731628 C-5.01812093 19.3409841 -5.01101156 16.85465478 -5.00221252 14.36833191 C-5.00312393 13.18500778 -5.00403534 12.00168365 -5.00497437 10.78250122 C-4.99544235 9.691194 -4.98591034 8.59988678 -4.97608948 7.47550964 C-4.97148209 6.51193039 -4.96687469 5.54835114 -4.96212769 4.55557251 C-4.56407932 1.03105639 -3.46527427 0.31714597 0 0 Z " fill="" transform="translate(176.70143127441406,299.7527618408203)"/>
<path d="M0 0 C1.14726059 0.00142502 2.29452118 0.00285004 3.47654724 0.00431824 C4.77451736 0.00124161 6.07248749 -0.00183502 7.40979004 -0.00500488 C8.83235348 0.00189235 10.25491517 0.00915928 11.67747498 0.01676941 C13.12953653 0.01796109 14.58159887 0.0184144 16.03366089 0.01815796 C19.07766033 0.01972312 22.12154221 0.02801593 25.16551208 0.04142761 C29.07544649 0.05843264 32.9852518 0.06224155 36.89521885 0.06148243 C39.89340456 0.06175378 42.89156181 0.06722912 45.88973808 0.07448387 C47.33190127 0.07767498 48.77406768 0.07963897 50.21623421 0.08037758 C52.22749611 0.08253559 54.23874609 0.09206467 56.24998474 0.10197449 C57.96968224 0.10769218 57.96968224 0.10769218 59.72412109 0.11352539 C62.29856873 0.24723816 62.29856873 0.24723816 63.29856873 1.24723816 C63.40273665 3.01623851 63.43710692 4.78939524 63.4438324 6.56144714 C63.45021225 7.69609909 63.4565921 8.83075104 63.46316528 9.99978638 C63.46427811 11.2351564 63.46539093 12.47052643 63.46653748 13.74333191 C63.47153008 15.63185631 63.47153008 15.63185631 63.47662354 17.55853271 C63.48169816 20.22767151 63.48446286 22.89670857 63.48387146 25.56584167 C63.48376982 28.99036531 63.49742073 32.41468167 63.51464367 35.83915615 C63.52841989 39.09887379 63.52785199 42.35858908 63.52903748 45.61833191 C63.53622299 46.8516777 63.54340851 48.0850235 63.55081177 49.35574341 C63.54773514 50.49354752 63.54465851 51.63135162 63.54148865 52.80363464 C63.54291367 53.80877609 63.54433868 54.81391754 63.54580688 55.84951782 C63.29856873 58.24723816 63.29856873 58.24723816 61.29856873 60.24723816 C58.68652344 60.50793457 58.68652344 60.50793457 55.33592224 60.52189636 C54.08444901 60.53142838 52.83297577 60.54096039 51.5435791 60.55078125 C50.17154411 60.55051983 48.7995091 60.54958281 47.42747498 60.54801941 C46.02504346 60.55190509 44.62261313 60.55623949 43.22018433 60.56100464 C40.27874438 60.56847251 37.33742445 60.56817165 34.39598083 60.56291199 C30.62508921 60.55711812 26.85468889 60.57404299 23.08387852 60.59725666 C20.1868197 60.61198391 17.28987946 60.61286709 14.39278984 60.60974693 C13.00250717 60.61026071 11.61221796 60.61550911 10.22197151 60.62555885 C8.2782223 60.6378842 6.33437407 60.62920274 4.39060974 60.61955261 C3.28411575 60.62018204 2.17762177 60.62081146 1.03759766 60.62145996 C-1.70143127 60.24723816 -1.70143127 60.24723816 -3.55891418 59.05882263 C-5.12494384 56.57571316 -5.07565736 54.81849045 -5.07374573 51.88957214 C-5.07997452 50.79511276 -5.08620331 49.70065338 -5.09262085 48.57302856 C-5.0834111 47.39172867 -5.07420135 46.21042877 -5.06471252 44.99333191 C-5.06521103 43.78153763 -5.06570953 42.56974335 -5.06622314 41.32122803 C-5.06388125 38.75821799 -5.05414606 36.19520571 -5.03761292 33.63224792 C-5.01400521 29.69706287 -5.01705328 25.7625542 -5.0236969 21.82731628 C-5.01812093 19.3409841 -5.01101156 16.85465478 -5.00221252 14.36833191 C-5.00312393 13.18500778 -5.00403534 12.00168365 -5.00497437 10.78250122 C-4.99544235 9.691194 -4.98591034 8.59988678 -4.97608948 7.47550964 C-4.97148209 6.51193039 -4.96687469 5.54835114 -4.96212769 4.55557251 C-4.56407932 1.03105639 -3.46527427 0.31714597 0 0 Z " fill="" transform="translate(80.70143127441406,299.7527618408203)"/>
<path d="M0 0 C1.2546254 -0.00622879 2.50925079 -0.01245758 3.80189514 -0.01887512 C5.17188921 -0.01018797 6.54187941 -0.00087008 7.91186523 0.0090332 C9.31526184 0.00955183 10.71865917 0.00903403 12.12205505 0.00752258 C15.06178648 0.00761227 18.00124347 0.01803574 20.94091797 0.03613281 C24.71292646 0.05884103 28.48453468 0.05936007 32.25659275 0.05261517 C35.15361604 0.04927752 38.05054771 0.05590101 40.94755363 0.0657444 C42.33864805 0.06959867 43.72975266 0.07074368 45.12085152 0.06915855 C47.06236171 0.06878863 49.00385858 0.08286891 50.9453125 0.09765625 C52.60386009 0.10456734 52.60386009 0.10456734 54.2959137 0.11161804 C56.90795898 0.37231445 56.90795898 0.37231445 58.90795898 2.37231445 C59.15519714 4.77003479 59.15519714 4.77003479 59.15087891 7.81591797 C59.15549385 9.52262413 59.15549385 9.52262413 59.16020203 11.2638092 C59.14942375 13.1138279 59.14942375 13.1138279 59.13842773 15.0012207 C59.13796951 16.2611937 59.13751129 17.52116669 59.13703918 18.81932068 C59.13401363 21.48677971 59.12718483 24.15389516 59.11376953 26.82128906 C59.09676239 30.24695474 59.09295568 33.67247306 59.09371471 37.098176 C59.09337808 40.3575389 59.08454432 43.61687068 59.07592773 46.8762207 C59.07481491 48.11159073 59.07370209 49.34696075 59.07255554 50.61976624 C59.06617569 51.75441818 59.05979584 52.88907013 59.05322266 54.05810547 C59.04941086 55.06245132 59.04559906 56.06679718 59.04167175 57.10157776 C58.90795898 59.37231445 58.90795898 59.37231445 57.90795898 60.37231445 C55.8938977 60.47692163 53.87613988 60.51087273 51.859375 60.51757812 C50.56455704 60.52395798 49.26973907 60.53033783 47.9356842 60.53691101 C46.51107826 60.53843956 45.08647181 60.53955359 43.66186523 60.5402832 C42.21076931 60.54349408 40.75967372 60.54685802 39.30857849 60.55036926 C36.26284026 60.55636691 33.21713044 60.55820852 30.17138672 60.55761719 C26.26260042 60.55751554 22.35399567 60.57116754 18.44525242 60.5883894 C15.44702818 60.59949116 12.44884808 60.60153696 9.45060539 60.60100746 C8.00926017 60.60219035 6.56791391 60.60662931 5.12658882 60.61433983 C3.11306203 60.62410231 1.09948231 60.62000716 -0.9140625 60.61523438 C-2.63495338 60.6173719 -2.63495338 60.6173719 -4.39060974 60.61955261 C-7.09204102 60.37231445 -7.09204102 60.37231445 -9.09204102 58.37231445 C-9.35273743 56.0639801 -9.35273743 56.0639801 -9.36669922 53.14404297 C-9.37623123 52.05273575 -9.38576324 50.96142853 -9.39558411 49.83705139 C-9.3946727 48.65372726 -9.39376129 47.47040314 -9.39282227 46.2512207 C-9.39710739 45.04038315 -9.40139252 43.82954559 -9.4058075 42.58201599 C-9.41155937 40.0172488 -9.41204479 37.4524653 -9.40771484 34.88769531 C-9.40455686 30.95455188 -9.4279978 27.02216156 -9.45336914 23.08911133 C-9.45564216 20.60148207 -9.45634562 18.11385079 -9.45532227 15.6262207 C-9.46453201 14.44492081 -9.47374176 13.26362091 -9.48323059 12.04652405 C-9.4770018 10.95206467 -9.47077301 9.85760529 -9.46435547 8.72998047 C-9.46498489 7.76560562 -9.46561432 6.80123077 -9.46626282 5.80763245 C-9.09204102 3.37231445 -9.09204102 3.37231445 -7.94952393 1.56072998 C-5.26084917 -0.15948118 -3.17811042 -0.00180786 0 0 Z " fill="" transform="translate(373.092041015625,215.627685546875)"/>
<path d="M0 0 C1.2546254 -0.00622879 2.50925079 -0.01245758 3.80189514 -0.01887512 C5.17188921 -0.01018797 6.54187941 -0.00087008 7.91186523 0.0090332 C9.31526184 0.00955183 10.71865917 0.00903403 12.12205505 0.00752258 C15.06178648 0.00761227 18.00124347 0.01803574 20.94091797 0.03613281 C24.71292646 0.05884103 28.48453468 0.05936007 32.25659275 0.05261517 C35.15361604 0.04927752 38.05054771 0.05590101 40.94755363 0.0657444 C42.33864805 0.06959867 43.72975266 0.07074368 45.12085152 0.06915855 C47.06236171 0.06878863 49.00385858 0.08286891 50.9453125 0.09765625 C52.60386009 0.10456734 52.60386009 0.10456734 54.2959137 0.11161804 C56.90795898 0.37231445 56.90795898 0.37231445 58.90795898 2.37231445 C59.15519714 4.77003479 59.15519714 4.77003479 59.15087891 7.81591797 C59.15549385 9.52262413 59.15549385 9.52262413 59.16020203 11.2638092 C59.14942375 13.1138279 59.14942375 13.1138279 59.13842773 15.0012207 C59.13796951 16.2611937 59.13751129 17.52116669 59.13703918 18.81932068 C59.13401363 21.48677971 59.12718483 24.15389516 59.11376953 26.82128906 C59.09676239 30.24695474 59.09295568 33.67247306 59.09371471 37.098176 C59.09337808 40.3575389 59.08454432 43.61687068 59.07592773 46.8762207 C59.07481491 48.11159073 59.07370209 49.34696075 59.07255554 50.61976624 C59.06617569 51.75441818 59.05979584 52.88907013 59.05322266 54.05810547 C59.04941086 55.06245132 59.04559906 56.06679718 59.04167175 57.10157776 C58.90795898 59.37231445 58.90795898 59.37231445 57.90795898 60.37231445 C55.8938977 60.47692163 53.87613988 60.51087273 51.859375 60.51757812 C50.56455704 60.52395798 49.26973907 60.53033783 47.9356842 60.53691101 C46.51107826 60.53843956 45.08647181 60.53955359 43.66186523 60.5402832 C42.21076931 60.54349408 40.75967372 60.54685802 39.30857849 60.55036926 C36.26284026 60.55636691 33.21713044 60.55820852 30.17138672 60.55761719 C26.26260042 60.55751554 22.35399567 60.57116754 18.44525242 60.5883894 C15.44702818 60.59949116 12.44884808 60.60153696 9.45060539 60.60100746 C8.00926017 60.60219035 6.56791391 60.60662931 5.12658882 60.61433983 C3.11306203 60.62410231 1.09948231 60.62000716 -0.9140625 60.61523438 C-2.63495338 60.6173719 -2.63495338 60.6173719 -4.39060974 60.61955261 C-7.09204102 60.37231445 -7.09204102 60.37231445 -9.09204102 58.37231445 C-9.35273743 56.0639801 -9.35273743 56.0639801 -9.36669922 53.14404297 C-9.37623123 52.05273575 -9.38576324 50.96142853 -9.39558411 49.83705139 C-9.3946727 48.65372726 -9.39376129 47.47040314 -9.39282227 46.2512207 C-9.39710739 45.04038315 -9.40139252 43.82954559 -9.4058075 42.58201599 C-9.41155937 40.0172488 -9.41204479 37.4524653 -9.40771484 34.88769531 C-9.40455686 30.95455188 -9.4279978 27.02216156 -9.45336914 23.08911133 C-9.45564216 20.60148207 -9.45634562 18.11385079 -9.45532227 15.6262207 C-9.46453201 14.44492081 -9.47374176 13.26362091 -9.48323059 12.04652405 C-9.4770018 10.95206467 -9.47077301 9.85760529 -9.46435547 8.72998047 C-9.46498489 7.76560562 -9.46561432 6.80123077 -9.46626282 5.80763245 C-9.09204102 3.37231445 -9.09204102 3.37231445 -7.94952393 1.56072998 C-5.26084917 -0.15948118 -3.17811042 -0.00180786 0 0 Z " fill="" transform="translate(277.092041015625,215.627685546875)"/>
<path d="M0 0 C1.2546254 -0.00622879 2.50925079 -0.01245758 3.80189514 -0.01887512 C5.17188921 -0.01018797 6.54187941 -0.00087008 7.91186523 0.0090332 C9.31526184 0.00955183 10.71865917 0.00903403 12.12205505 0.00752258 C15.06178648 0.00761227 18.00124347 0.01803574 20.94091797 0.03613281 C24.71292646 0.05884103 28.48453468 0.05936007 32.25659275 0.05261517 C35.15361604 0.04927752 38.05054771 0.05590101 40.94755363 0.0657444 C42.33864805 0.06959867 43.72975266 0.07074368 45.12085152 0.06915855 C47.06236171 0.06878863 49.00385858 0.08286891 50.9453125 0.09765625 C52.60386009 0.10456734 52.60386009 0.10456734 54.2959137 0.11161804 C56.90795898 0.37231445 56.90795898 0.37231445 58.90795898 2.37231445 C59.14846802 4.77676392 59.14846802 4.77676392 59.13500977 7.83178711 C59.1348587 8.97281891 59.13470764 10.11385071 59.134552 11.28945923 C59.12422943 12.52594208 59.11390686 13.76242493 59.10327148 15.03637695 C59.10044159 16.29872162 59.09761169 17.56106628 59.09469604 18.86166382 C59.0853803 22.21878389 59.06740734 25.57563357 59.04528809 28.93267822 C59.02483449 32.35784567 59.01569538 35.78304104 59.00561523 39.20825195 C58.98352357 45.92968116 58.95002275 52.65098219 58.90795898 59.37231445 C56.15335976 60.74961407 53.92054167 60.51476071 50.83764648 60.53344727 C49.5629248 60.54305481 48.28820312 60.55266235 46.97485352 60.56256104 C45.57755715 60.56740775 44.18025872 60.57168689 42.78295898 60.57543945 C41.35571286 60.58118985 39.92846677 60.5869476 38.5012207 60.5927124 C35.50854125 60.60322032 32.51588866 60.6090648 29.52319336 60.61254883 C25.68273723 60.61804275 21.84263402 60.64209032 18.00228882 60.67052078 C15.05467681 60.6891123 12.10715056 60.69435081 9.15948486 60.6958847 C7.74324609 60.69891811 6.32700907 60.70696973 4.91082764 60.72006989 C2.93337979 60.7370608 0.95578684 60.73341546 -1.02172852 60.72875977 C-2.14820801 60.7324054 -3.2746875 60.73605103 -4.43530273 60.73980713 C-5.31202637 60.61853455 -6.18875 60.49726196 -7.09204102 60.37231445 C-9.30656177 57.05053332 -9.34779719 55.99345091 -9.36669922 52.12231445 C-9.37623123 51.05110352 -9.38576324 49.97989258 -9.39558411 48.8762207 C-9.3946727 47.71993164 -9.39376129 46.56364258 -9.39282227 45.37231445 C-9.39710739 44.18508789 -9.40139252 42.99786133 -9.4058075 41.7746582 C-9.41155401 39.26294595 -9.41204871 36.75121704 -9.40771484 34.23950195 C-9.4045536 30.38765222 -9.42801569 26.53656925 -9.45336914 22.68481445 C-9.45564188 20.24731543 -9.45634575 17.80981433 -9.45532227 15.37231445 C-9.46453201 14.21602539 -9.47374176 13.05973633 -9.48323059 11.8684082 C-9.4770018 10.79719727 -9.47077301 9.72598633 -9.46435547 8.62231445 C-9.46498489 7.6787207 -9.46561432 6.73512695 -9.46626282 5.76293945 C-9.09204102 3.37231445 -9.09204102 3.37231445 -7.94952393 1.56745911 C-5.26154304 -0.16204589 -3.18228006 -0.00181023 0 0 Z " fill="" transform="translate(373.092041015625,382.627685546875)"/>
<path d="M0 0 C1.2546254 -0.00622879 2.50925079 -0.01245758 3.80189514 -0.01887512 C5.17188921 -0.01018797 6.54187941 -0.00087008 7.91186523 0.0090332 C9.31526184 0.00955183 10.71865917 0.00903403 12.12205505 0.00752258 C15.06178648 0.00761227 18.00124347 0.01803574 20.94091797 0.03613281 C24.71292646 0.05884103 28.48453468 0.05936007 32.25659275 0.05261517 C35.15361604 0.04927752 38.05054771 0.05590101 40.94755363 0.0657444 C42.33864805 0.06959867 43.72975266 0.07074368 45.12085152 0.06915855 C47.06236171 0.06878863 49.00385858 0.08286891 50.9453125 0.09765625 C52.60386009 0.10456734 52.60386009 0.10456734 54.2959137 0.11161804 C56.90795898 0.37231445 56.90795898 0.37231445 58.90795898 2.37231445 C59.14846802 4.77676392 59.14846802 4.77676392 59.13500977 7.83178711 C59.1348587 8.97281891 59.13470764 10.11385071 59.134552 11.28945923 C59.12422943 12.52594208 59.11390686 13.76242493 59.10327148 15.03637695 C59.10044159 16.29872162 59.09761169 17.56106628 59.09469604 18.86166382 C59.0853803 22.21878389 59.06740734 25.57563357 59.04528809 28.93267822 C59.02483449 32.35784567 59.01569538 35.78304104 59.00561523 39.20825195 C58.98352357 45.92968116 58.95002275 52.65098219 58.90795898 59.37231445 C56.15335976 60.74961407 53.92054167 60.51476071 50.83764648 60.53344727 C49.5629248 60.54305481 48.28820312 60.55266235 46.97485352 60.56256104 C45.57755715 60.56740775 44.18025872 60.57168689 42.78295898 60.57543945 C41.35571286 60.58118985 39.92846677 60.5869476 38.5012207 60.5927124 C35.50854125 60.60322032 32.51588866 60.6090648 29.52319336 60.61254883 C25.68273723 60.61804275 21.84263402 60.64209032 18.00228882 60.67052078 C15.05467681 60.6891123 12.10715056 60.69435081 9.15948486 60.6958847 C7.74324609 60.69891811 6.32700907 60.70696973 4.91082764 60.72006989 C2.93337979 60.7370608 0.95578684 60.73341546 -1.02172852 60.72875977 C-2.14820801 60.7324054 -3.2746875 60.73605103 -4.43530273 60.73980713 C-5.31202637 60.61853455 -6.18875 60.49726196 -7.09204102 60.37231445 C-9.30656177 57.05053332 -9.34779719 55.99345091 -9.36669922 52.12231445 C-9.37623123 51.05110352 -9.38576324 49.97989258 -9.39558411 48.8762207 C-9.3946727 47.71993164 -9.39376129 46.56364258 -9.39282227 45.37231445 C-9.39710739 44.18508789 -9.40139252 42.99786133 -9.4058075 41.7746582 C-9.41155401 39.26294595 -9.41204871 36.75121704 -9.40771484 34.23950195 C-9.4045536 30.38765222 -9.42801569 26.53656925 -9.45336914 22.68481445 C-9.45564188 20.24731543 -9.45634575 17.80981433 -9.45532227 15.37231445 C-9.46453201 14.21602539 -9.47374176 13.05973633 -9.48323059 11.8684082 C-9.4770018 10.79719727 -9.47077301 9.72598633 -9.46435547 8.62231445 C-9.46498489 7.6787207 -9.46561432 6.73512695 -9.46626282 5.76293945 C-9.09204102 3.37231445 -9.09204102 3.37231445 -7.94952393 1.56745911 C-5.26154304 -0.16204589 -3.18228006 -0.00181023 0 0 Z " fill="" transform="translate(277.092041015625,382.627685546875)"/>
</svg>
