<?xml version="1.0" encoding="UTF-8"?>
<svg version="1.1" xmlns="http://www.w3.org/2000/svg" width="" height="" viewBox="0 0 512 512">
<path d="M0 0 C1.3034436 -0.00571014 2.60688721 -0.01142029 3.9498291 -0.01730347 C5.37722769 -0.01854855 6.80462638 -0.0196737 8.23202515 -0.02069092 C9.74889241 -0.02532493 11.26575851 -0.03035037 12.78262329 -0.03573608 C16.89038824 -0.04880729 20.99813688 -0.05529488 25.10591936 -0.05974674 C27.67783734 -0.06268647 30.24975095 -0.06679297 32.82166672 -0.07125092 C40.88463653 -0.08491294 48.94759626 -0.0945855 57.01057684 -0.09845281 C66.28808398 -0.10292826 75.56544339 -0.12045776 84.84290564 -0.1494534 C92.03385165 -0.17114023 99.22475632 -0.18116084 106.41573465 -0.18249393 C110.70129299 -0.1835371 114.98671224 -0.18934001 119.27223587 -0.20731354 C123.30901792 -0.2239155 127.34555812 -0.22589163 131.38236237 -0.21717453 C132.8540169 -0.21641055 134.32568511 -0.22066123 135.79730606 -0.23063278 C152.36233645 -0.33618458 165.14300396 2.47082391 177.63583374 13.82794189 C184.59632203 21.17432995 189.45480989 31.69121263 189.36239624 41.84747314 C189.35675659 42.65289551 189.35111694 43.45831787 189.3453064 44.28814697 C189.33805542 44.8994043 189.33080444 45.51066162 189.32333374 46.14044189 C190.42643387 46.13378006 191.529534 46.12711823 192.6660614 46.12025452 C203.09634979 46.05925951 213.52660166 46.01438126 223.95702839 45.98500538 C229.31854539 45.96939491 234.67991761 45.94824147 240.04135132 45.91412354 C245.22201637 45.8813648 250.40254276 45.86355419 255.58330345 45.85581017 C257.5531145 45.85029618 259.52291855 45.8395292 261.49267006 45.82325172 C281.25716862 45.66651992 281.25716862 45.66651992 290.32333374 49.14044189 C291.40485718 49.54262939 292.48638062 49.94481689 293.60067749 50.35919189 C308.82466993 57.69174626 319.09616985 69.79889966 325.37802124 85.37872314 C326.80477722 89.54697306 327.44759339 93.4269178 327.45755482 97.82673645 C327.46201266 98.74480764 327.4664705 99.66287884 327.47106344 100.60877037 C327.47078689 102.10860183 327.47078689 102.10860183 327.47050476 103.63873291 C327.47418145 104.70780695 327.47785814 105.77688099 327.48164624 106.87835121 C327.4926748 110.46702171 327.49652555 114.05566324 327.50033569 117.64434814 C327.50660102 120.21509391 327.51324788 122.78583877 327.52024841 125.35658264 C327.53998562 133.07579608 327.55007604 140.79501077 327.5589762 148.51424313 C327.56336404 152.15366132 327.5687296 155.79307807 327.57396507 159.43249512 C327.59097543 171.53844907 327.60546783 183.64440214 327.61271381 195.75036621 C327.61462356 198.88999432 327.61654391 202.02962241 327.61849976 205.16925049 C327.6189835 205.94954463 327.61946724 206.72983877 327.61996564 207.53377819 C327.62825937 220.16354937 327.65358602 232.79322563 327.68608043 245.42295539 C327.71920415 258.4036308 327.73716741 271.38425806 327.74035805 284.36497593 C327.74251836 291.64746044 327.75119631 298.92980657 327.77681923 306.21224976 C327.80088419 313.06754912 327.80431865 319.92259636 327.79405785 326.77792931 C327.79356323 329.28807083 327.79986166 331.79822473 327.81361389 334.30832863 C327.92469665 355.79321584 325.45244765 372.40028221 310.03427124 388.62872314 C295.52623238 402.07060929 279.51889399 404.4475375 260.58061218 404.40786743 C258.88325222 404.41160807 257.18589398 404.41621123 255.48853844 404.42159808 C250.84262283 404.4337924 246.19677942 404.43357183 241.55085146 404.43120933 C236.53295899 404.43080025 231.51508939 404.44184891 226.49720764 404.45132446 C216.67297241 404.46791586 206.84876118 404.47343317 197.0245131 404.47454922 C189.03622271 404.47550058 181.04794022 404.47961525 173.05965233 404.48595047 C150.39565305 404.50355781 127.73167268 404.51279013 105.06766651 404.51128952 C103.23609557 404.51116965 103.23609557 404.51116965 101.36752319 404.51104736 C100.14497958 404.5109656 98.92243596 404.51088384 97.66284557 404.5107996 C77.85367853 404.50998685 58.04458755 404.52912319 38.2354425 404.5573241 C17.88013469 404.58607315 -2.47513604 404.59986328 -22.83046466 404.59813654 C-34.25222507 404.59747334 -45.67390573 404.60293508 -57.09564781 404.62449265 C-66.82087778 404.64273102 -76.54599186 404.64702994 -86.27123155 404.6334738 C-91.22906784 404.62695759 -96.18668196 404.62677818 -101.14449692 404.6441803 C-105.69150743 404.65997573 -110.2381208 404.65698176 -114.78512201 404.63961203 C-116.42168931 404.63655633 -118.05828672 404.64012003 -119.69481846 404.65133218 C-139.51876268 404.77805099 -155.48190244 399.82675513 -170.20010376 385.80841064 C-178.34962504 377.02903677 -184.77773418 364.78743218 -184.81368065 352.56716442 C-184.81875519 351.64883428 -184.82382973 350.73050413 -184.82905805 349.78434581 C-184.82955581 348.77901862 -184.83005357 347.77369143 -184.83056641 346.73789978 C-184.83713979 345.13156173 -184.83713979 345.13156173 -184.84384596 343.4927724 C-184.85723741 339.89184731 -184.86341372 336.29094671 -184.86953735 332.69000244 C-184.87743827 330.11279693 -184.88570721 327.53559252 -184.89431763 324.95838928 C-184.91882644 317.21353843 -184.93346931 309.46868119 -184.94637769 301.72380349 C-184.95009162 299.53431729 -184.95406472 297.34483173 -184.95813036 295.15534616 C-184.98337582 281.54527783 -185.00541886 267.93520845 -185.01785851 254.32512188 C-185.020788 251.1733112 -185.02374968 248.02150055 -185.02676392 244.86968994 C-185.02788299 243.69470149 -185.02788299 243.69470149 -185.02902468 242.49597589 C-185.04166023 229.8254364 -185.07485927 217.15503781 -185.11656575 204.48456409 C-185.15908107 191.4609712 -185.18256484 178.43745021 -185.18777907 165.41378814 C-185.19118302 158.10771437 -185.20281693 150.80186052 -185.23588181 143.49585533 C-185.26697174 136.61508209 -185.27224552 129.7346966 -185.26049805 122.85386467 C-185.26027796 120.33649519 -185.26852898 117.81910758 -185.28615189 115.30179977 C-185.42318341 94.59016414 -183.25874925 78.12304421 -168.42666626 62.39044189 C-156.9503927 51.51715898 -143.67286447 45.9574441 -127.93911743 46.0269165 C-127.07031952 46.02677048 -126.20152161 46.02662445 -125.30639648 46.026474 C-122.44411697 46.02716884 -119.58190311 46.03494116 -116.71963501 46.04278564 C-114.73137955 46.04465135 -112.74312364 46.04607453 -110.75486755 46.04707336 C-105.52867355 46.05088655 -100.30250746 46.06070661 -95.07632446 46.07177734 C-89.74063494 46.08201723 -84.4049409 46.08657651 -79.06924438 46.09161377 C-68.60503943 46.10232995 -58.14085517 46.11939199 -47.67666626 46.14044189 C-47.61250015 45.38227173 -47.54833405 44.62410156 -47.48222351 43.84295654 C-47.39564987 42.8499353 -47.30907623 41.85691406 -47.21987915 40.83380127 C-47.13508804 39.8487561 -47.05029694 38.86371094 -46.9629364 37.84881592 C-45.76729649 26.53698276 -39.01242905 16.46439364 -30.42666626 9.26544189 C-21.1574143 2.59414637 -11.30635945 0.029841 0 0 Z M-14.55166626 31.39044189 C-20.36592516 38.91477694 -20.11002276 45.98354373 -20.11611938 55.13458252 C-20.23482102 61.11468901 -20.66799526 64.59340129 -24.67666626 69.14044189 C-30.20769498 72.82779438 -35.98399502 72.27630311 -42.41714478 72.25054932 C-44.44038392 72.25109193 -46.46362306 72.25167893 -48.48686218 72.25230408 C-49.55660845 72.25087591 -50.62635471 72.24944775 -51.72851753 72.2479763 C-57.41505745 72.24444572 -63.10149978 72.27027557 -68.78799438 72.29083252 C-76.01439671 72.31512751 -83.24051206 72.33090177 -90.46694946 72.31549072 C-96.31499574 72.30378666 -102.16233173 72.32134157 -108.01026726 72.35793495 C-110.23041191 72.36651434 -112.45062515 72.36452556 -114.67074776 72.35143089 C-133.3681019 72.14526901 -133.3681019 72.14526901 -149.14201355 81.38426208 C-157.81287653 90.19581311 -158.83003134 100.29334217 -158.81037903 112.14051819 C-158.81264458 113.14384853 -158.81491014 114.14717886 -158.81724435 115.18091315 C-158.82357141 118.54088823 -158.82275581 121.90082284 -158.82192993 125.26080322 C-158.82492223 127.6707006 -158.82832492 130.0805975 -158.83210754 132.49049377 C-158.84002671 138.35615826 -158.84316189 144.22181327 -158.84371992 150.08748201 C-158.84419561 154.85700024 -158.84625298 159.62651516 -158.84942055 164.39603233 C-158.85822417 177.92802614 -158.86284039 191.46001203 -158.86209007 204.99200872 C-158.86205012 205.7210527 -158.86201016 206.45009669 -158.86196899 207.20123291 C-158.86192811 207.93117034 -158.86188723 208.66110777 -158.86184511 209.41316452 C-158.86143874 221.24046008 -158.87100688 233.0677238 -158.88510736 244.89501015 C-158.89948207 257.0485292 -158.90637694 269.20203272 -158.90551358 281.35556048 C-158.90518199 288.17507599 -158.90791258 294.9945581 -158.91869164 301.81406593 C-158.92876579 308.22855262 -158.92845008 314.64298705 -158.921175 321.05747795 C-158.92012947 323.40964994 -158.9224902 325.76182633 -158.92853546 328.11399078 C-158.93626263 331.3292148 -158.9316056 334.54419582 -158.92390442 337.75941467 C-158.92904798 338.68627966 -158.93419155 339.61314465 -158.93949097 340.56809646 C-158.88600007 350.70070065 -156.97455225 359.01630325 -150.67666626 367.14044189 C-140.66395467 377.00509121 -130.59666767 377.58175197 -117.21673584 377.52812195 C-115.52578658 377.53229704 -113.83484012 377.53777551 -112.14389884 377.54444176 C-107.50657853 377.55889217 -102.869436 377.55465288 -98.23210597 377.54727495 C-93.22721994 377.54254458 -88.22237245 377.55505199 -83.21749878 377.56529236 C-73.41604309 377.58248838 -63.61465149 377.58331868 -53.81318463 377.57807945 C-45.84625339 377.57403794 -37.87934108 377.57548109 -29.91241074 377.58082771 C-28.77848378 377.58157614 -27.64455682 377.58232456 -26.47626843 377.58309566 C-24.17268801 377.58462714 -21.8691076 377.58616548 -19.56552719 377.58771063 C2.03712281 377.60143863 23.63973659 377.59599591 45.24238576 377.58452541 C65.00332891 377.5745932 84.76417842 377.587533 104.52510713 377.61145961 C124.81818113 377.63584532 145.1112115 377.64545974 165.40429986 377.63880688 C176.79630323 377.63531343 188.1882346 377.63755504 199.5802269 377.65505791 C209.2782063 377.66977327 218.97606297 377.670424 228.67403995 377.652987 C233.62111222 377.64446911 238.5679652 377.64234679 243.51502609 377.65763855 C248.04644276 377.671472 252.57745199 377.6667397 257.10884501 377.64739931 C258.74538013 377.64363488 260.38194778 377.64657407 262.01845394 377.65701097 C273.6900182 377.72613563 283.60566799 376.68411176 292.49911499 368.33184814 C300.16326952 359.12501582 301.47272941 349.45026364 301.47050476 337.95054626 C301.47601979 336.41492412 301.47601979 336.41492412 301.48164624 334.8482793 C301.49265593 331.41921315 301.49652227 327.99017734 301.50033569 324.56109619 C301.50660224 322.10193791 301.51324921 319.64278057 301.52024841 317.18362427 C301.53944924 309.8074522 301.55007088 302.4312882 301.5589762 295.0550985 C301.56336533 291.57804524 301.56873035 288.10099349 301.57396507 284.62394142 C301.5909692 273.06094905 301.60546387 261.49795759 301.61271381 249.93495464 C301.61462356 246.93777655 301.61654392 243.94059847 301.61849976 240.94342041 C301.6189835 240.19852991 301.61946724 239.4536394 301.61996564 238.68617646 C301.62826809 226.61635241 301.65361226 214.54662739 301.68608043 202.4768466 C301.71916985 190.07472511 301.7371641 177.67265394 301.74035805 165.27048808 C301.74252094 158.31119531 301.75123756 151.35204714 301.77681923 144.39279747 C301.80082661 137.84694867 301.80434017 131.30131314 301.79405785 124.75541306 C301.793562 122.35485659 301.79989683 119.95428739 301.81361389 117.55377007 C301.83131225 114.27263112 301.82423597 110.99242822 301.81108093 107.71128845 C301.82205018 106.76496872 301.83301942 105.81864899 301.84432107 104.8436529 C301.75854915 95.96196967 298.49237069 87.65220312 292.32333374 81.14044189 C284.38520512 74.76053852 277.45501944 72.84130112 267.42172241 72.86920166 C266.44043869 72.86397491 265.45915497 72.85874817 264.44813538 72.85336304 C262.32345867 72.84314505 260.19875708 72.83734648 258.07405663 72.83548164 C254.70629137 72.83180997 251.33881847 72.81506049 247.97111511 72.79472351 C238.39806565 72.73939207 228.82497326 72.70865617 219.25180054 72.68414307 C213.38981605 72.66823011 207.52803917 72.6379714 201.66616249 72.59937859 C199.43796309 72.58776135 197.2097265 72.58179852 194.98149681 72.58169746 C191.85848818 72.58150448 188.7360485 72.56316907 185.61312866 72.54107666 C184.70113708 72.54565384 183.78914551 72.55023102 182.84951782 72.5549469 C176.99011957 72.48936211 171.65341793 71.71412055 166.32333374 69.14044189 C163.43392169 65.16012938 163.95064471 59.67583664 163.82333374 54.89044189 C163.6207612 41.69712774 163.6207612 41.69712774 157.19420624 30.70923805 C150.18128282 24.82864099 140.37322773 25.71159829 131.76669312 25.7522583 C130.31200264 25.7481864 128.85731526 25.74284106 127.40263367 25.73632812 C123.4749236 25.72272218 119.54745153 25.72792516 115.61973763 25.73746538 C111.4959871 25.74509702 107.37225602 25.73800668 103.24850464 25.73330688 C96.32533129 25.72785949 89.40225417 25.73501418 82.47909546 25.74932861 C74.49183677 25.76565319 66.50480788 25.76036396 58.51755476 25.7438494 C51.64168576 25.73020548 44.76588567 25.72832903 37.8900075 25.7361654 C33.79130319 25.74082599 29.69270665 25.74151147 25.5940094 25.73155594 C21.73939015 25.7228461 17.88506521 25.72898086 14.03047752 25.74623871 C12.62165501 25.75018222 11.21280744 25.74910639 9.80399513 25.74245071 C0.88500301 25.70422141 -7.29460837 25.71100529 -14.55166626 31.39044189 Z " fill="" transform="translate(184.67666625976563,53.85955810546875)"/>
<path d="M0 0 C26.75231259 21.01455117 42.28922734 47.4741012 48.40234375 80.9140625 C51.90696863 113.15661135 44.93726407 145.64937902 24.47143555 171.28930664 C23.2629718 172.76460143 22.03807599 174.22638986 20.8125 175.6875 C20.14476562 176.50734375 19.47703125 177.3271875 18.7890625 178.171875 C13.7529685 184.13296585 7.99575296 188.95194801 1.8125 193.6875 C0.64267578 194.59822266 0.64267578 194.59822266 -0.55078125 195.52734375 C-25.87492604 214.29700401 -59.142749 221.4407166 -90.10571289 216.86303711 C-93.50218132 216.27073635 -96.84475062 215.52961093 -100.1875 214.6875 C-100.85152832 214.52121094 -101.51555664 214.35492188 -102.19970703 214.18359375 C-120.21291132 209.48789966 -137.33083474 200.57429355 -150.8984375 187.80078125 C-153.16677549 185.64573848 -153.16677549 185.64573848 -155.703125 183.73828125 C-160.21941169 180.01021441 -163.60774791 175.29357134 -167.1875 170.6875 C-168.10595703 169.50994141 -168.10595703 169.50994141 -169.04296875 168.30859375 C-188.13389264 142.48997586 -194.85181114 109.23885242 -190.41186523 77.73706055 C-186.82519076 56.69573824 -177.86590717 37.05637073 -164.1875 20.6875 C-162.94033203 19.19476563 -162.94033203 19.19476563 -161.66796875 17.671875 C-121.72126801 -28.62745564 -49.12294132 -35.77223295 0 0 Z M-132.1875 27.6875 C-133.21875 28.47125 -134.25 29.255 -135.3125 30.0625 C-153.20199873 46.39639015 -162.82871427 70.22469606 -164.5703125 94.04296875 C-165.61428501 118.20428369 -156.99532968 142.09254502 -140.75 159.9375 C-124.89729699 176.82140344 -103.43050221 189.56026689 -79.80883789 190.8137207 C-49.51119546 191.71331137 -25.40599299 183.0389048 -3.125 162.0625 C13.54262171 144.97622531 22.06910875 121.19560205 22.1315918 97.57006836 C21.92960451 83.78932297 19.02680301 70.02551851 12.8125 57.6875 C12.36003906 56.75808594 11.90757812 55.82867187 11.44140625 54.87109375 C7.98342024 48.1331752 3.6800961 42.46161197 -1.1875 36.6875 C-1.79078125 35.87925781 -2.3940625 35.07101563 -3.015625 34.23828125 C-5.66437762 31.12742611 -8.58621814 28.73702561 -11.8125 26.25 C-12.43713135 25.76700439 -13.0617627 25.28400879 -13.70532227 24.78637695 C-49.16521701 -2.2812364 -98.38209672 -1.6445985 -132.1875 27.6875 Z " fill="" transform="translate(327.1875,181.3125)"/>
<path d="M0 0 C5.9932694 3.91867615 9.76548585 9.35053112 11.6015625 16.265625 C12.76458947 24.00110671 11.44271989 30.44063504 6.875 36.8125 C2.51559955 42.02739866 -2.41866933 44.58409619 -9 46 C-16.8040317 46.61208092 -23.210689 44.76325379 -29.3125 39.875 C-34.78429768 34.65440261 -37.14831822 29.09211244 -37.5625 21.5625 C-37.24630559 14.03707313 -34.21675595 7.73616647 -28.75 2.5625 C-19.97822028 -4.16888748 -9.86549614 -4.45480356 0 0 Z " fill="" transform="translate(442,161)"/>
</svg>
