<?xml version="1.0" encoding="UTF-8"?>
<svg version="1.1" xmlns="http://www.w3.org/2000/svg" width="" height="" viewBox="0 0 512 512">
<path d="M0 0 C1.875 1.75 1.875 1.75 3 4 C2.5845406 7.59612566 1.61523803 9.99561222 -0.44921875 12.94140625 C-0.96025146 13.67931396 -1.47128418 14.41722168 -1.99780273 15.17749023 C-2.55540283 15.96454346 -3.11300293 16.75159668 -3.6875 17.5625 C-4.26765869 18.39531494 -4.84781738 19.22812988 -5.44555664 20.08618164 C-7.28947522 22.72950262 -9.14453639 25.36477439 -11 28 C-12.16230254 29.66347295 -13.32377713 31.32752476 -14.484375 32.9921875 C-17.39658591 37.16557262 -20.31803841 41.33238669 -23.24267578 45.49707031 C-26.12334042 49.59995637 -28.99956062 53.7059508 -31.875 57.8125 C-32.44726318 58.62968506 -33.01952637 59.44687012 -33.60913086 60.28881836 C-38.76766287 67.65948019 -43.90384077 75.04560948 -49.03857422 82.43286133 C-53.91476547 89.44598898 -58.8088249 96.44638256 -63.7109375 103.44140625 C-68.1543154 109.78478058 -72.57970045 116.14052689 -77 122.5 C-82.55467662 130.49149836 -88.12553084 138.4713625 -93.7109375 146.44140625 C-98.15431548 152.7847807 -102.57966998 159.14054796 -107 165.5 C-114.87677544 176.83125279 -122.78881758 188.13753 -130.70898438 199.43847656 C-138.17256158 210.08917995 -145.61572117 220.75373155 -153.03857422 231.43286133 C-157.91476547 238.44598898 -162.8088249 245.44638256 -167.7109375 252.44140625 C-172.1543154 258.78478058 -176.57970045 265.14052689 -181 271.5 C-186.55467662 279.49149836 -192.12553084 287.4713625 -197.7109375 295.44140625 C-202.15431548 301.7847807 -206.57966998 308.14054796 -211 314.5 C-218.87677544 325.83125279 -226.78881758 337.13753 -234.70898438 348.43847656 C-242.17256158 359.08917995 -249.61572117 369.75373155 -257.03857422 380.43286133 C-261.91476547 387.44598898 -266.8088249 394.44638256 -271.7109375 401.44140625 C-276.1543154 407.78478058 -280.57970045 414.14052689 -285 420.5 C-290.55015455 428.48499246 -296.11540416 436.45911617 -301.69775391 444.42163086 C-304.8579523 448.9317689 -308.00849697 453.44838627 -311.1484375 457.97265625 C-312.20417969 459.49342773 -312.20417969 459.49342773 -313.28125 461.04492188 C-314.62868185 462.9868829 -315.97511679 464.92953621 -317.3203125 466.87304688 C-318.56998525 468.6739699 -319.82607419 470.4704594 -321.08886719 472.26220703 C-322.43319448 474.18802285 -323.74917466 476.1337844 -325.04394531 478.09326172 C-325.72295898 479.09244629 -326.40197266 480.09163086 -327.1015625 481.12109375 C-327.70564941 482.03173584 -328.30973633 482.94237793 -328.93212891 483.88061523 C-331.5665011 486.58061346 -333.27530892 486.88596609 -337 487 C-342.73796941 483.05968556 -345.37455103 476.14871193 -348.5 470.125 C-349.74270596 467.7709965 -350.98717455 465.41802168 -352.234375 463.06640625 C-352.70547699 462.17534431 -352.70547699 462.17534431 -353.18609619 461.26628113 C-356.26120162 455.46650329 -359.49167249 449.76068028 -362.75 444.0625 C-367.05761096 436.50874136 -371.19997532 428.89478226 -375.20556641 421.17724609 C-378.37712239 415.10106603 -381.72550827 409.13866832 -385.125 403.1875 C-390.2500968 394.2094068 -395.16381762 385.13542736 -400 376 C-405.23199126 366.11855776 -410.58727477 356.32917813 -416.13671875 346.62109375 C-420.72556007 338.56236503 -425.09990618 330.3944971 -429.45324707 322.20724487 C-434.30682919 313.0851858 -439.31630461 304.06424624 -444.4375 295.08984375 C-448.16602928 288.53499721 -451.71592411 281.906414 -455.18603516 275.21191406 C-458.538119 268.78403935 -462.09660949 262.48446515 -465.6875 256.1875 C-467.79820094 252.46199125 -469.901431 248.73235425 -472 245 C-472.42603516 244.24654297 -472.85207031 243.49308594 -473.29101562 242.71679688 C-474.36293619 240.80175223 -475.40591559 238.87448847 -476.4375 236.9375 C-476.99308594 235.91527344 -477.54867188 234.89304688 -478.12109375 233.83984375 C-479.24648606 230.20357614 -478.54936402 228.41058086 -477 225 C-476 224 -476 224 -472.77734375 223.65234375 C-468.12167327 224.08083876 -466.83204655 225.30266979 -463.5625 228.5625 C-462.60209996 229.49404402 -461.64116038 230.42503209 -460.6796875 231.35546875 C-459.79539062 232.22816406 -458.91109375 233.10085937 -458 234 C-456.74090546 235.13812271 -455.47127085 236.26478616 -454.1875 237.375 C-453.24390625 238.19677734 -453.24390625 238.19677734 -452.28125 239.03515625 C-450.45212562 240.61058358 -448.61834833 242.17999924 -446.78125 243.74609375 C-440.23748858 249.32756386 -433.77691033 254.96800738 -427.43359375 260.77734375 C-422.962935 264.86049757 -418.38858111 268.81842379 -413.78125 272.74609375 C-407.23748858 278.32756386 -400.77691033 283.96800738 -394.43359375 289.77734375 C-389.962935 293.86049757 -385.38858111 297.81842379 -380.78125 301.74609375 C-374.23748858 307.32756386 -367.77691033 312.96800738 -361.43359375 318.77734375 C-356.95076466 322.87161302 -352.36220601 326.83851295 -347.74609375 330.78125 C-346.53899451 331.81242042 -345.33196498 332.84367244 -344.125 333.875 C-343.52437744 334.38820801 -342.92375488 334.90141602 -342.30493164 335.43017578 C-337.12470158 339.868371 -332.03924724 344.40197717 -327 349 C-323.88163667 347.62647072 -321.88134572 346.08161027 -319.57421875 343.5859375 C-318.94193359 342.90660156 -318.30964844 342.22726562 -317.65820312 341.52734375 C-317.00787109 340.81707031 -316.35753906 340.10679687 -315.6875 339.375 C-315.04876953 338.68792969 -314.41003906 338.00085938 -313.75195312 337.29296875 C-309.97960741 333.2186825 -306.29911788 329.07284391 -302.65454102 324.88427734 C-300.19536805 322.08364329 -297.66456983 319.35259116 -295.125 316.625 C-290.8013584 311.96166777 -286.52181547 307.26303824 -282.27734375 302.52734375 C-279.70190225 299.66917797 -277.10314236 296.83289739 -274.5 294 C-271.14706883 290.35072829 -267.81001643 286.68830402 -264.5 283 C-260.72462783 278.79315673 -256.91019552 274.62325147 -253.0859375 270.4609375 C-250.20577393 267.32332914 -247.34468386 264.16979059 -244.5 261 C-241.18998278 257.3116951 -237.852855 253.64934235 -234.5 250 C-229.63056955 244.69878077 -224.80576976 239.35895189 -220 234 C-214.72916984 228.12245558 -209.42768328 222.27500173 -204.08642578 216.46142578 C-201.20606171 213.32368887 -198.34483753 210.16996182 -195.5 207 C-191.72462783 202.79315673 -187.91019552 198.62325147 -184.0859375 194.4609375 C-181.20577393 191.32332914 -178.34468386 188.16979059 -175.5 185 C-171.72462783 180.79315673 -167.91019552 176.62325147 -164.0859375 172.4609375 C-161.20577393 169.32332914 -158.34468386 166.16979059 -155.5 163 C-151.72462783 158.79315673 -147.91019552 154.62325147 -144.0859375 150.4609375 C-141.20577393 147.32332914 -138.34468386 144.16979059 -135.5 141 C-132.18998278 137.3116951 -128.852855 133.64934235 -125.5 130 C-120.63056955 124.69878077 -115.80576976 119.35895189 -111 114 C-105.72916984 108.12245558 -100.42768328 102.27500173 -95.08642578 96.46142578 C-92.20606171 93.32368887 -89.34483753 90.16996182 -86.5 87 C-82.72462783 82.79315673 -78.91019552 78.62325147 -75.0859375 74.4609375 C-72.20577393 71.32332914 -69.34468386 68.16979059 -66.5 65 C-62.72462783 60.79315673 -58.91019552 56.62325147 -55.0859375 52.4609375 C-52.20577393 49.32332914 -49.34468386 46.16979059 -46.5 43 C-42.72462783 38.79315673 -38.91019552 34.62325147 -35.0859375 30.4609375 C-31.47489254 26.52711758 -27.90027625 22.56204101 -24.3359375 18.5859375 C-22.60062249 16.66490315 -20.85685419 14.75418359 -19.1015625 12.8515625 C-18.60720703 12.3153125 -18.11285156 11.7790625 -17.60351562 11.2265625 C-16.64289858 10.18599978 -15.68074338 9.14685417 -14.71679688 8.109375 C-12.80903049 6.04239531 -11.0020855 4.00292369 -9.3671875 1.7109375 C-6.69089025 -1.63825734 -3.7432346 -1.21655125 0 0 Z " fill="" transform="translate(494,13)"/>
</svg>
