<?xml version="1.0" encoding="UTF-8"?>
<svg version="1.1" xmlns="http://www.w3.org/2000/svg" width="" height="" viewBox="0 0 512 512">
<path d="M0 0 C4.8846525 2.26787438 7.73212562 5.1153475 10 10 C11.00655787 17.47728706 10.49193129 21.85975955 6 28 C4.06597741 30.19053751 2.01484888 32.24725031 -0.06170654 34.30221558 C-0.96725639 35.2103287 -0.96725639 35.2103287 -1.89110017 36.13678753 C-3.90543124 38.15440017 -5.92680326 40.16480364 -7.94824219 42.17529297 C-9.39751932 43.6240057 -10.84635569 45.07315949 -12.29478455 46.52272034 C-16.22177503 50.45028421 -20.15489767 54.37165473 -24.08915234 58.29194021 C-28.20203075 62.39230895 -32.30923923 66.49834906 -36.41705322 70.60379028 C-44.19380532 78.37432832 -51.97564124 86.13975438 -59.75931764 93.90335572 C-68.62171353 102.74339034 -77.47842533 111.5891104 -86.33466482 120.43531203 C-104.55012664 138.62987353 -122.7727131 156.81728541 -141 175 C-139.36374273 179.16843375 -136.31591155 181.95090486 -133.19226074 185.03479004 C-132.59168083 185.63566767 -131.99110091 186.23654531 -131.37232161 186.85563135 C-129.35643944 188.87012333 -127.33349826 190.87737452 -125.31054688 192.88476562 C-123.86479609 194.32667859 -122.41949962 195.76904721 -120.97462463 197.21183777 C-117.8612198 200.31891692 -114.74473355 203.42286049 -111.62586975 206.52445984 C-106.69658008 211.42673956 -101.7748966 216.33660735 -96.85437012 221.24768066 C-86.40880223 231.67103335 -75.95482819 242.08593685 -65.5 252.5 C-54.21403284 263.74196138 -42.92949258 274.98533194 -31.65468073 286.23848295 C-26.76072254 291.12246114 -21.8619245 296.00151707 -16.95940399 300.87689972 C-13.91335852 303.90805082 -10.87144036 306.9433178 -7.83064079 309.97973061 C-6.41741898 311.38920095 -5.00246568 312.7969376 -3.58568001 314.20282555 C-1.65507248 316.11904647 0.26931201 318.04130799 2.19226074 319.96520996 C2.75704022 320.52279952 3.3218197 321.08038907 3.9037137 321.65487528 C8.57292298 326.34901473 10.2908887 329.26385158 10.375 335.875 C10.27363418 341.08266907 9.69948398 344.10580633 6 348 C1.35351746 352.41415841 -2.88793066 352.46758261 -9 352.53125 C-15.66269174 351.35139834 -20.26600122 346.02147082 -24.85821533 341.39575195 C-25.52346623 340.73362103 -26.18871713 340.07149012 -26.87412715 339.38929462 C-29.09436001 337.17701718 -31.30740147 334.95768615 -33.52050781 332.73828125 C-35.11377244 331.14772752 -36.70746205 329.55759939 -38.30154419 327.96786499 C-42.62405799 323.65446422 -46.94022713 319.33476661 -51.25501347 315.01363754 C-55.77010405 310.49348315 -60.29007258 305.97821078 -64.80926514 301.4621582 C-72.88116674 293.39412735 -80.94801322 285.32106786 -89.012889 277.24601567 C-96.3254358 269.92452772 -103.643219 262.60830788 -110.96484375 255.29589844 C-119.47128937 246.80015441 -127.97436557 238.3010649 -136.47250628 229.79701138 C-140.96966611 225.29673066 -145.46817311 220.79781897 -149.97019196 216.30239868 C-154.2001578 212.07820008 -158.42522031 207.84915822 -162.64651108 203.61629105 C-164.19843515 202.06171741 -165.75207307 200.50885259 -167.30752182 198.95780563 C-169.42623779 196.84453449 -171.53872897 194.72523246 -173.64971924 192.60424805 C-174.27013446 191.98829427 -174.89054968 191.37234049 -175.52976537 190.73772144 C-176.09435735 190.16791396 -176.65894934 189.59810648 -177.24065018 189.0110321 C-177.97280868 188.27838654 -177.97280868 188.27838654 -178.71975827 187.53094006 C-181.7439212 183.91458225 -182.31578622 180.77920315 -182.375 176.125 C-182.40335938 175.11695313 -182.43171875 174.10890625 -182.4609375 173.0703125 C-181.45366615 166.36086093 -176.0212423 161.73377192 -171.39575195 157.14178467 C-170.40255558 156.14390832 -170.40255558 156.14390832 -169.38929462 155.12587285 C-167.17701718 152.90563999 -164.95768615 150.69259853 -162.73828125 148.47949219 C-161.14772752 146.88622756 -159.55759939 145.29253795 -157.96786499 143.69845581 C-153.65446422 139.37594201 -149.33476661 135.05977287 -145.01363754 130.74498653 C-140.49348315 126.22989595 -135.97821078 121.70992742 -131.4621582 117.19073486 C-123.39412735 109.11883326 -115.32106786 101.05198678 -107.24601567 92.987111 C-99.92452772 85.6745642 -92.60830788 78.356781 -85.29589844 71.03515625 C-76.80015441 62.52871063 -68.3010649 54.02563443 -59.79701138 45.52749372 C-55.29673066 41.03033389 -50.79781897 36.53182689 -46.30239868 32.02980804 C-42.07820008 27.7998422 -37.84915822 23.57477969 -33.61629105 19.35348892 C-32.06171741 17.80156485 -30.50885259 16.24792693 -28.95780563 14.69247818 C-26.84453449 12.57376221 -24.72523246 10.46127103 -22.60424805 8.35028076 C-21.98829427 7.72986554 -21.37234049 7.10945032 -20.73772144 6.47023463 C-20.16791396 5.90564265 -19.59810648 5.34105066 -19.0110321 4.75934982 C-18.27838654 4.02719132 -18.27838654 4.02719132 -17.53094006 3.28024173 C-12.35107988 -1.05139302 -6.437114 -0.69030713 0 0 Z " fill="" transform="translate(342,80)"/>
</svg>
