<?xml version="1.0" encoding="UTF-8"?>
<svg version="1.1" xmlns="http://www.w3.org/2000/svg" width="" height="" viewBox="0 0 512 512">
<path d="M0 0 C0.73660355 -0.00701431 1.47320709 -0.01402863 2.23213196 -0.02125549 C4.59622381 -0.03866105 6.96006517 -0.04510771 9.32421875 -0.046875 C10.1319574 -0.04754974 10.93969604 -0.04822449 11.77191162 -0.04891968 C23.76638325 -0.03298582 35.30171422 0.38746727 47.01171875 3.203125 C47.72779297 3.36409668 48.44386719 3.52506836 49.18164062 3.69091797 C72.68921293 9.07160899 95.29684031 20.02217308 114.01171875 35.203125 C114.54925781 35.63915039 115.08679688 36.07517578 115.640625 36.52441406 C144.13897984 59.78264217 164.72763002 90.64667334 173.82421875 126.453125 C174.01910889 127.21971436 174.21399902 127.98630371 174.41479492 128.77612305 C177.52306177 141.78043207 178.38780567 154.58405989 178.32421875 167.890625 C178.32148453 169.07975494 178.32148453 169.07975494 178.31869507 170.29290771 C178.27276476 182.16387189 177.79786164 193.61586938 175.01171875 205.203125 C174.85074707 205.91919922 174.68977539 206.63527344 174.52392578 207.37304688 C167.43431746 238.34666709 150.99368656 265.57746853 129.01171875 288.203125 C128.48255859 288.75492432 127.95339844 289.30672363 127.40820312 289.87524414 C101.13833847 316.82411801 59.94207322 335.85004769 22.10188293 336.39292908 C21.41599594 336.39732498 20.73010895 336.40172089 20.0234375 336.40625 C19.28683395 336.41326431 18.55023041 336.42027863 17.79130554 336.42750549 C15.42721369 336.44491105 13.06337233 336.45135771 10.69921875 336.453125 C9.8914801 336.45379974 9.08374146 336.45447449 8.25152588 336.45516968 C-3.74294575 336.43923582 -15.27827672 336.01878273 -26.98828125 333.203125 C-27.70435547 333.04215332 -28.42042969 332.88118164 -29.15820312 332.71533203 C-60.13182334 325.62572371 -87.36262478 309.18509281 -109.98828125 287.203125 C-110.54008057 286.67396484 -111.09187988 286.14480469 -111.66040039 285.59960938 C-138.64312294 259.2967489 -157.63434777 218.19315679 -158.17808533 180.29328918 C-158.18248123 179.60740219 -158.18687714 178.9215152 -158.19140625 178.21484375 C-158.19842056 177.4782402 -158.20543488 176.74163666 -158.21266174 175.98271179 C-158.2300673 173.61861994 -158.23651396 171.25477858 -158.23828125 168.890625 C-158.23895599 168.08288635 -158.23963074 167.27514771 -158.24032593 166.44293213 C-158.22439207 154.4484605 -157.80393898 142.91312953 -154.98828125 131.203125 C-154.82730957 130.48705078 -154.66633789 129.77097656 -154.50048828 129.03320312 C-147.41087996 98.05958291 -130.97024906 70.82878147 -108.98828125 48.203125 C-108.46057129 47.65205078 -107.93286133 47.10097656 -107.38916016 46.53320312 C-103.19903248 42.23040573 -98.77204862 38.45426064 -93.98828125 34.828125 C-93.24771484 34.26649658 -92.50714844 33.70486816 -91.74414062 33.1262207 C-65.65452874 13.63977596 -32.88507579 0.21076308 0 0 Z M-0.98828125 45.203125 C-5.03749845 50.34672523 -6.10510095 54.56642354 -6.12872314 60.99578857 C-6.13443329 61.93204071 -6.14014343 62.86829285 -6.14602661 63.83291626 C-6.14714447 64.84808319 -6.14826233 65.86325012 -6.14941406 66.90917969 C-6.15437897 67.98785309 -6.15934387 69.06652649 -6.16445923 70.17788696 C-6.1790545 73.74359782 -6.1858786 77.30926419 -6.19140625 80.875 C-6.19715999 83.35736085 -6.20291769 85.83972169 -6.2086792 88.32208252 C-6.21918177 93.52722378 -6.22502928 98.73234963 -6.22851562 103.9375 C-6.23321172 110.59644436 -6.25802359 117.2551549 -6.28648758 123.91404343 C-6.30514168 129.0425475 -6.31032105 134.17100253 -6.3118515 139.29953766 C-6.31487241 141.75384897 -6.32288191 144.20815953 -6.33603668 146.66243744 C-6.35315424 150.10161266 -6.35120268 153.54029126 -6.34472656 156.97949219 C-6.35394135 157.98656219 -6.36315613 158.9936322 -6.37265015 160.03121948 C-6.33206058 166.93709701 -5.68424176 173.81470758 -1.25073242 179.38696289 C-0.30677612 180.11774048 -0.30677612 180.11774048 0.65625 180.86328125 C1.36346191 181.42418457 2.07067383 181.98508789 2.79931641 182.56298828 C3.52940918 183.1042334 4.25950195 183.64547852 5.01171875 184.203125 C5.70185059 184.73019043 6.39198242 185.25725586 7.10302734 185.80029297 C9.28301023 187.44096112 11.48709022 189.04360364 13.69921875 190.640625 C20.70173351 195.74593395 27.63253671 200.93285083 34.51171875 206.203125 C41.47278322 211.52731992 48.46336589 216.80740156 55.51171875 222.015625 C56.68637695 222.88670898 56.68637695 222.88670898 57.88476562 223.77539062 C65.0559818 229.05446533 69.80295499 232.51866268 79.01171875 231.203125 C83.88147817 228.85842602 86.45619294 225.9355802 89.01171875 221.203125 C90.45229354 216.78536232 90.04312647 213.50055347 88.22949219 209.31713867 C84.42787518 202.71765958 76.39571273 198.14890653 70.32421875 193.765625 C62.32762587 187.93482568 54.42731613 181.98932662 46.56958008 175.97290039 C45.7577124 175.3514917 44.94584473 174.73008301 44.109375 174.08984375 C43.34618454 173.47718658 42.58299408 172.86452942 41.79667664 172.23330688 C39.06430662 170.12057417 39.06430662 170.12057417 35.93408203 168.68208313 C31.46044815 166.20343822 27.84160839 163.96895293 26.3360424 158.95125389 C25.24457695 151.905471 25.56589318 144.77590326 25.7265625 137.671875 C25.73413251 135.35218441 25.73595904 133.03246863 25.73231506 130.71276855 C25.73612238 124.61922512 25.80892618 118.5285345 25.89904785 112.43572998 C26.03009239 102.68630299 26.04915843 92.93583367 26.08127022 83.1856842 C26.10123388 79.79026695 26.14627962 76.39594764 26.1962738 73.00085449 C26.21570799 70.90747351 26.23485265 68.81408981 26.25366211 66.72070312 C26.27394974 65.78537247 26.29423737 64.85004181 26.31513977 63.8863678 C26.34948456 57.57437847 25.96124893 50.50694307 21.5592947 45.57624054 C16.80953991 41.52552349 13.61611305 40.84712421 7.55078125 40.92578125 C3.78711473 41.33688944 1.79381688 42.6859886 -0.98828125 45.203125 Z " fill="" transform="translate(245.98828125,87.796875)"/>
<path d="M0 0 C0.96594086 0.00054382 1.93188171 0.00108765 2.92709351 0.00164795 C18.82427694 0.04267209 34.1070568 0.96742637 49.6875 4.375 C51.16669922 4.69645996 51.16669922 4.69645996 52.67578125 5.02441406 C101.53665776 16.02291411 149.39188546 42.47830381 181.6875 81.375 C182.46996094 82.24640625 183.25242187 83.1178125 184.05859375 84.015625 C213.00993644 116.51674278 232.16563537 159.5009304 238.6875 202.375 C238.86265137 203.49511475 239.03780273 204.61522949 239.21826172 205.76928711 C240.8222463 217.07945314 241.08675288 228.27504914 241.0625 239.6875 C241.06168427 241.13641129 241.06168427 241.13641129 241.06085205 242.61459351 C240.91942085 297.42031418 222.15513018 351.27730465 186.6875 393.375 C186.24293457 393.90834961 185.79836914 394.44169922 185.34033203 394.99121094 C176.46755486 405.62194229 167.31894347 415.5049157 156.45703125 424.1640625 C154.64230999 425.61276804 152.84694774 427.08613988 151.07421875 428.5859375 C109.76426566 463.46989788 54.93725882 480.86382648 1.375 480.75 C0.40905914 480.74945618 -0.55688171 480.74891235 -1.55209351 480.74835205 C-17.44927694 480.70732791 -32.7320568 479.78257363 -48.3125 476.375 C-49.29863281 476.16069336 -50.28476563 475.94638672 -51.30078125 475.72558594 C-92.44383101 466.46435554 -130.42236543 447.15013436 -161.3125 418.375 C-162.70394666 417.16161781 -164.09958639 415.95302197 -165.5 414.75 C-171.99360756 409.06159978 -177.58778833 402.98521623 -182.99609375 396.25 C-184.48745378 394.3990034 -185.99911746 392.56409151 -187.53515625 390.75 C-198.24374514 378.0583391 -206.60569543 364.03942695 -214.3125 349.375 C-214.66022461 348.7243457 -215.00794922 348.07369141 -215.36621094 347.40332031 C-226.53507442 326.25330663 -233.61844915 301.92313867 -237.3125 278.375 C-237.49506348 277.21943604 -237.67762695 276.06387207 -237.86572266 274.87329102 C-239.46605387 263.60328263 -239.71166633 252.4342251 -239.6875 241.0625 C-239.68695618 240.09655914 -239.68641235 239.13061829 -239.68585205 238.13540649 C-239.64482791 222.23822306 -238.72007363 206.9554432 -235.3125 191.375 C-235.09819336 190.38886719 -234.88388672 189.40273437 -234.66308594 188.38671875 C-225.40185554 147.24366899 -206.08763436 109.26513457 -177.3125 78.375 C-176.09911781 76.98355334 -174.89052197 75.58791361 -173.6875 74.1875 C-159.78363249 58.26996892 -142.38900723 45.20594447 -124.3125 34.375 C-123.70647949 34.00955078 -123.10045898 33.64410156 -122.47607422 33.26757812 C-85.21012749 11.00254964 -43.27678081 -0.09196856 0 0 Z M-112.3125 74.375 C-113.30894531 75.08011719 -114.30539063 75.78523438 -115.33203125 76.51171875 C-158.36865064 107.92901495 -188.93620308 154.15226261 -197.56640625 207.1484375 C-205.34158548 259.66308756 -194.3597151 313.59405303 -162.89453125 356.9375 C-131.24685221 399.43145659 -85.39949957 430.26010073 -32.46875 438.6640625 C21.47715735 446.36767025 75.98790114 434.61715949 119.90869141 401.71777344 C120.49569824 401.2746582 121.08270508 400.83154297 121.6875 400.375 C122.61949219 399.67632812 123.55148437 398.97765625 124.51171875 398.2578125 C147.24441395 380.61343394 165.07602309 358.66627235 178.6875 333.375 C179.03619141 332.72837402 179.38488281 332.08174805 179.74414062 331.41552734 C203.6521925 286.12508299 207.57841688 231.84747529 193.17211914 183.03149414 C177.38199262 132.11135871 142.85283917 88.66689343 95.6875 63.375 C30.58694944 29.24546608 -51.51766193 31.17252224 -112.3125 74.375 Z " fill="" transform="translate(255.3125,15.625)"/>
</svg>
