<?xml version="1.0" encoding="UTF-8"?>
<svg version="1.1" xmlns="http://www.w3.org/2000/svg" width="" height="" viewBox="0 0 512 512">
<path d="M0 0 C2.59729509 2.31710743 5.13711895 4.68292023 7.66015625 7.08105469 C10.16735285 9.47708274 10.16735285 9.47708274 12.84765625 11.55371094 C16.45412744 14.45677121 19.22241494 17.93649032 22.2109375 21.45605469 C23.02691406 22.37257813 23.84289062 23.28910156 24.68359375 24.23339844 C32.45702821 33.03968675 38.9758093 42.51331495 45.2109375 52.45605469 C45.62085938 53.10380859 46.03078125 53.7515625 46.453125 54.41894531 C57.8156705 72.62570866 65.37078144 93.61351557 70.2109375 114.45605469 C70.41976563 115.33438965 70.62859375 116.21272461 70.84375 117.11767578 C77.23630237 145.34301975 77.01226067 178.37679442 70.2109375 206.45605469 C69.97487793 207.43558105 69.73881836 208.41510742 69.49560547 209.42431641 C60.84986254 243.99056521 44.52387012 273.77764608 21.2109375 300.45605469 C20.48777344 301.30296875 19.76460938 302.14988281 19.01953125 303.02246094 C14.74270184 307.96885268 10.2116514 312.25613654 5.2109375 316.45605469 C4.29957031 317.266875 3.38820313 318.07769531 2.44921875 318.91308594 C-31.33007098 348.74838012 -77.44258744 368.2489491 -122.7578125 368.69433594 C-123.58766663 368.70412979 -124.41752075 368.71392365 -125.27252197 368.72401428 C-143.78770344 368.89749021 -161.67441682 368.76110884 -179.7890625 364.45605469 C-181.14668701 364.13459473 -181.14668701 364.13459473 -182.53173828 363.80664062 C-197.589514 360.1061606 -212.91724832 355.05855984 -226.4140625 347.33105469 C-229.62537377 345.69222367 -231.43071128 345.23364527 -234.94775391 346.03955078 C-235.8282843 346.24086609 -236.7088147 346.4421814 -237.61602783 346.64959717 C-243.79884531 348.22102016 -249.95804991 349.86943079 -256.11005783 351.55662918 C-259.56091031 352.50133104 -263.01492453 353.43421348 -266.46875954 354.3679409 C-272.87540959 356.10012999 -279.28066507 357.83712948 -285.68066406 359.59375 C-290.15614071 360.82165473 -294.63544655 362.03460111 -299.11754227 363.23810959 C-300.8116815 363.69593524 -302.50437888 364.15913501 -304.19547653 364.62807083 C-326.64157343 370.84596033 -326.64157343 370.84596033 -335.2890625 366.83105469 C-341.48439983 360.94548422 -341.48439983 360.94548422 -342.09414673 355.96318054 C-342.25852037 347.60908243 -340.41272356 340.80157783 -337.625 332.97558594 C-337.18938098 331.71121388 -336.7553851 330.44628158 -336.32290649 329.18083191 C-335.18733692 325.87236105 -334.02995281 322.57195088 -332.86755371 319.27282715 C-331.70671104 315.96554348 -330.56733861 312.65089205 -329.42578125 309.33691406 C-322.49616143 289.27042211 -322.49616143 289.27042211 -319.73144531 281.98095703 C-319.28872787 280.79635139 -319.28872787 280.79635139 -318.83706665 279.58781433 C-318.31226092 278.19342439 -317.77396103 276.80399037 -317.21835327 275.42158508 C-316.11657428 272.48080039 -315.69345179 270.80781741 -316.52783203 267.73803711 C-317.94534912 265.17328058 -319.37636394 262.61805561 -320.86035156 260.09106445 C-335.44227165 235.22508515 -341.80140762 207.10563551 -342.02734375 178.42089844 C-342.03718292 177.39242294 -342.04702209 176.36394745 -342.05715942 175.30430603 C-342.38282941 132.49363446 -342.38282941 132.49363446 -337.7890625 114.45605469 C-337.54768555 113.47749512 -337.30630859 112.49893555 -337.05761719 111.49072266 C-328.31616076 76.92623426 -312.2960828 47.12398807 -288.7890625 20.45605469 C-288.06847656 19.61300781 -287.34789062 18.76996094 -286.60546875 17.90136719 C-282.3281535 12.94868637 -277.79352636 8.65912229 -272.7890625 4.45605469 C-271.87769531 3.64523438 -270.96632813 2.83441406 -270.02734375 1.99902344 C-261.21760536 -5.78210928 -251.7382398 -12.3047801 -241.7890625 -18.54394531 C-241.14130859 -18.95386719 -240.49355469 -19.36378906 -239.82617188 -19.78613281 C-167.09379365 -65.17722959 -64.49038523 -55.65463922 0 0 Z M-239.7890625 20.45605469 C-240.67980469 21.12507813 -241.57054687 21.79410156 -242.48828125 22.48339844 C-279.02399526 50.93647317 -301.66354615 92.54876412 -308.32177734 138.10058594 C-308.89935619 142.84819895 -308.96903656 147.56454482 -308.9921875 152.34277344 C-308.99788757 153.28047073 -309.00358765 154.21816803 -309.00946045 155.1842804 C-309.01886794 157.166869 -309.02542743 159.14947293 -309.02929688 161.13208008 C-309.03888877 164.08997983 -309.06990518 167.04714903 -309.1015625 170.00488281 C-309.19357928 186.38994729 -308.15846782 203.06208965 -303.1015625 218.76855469 C-302.84665039 219.58283936 -302.59173828 220.39712402 -302.32910156 221.23608398 C-298.10678196 234.1565333 -291.52904453 245.34095402 -283.79296875 256.44433594 C-280.72499379 261.05526907 -280.15343204 265.03381676 -280.7890625 270.45605469 C-281.93015498 274.86289974 -283.43072408 279.12628227 -284.9453125 283.41699219 C-285.58950874 285.29113929 -286.23370264 287.1652872 -286.87775421 289.03948402 C-287.77660822 291.64503543 -288.68677048 294.24658079 -289.59674072 296.8482666 C-291.19483228 301.42515124 -292.77454933 306.00841289 -294.3548584 310.59146118 C-295.19630207 313.02800284 -296.04197941 315.4630872 -296.89221191 317.89657593 C-297.46280334 319.5393602 -297.46280334 319.5393602 -298.04492188 321.21533203 C-298.38245483 322.18159515 -298.71998779 323.14785828 -299.06774902 324.1434021 C-299.88831318 326.37051398 -299.88831318 326.37051398 -299.7890625 328.45605469 C-290.11225081 326.29812485 -280.5312861 323.8840172 -270.98046875 321.22167969 C-269.95384125 320.93675659 -268.92721375 320.6518335 -267.86947632 320.35827637 C-263.61661611 319.17663091 -259.3645123 317.99280352 -255.11743164 316.79052734 C-251.97074555 315.90170852 -248.81988559 315.02923917 -245.66796875 314.15917969 C-244.72297012 313.88736877 -243.7779715 313.61555786 -242.80433655 313.33551025 C-234.64925832 311.10743553 -226.77898181 309.78936467 -219.0871582 313.94482422 C-218.47316162 314.29915527 -217.85916504 314.65348633 -217.2265625 315.01855469 C-215.83579614 315.76146495 -214.44247738 316.49961324 -213.046875 317.23339844 C-211.98968262 317.79389893 -211.98968262 317.79389893 -210.91113281 318.36572266 C-169.56281837 339.61072637 -121.08108505 341.0289314 -77.23999023 327.21533203 C-59.39812346 321.23309042 -42.57037096 312.0713273 -27.7890625 300.45605469 C-26.90089844 299.78832031 -26.01273437 299.12058594 -25.09765625 298.43261719 C11.39727734 270.04162563 34.29322303 228.25974432 40.74365234 182.69287109 C41.23966204 178.62010521 41.38775231 174.56812933 41.4140625 170.46777344 C41.42465195 169.36307205 41.42465195 169.36307205 41.43545532 168.23605347 C41.70381237 145.67214454 41.70381237 145.67214454 38.2109375 123.45605469 C38.01226074 122.63218262 37.81358398 121.80831055 37.60888672 120.95947266 C31.59734558 96.68365371 21.37330822 74.33437769 6.2109375 54.45605469 C5.53804688 53.55757813 4.86515625 52.65910156 4.171875 51.73339844 C-19.3599929 21.61442466 -52.01749483 0.45410636 -88.7890625 -9.54394531 C-89.50320313 -9.74358887 -90.21734375 -9.94323242 -90.953125 -10.14892578 C-141.39940578 -23.93555925 -198.76344421 -11.51127561 -239.7890625 20.45605469 Z " fill="" transform="translate(389.7890625,95.5439453125)"/>
</svg>
