<?xml version="1.0" encoding="UTF-8"?>
<svg version="1.1" xmlns="http://www.w3.org/2000/svg" width="" height="" viewBox="0 0 512 512">
<path d="M0 0 C6.6368343 3.49919873 11.59250323 8.71108288 16.79019165 14.00349426 C17.89402548 15.10874112 18.99896675 16.21288288 20.10491943 17.31600952 C23.0824707 20.2921352 26.04442841 23.28334346 29.00368547 26.27764535 C32.10695324 29.41232021 35.22453218 32.53269758 38.34057617 35.65466309 C44.22939281 41.55897611 50.10535506 47.47590981 55.9767288 53.39756316 C62.66579567 60.14265462 69.36918646 66.87343374 76.07377744 73.60308897 C89.85633519 87.43780959 103.62093574 101.29027034 117.37368774 115.15461731 C120.92919119 113.64144047 123.20093139 111.56977735 125.91442871 108.84092712 C126.81998505 107.9352298 127.72554138 107.02953247 128.65853882 106.09638977 C129.6546567 105.09000434 130.65068647 104.08353168 131.64663696 103.07698059 C132.70107244 102.01870591 133.75596483 100.96088632 134.8112793 99.90348816 C137.0818575 97.62658994 139.34929129 95.34662165 141.61437607 93.06425858 C145.19818776 89.45339159 148.78962449 85.85017434 152.38226318 82.24809265 C160.6583938 73.94787292 168.92450212 65.63769519 177.19050598 57.32739258 C184.76164089 49.71587575 192.33488502 42.10649003 199.91627896 34.50518978 C203.4850775 30.92644193 207.04894503 27.34287705 210.60908866 23.75552011 C212.82852271 21.52113172 215.05212452 19.29092659 217.27685928 17.06181717 C218.30493623 16.03000658 219.33128804 14.99647365 220.35574341 13.9610672 C221.75880578 12.543486 223.16874813 11.13272435 224.57897949 9.72227478 C225.3646826 8.93213045 226.1503857 8.14198612 226.95989799 7.32789803 C232.99338328 1.89558677 238.3562089 -0.29795882 246.37368774 -0.84538269 C253.03722339 -0.2967554 258.19640286 2.73541189 262.62368774 7.65461731 C266.62730487 13.37407035 267.79993691 18.58552533 267.15103149 25.54133606 C265.93641873 31.12855476 263.37048873 34.58024577 259.48591614 38.71591187 C258.99973444 39.23542563 258.51355275 39.7549394 258.01263827 40.290196 C252.55842814 46.08577251 246.95237407 51.73172096 241.32803345 57.36140442 C240.16680646 58.52727577 239.00577102 59.69333794 237.84490967 60.85957336 C234.72983007 63.98760691 231.61156828 67.11244762 228.49224496 70.23624873 C226.53835097 72.19309589 224.58503595 74.15051923 222.63188744 76.10811043 C216.50459906 82.24901692 210.37535453 88.38796074 204.24319583 94.52400392 C197.19171881 101.57997472 190.14685939 108.64246686 183.10758716 115.71061319 C177.64168217 121.19815269 172.17000838 126.67989628 166.69394368 132.15729719 C163.43287106 135.41941477 160.17424385 138.68388656 156.92162514 141.95443535 C153.86737147 145.02520465 150.80599156 148.08868813 147.73909378 151.1468277 C146.61908824 152.26606526 145.50161657 153.38784544 144.3869648 154.51241493 C129.33483346 169.69054093 129.33483346 169.69054093 118.62368774 170.40461731 C103.79373931 170.04891744 93.80045798 155.73771811 84.02676392 146.00056458 C82.82176242 144.80348567 81.61658769 143.60658113 80.41125488 142.40983582 C76.49272353 138.51724141 72.57938512 134.6194494 68.66665649 130.72102356 C67.31151585 129.37125136 65.95637069 128.0214837 64.60122108 126.6717205 C58.96523658 121.05730915 53.33067051 115.44148066 47.69980907 109.82193089 C39.66309566 101.80147852 31.61798599 93.7896633 23.5610258 85.78954846 C17.87472426 80.14199296 12.19808272 74.48484186 6.52848035 68.82052273 C3.15038896 65.44607376 -0.23170551 62.07588656 -3.62421608 58.71592903 C-6.81262853 55.55768496 -9.98884594 52.3876601 -13.15633011 49.20843124 C-14.31573961 48.04880186 -15.47938598 46.89338953 -16.64769173 45.74272346 C-24.11553687 38.38148407 -31.37088818 31.1429987 -32.25131226 20.15461731 C-31.90193414 14.45706654 -30.0428452 9.71784867 -26.62631226 5.15461731 C-18.87074298 -1.54152218 -9.68599174 -4.59901176 0 0 Z " fill="" transform="translate(137.62631225585938,171.8453826904297)"/>
</svg>
