<?xml version="1.0" encoding="UTF-8"?>
<svg version="1.1" xmlns="http://www.w3.org/2000/svg" width="" height="" viewBox="0 0 512 512">
<path d="M0 0 C4.58096658 2.27390961 6.97814309 4.97085746 10 9 C12.21610269 15.64830806 11 22.99206799 11 30 C56.54 30 102.08 30 149 30 C149 24.06 149 18.12 149 12 C154 2 154 2 160 0 C167.11934674 -0.6915289 172.31295946 -0.52642002 178 4 C182.11128629 9.72775253 182.52427467 14.0015156 182.25 20.9375 C182.23195313 21.81212891 182.21390625 22.68675781 182.1953125 23.58789062 C182.14858353 25.72574108 182.07685441 27.86302045 182 30 C182.92111572 29.98428955 183.84223145 29.9685791 184.79125977 29.95239258 C188.28594859 29.90054649 191.78021522 29.86330842 195.27514648 29.83520508 C196.77325992 29.82033428 198.2713316 29.80003134 199.76928711 29.77368164 C223.28433943 29.37110773 245.29724416 35.22594309 262.765625 51.83203125 C263.50296875 52.54746094 264.2403125 53.26289062 265 54 C265.61359375 54.54011719 266.2271875 55.08023438 266.859375 55.63671875 C279.75832183 67.3818607 287.98969189 86.4231066 289.18806732 103.71346653 C289.2644679 106.67414645 289.28106075 109.62902278 289.27415466 112.59068298 C289.27939134 113.71696549 289.28462802 114.84324799 289.29002339 116.00366026 C289.30495687 119.75630156 289.30572709 123.5088057 289.30639648 127.26147461 C289.31402259 129.96115683 289.32240299 132.66082781 289.33161926 135.36050415 C289.35438882 142.68120168 289.3623815 150.00187007 289.36744571 157.32259822 C289.37071277 161.90285529 289.37724138 166.48310405 289.3844471 171.0633564 C289.40400422 183.77084423 289.42041306 196.47832436 289.42332363 209.18582821 C289.4235112 209.99772564 289.42369877 210.80962306 289.42389202 211.64612344 C289.42425825 213.29170072 289.42462195 214.937278 289.42498314 216.58285528 C289.42516595 217.39960727 289.42534876 218.21635927 289.42553711 219.05786133 C289.42580793 220.2845034 289.42580793 220.2845034 289.42608423 221.53592611 C289.42962147 234.7692073 289.4566196 248.00232531 289.494035 261.23554998 C289.53223366 274.85600645 289.55148196 288.47638221 289.55178314 302.09689337 C289.55236519 309.73051424 289.56069287 317.36394053 289.58978081 324.99751091 C289.61445023 331.50096367 289.62147402 338.00415091 289.60653328 344.50763797 C289.59942637 347.81763376 289.60273908 351.12668603 289.62294388 354.43668938 C289.77638778 381.22637077 285.36367525 402.75287088 267 423 C266.19175781 423.94746094 266.19175781 423.94746094 265.3671875 424.9140625 C253.80203624 437.64154052 234.21562451 446.82518192 217.21188736 448.23041725 C209.08981639 448.61276576 200.96087846 448.54471849 192.83203125 448.51757812 C190.0955576 448.52080785 187.35911068 448.52998875 184.62265015 448.53881836 C177.99213406 448.55650743 171.36180015 448.55280686 164.73127723 448.5411678 C159.33748884 448.53209559 153.94375113 448.53092575 148.54995728 448.53526306 C147.77921932 448.53587599 147.00848137 448.53648893 146.21438771 448.53712043 C144.64813668 448.53839947 143.08188566 448.53969632 141.51563466 448.5410108 C126.8649218 448.55238843 112.21430943 448.53934729 97.56361306 448.51780933 C85.02119958 448.4999409 72.47893424 448.50304581 59.93652344 448.52148438 C45.33449082 448.54294106 30.73254603 448.55129006 16.13049984 448.53903532 C14.57034748 448.53776126 13.01019511 448.53650378 11.45004272 448.53526306 C10.68262735 448.53464596 9.91521197 448.53402886 9.12454158 448.53339306 C3.74378286 448.52995451 -1.63691966 448.53573603 -7.01766968 448.54518127 C-13.58442359 448.55645617 -20.15098651 448.55324687 -26.71771884 448.5320583 C-30.06155152 448.52162078 -33.40480695 448.51949049 -36.7486763 448.53065491 C-53.33944626 448.58091805 -68.29209457 448.23282143 -83.25 440.25 C-84.24302124 439.73457642 -84.24302124 439.73457642 -85.25610352 439.20874023 C-104.85362658 428.77431271 -119.16411085 412.22154569 -126 391 C-126.25341691 390.24699521 -126.50683382 389.49399042 -126.76793003 388.7181673 C-130.20253912 376.53689078 -129.42794842 363.89255078 -129.40405273 351.3503418 C-129.40812148 348.64534604 -129.4166277 345.94036797 -129.42485046 343.23538208 C-129.44197016 336.6738049 -129.44289267 330.11232377 -129.43763756 323.55073007 C-129.43358148 318.21220898 -129.43505641 312.87371607 -129.44038582 307.5351963 C-129.44113424 306.77280218 -129.44188266 306.01040805 -129.44265376 305.22491107 C-129.44418539 303.6756537 -129.44572373 302.12639635 -129.44726873 300.577139 C-129.46096931 286.07664652 -129.45557352 271.57620811 -129.44408352 257.07571689 C-129.43415585 243.84061914 -129.44708807 230.60566129 -129.47101771 217.37058511 C-129.49546283 203.74665227 -129.50500319 190.12278445 -129.49836498 176.49883014 C-129.49488448 168.86371308 -129.49702698 161.22870349 -129.51461601 153.59360313 C-129.52940602 147.09344603 -129.52988551 140.59347208 -129.5125451 134.09331831 C-129.50408756 130.78379604 -129.50396054 127.47486553 -129.51719666 124.16531944 C-129.61919568 96.53887017 -124.61658742 73.55445303 -104.75 53.1875 C-90.1059018 38.71298312 -69.85068072 29.88433797 -49.17555237 29.88670349 C-48.48984665 29.89186478 -47.80414093 29.89702606 -47.09765625 29.90234375 C-46.3750914 29.9037587 -45.65252655 29.90517365 -44.9080658 29.90663147 C-42.62616635 29.91217775 -40.34436921 29.9247198 -38.0625 29.9375 C-36.50455872 29.94252196 -34.94661588 29.94708364 -33.38867188 29.95117188 C-29.59240919 29.9621295 -25.79622187 29.97935628 -22 30 C-22.04640625 28.70964844 -22.0928125 27.41929688 -22.140625 26.08984375 C-22.17816434 24.37241912 -22.21456217 22.65496928 -22.25 20.9375 C-22.28351563 20.08994141 -22.31703125 19.24238281 -22.3515625 18.36914062 C-22.44476244 12.33444468 -21.49429538 8.94812631 -18 4 C-12.90641338 -0.96624696 -6.75761181 -1.00954901 0 0 Z M47 132 C44.79420562 135.50799348 42.95522967 139.15997596 41.125 142.875 C40.35627563 144.38453247 40.35627563 144.38453247 39.57202148 145.92456055 C37.57953663 149.83725111 35.61501931 153.76346391 33.65966797 157.69482422 C32.47274329 160.07374393 31.26865227 162.44329087 30.0625 164.8125 C29.7217041 165.51681152 29.3809082 166.22112305 29.02978516 166.94677734 C26.61716472 171.67134432 26.61716472 171.67134432 23.90576172 173.11523438 C20.14146655 174.26141197 16.36328343 174.77021661 12.47265625 175.26171875 C10.77523821 175.49564148 9.0779772 175.73070595 7.38085938 175.96679688 C4.73651739 176.32883873 2.09206117 176.68376523 -0.5559082 177.01831055 C-13.82668906 178.71290447 -28.10906596 181.18100249 -37.4765625 191.80859375 C-44.7051907 202.20669739 -49.24825507 213.7174259 -47.5 226.5625 C-45.09160627 237.19050847 -39.60902331 246.10494406 -31.39453125 253.1171875 C-26.75284907 257.1567198 -22.40070194 261.45160477 -18.0625 265.8125 C-17.29615234 266.57498047 -16.52980469 267.33746094 -15.74023438 268.12304688 C-15.01255859 268.85201172 -14.28488281 269.58097656 -13.53515625 270.33203125 C-12.879104 270.98921143 -12.22305176 271.6463916 -11.54711914 272.32348633 C-8.86857087 275.2260571 -8.75953305 277.49690611 -8.80859375 281.38671875 C-9.1820189 286.48511515 -10.21494126 291.4896478 -11.13870239 296.51205444 C-15.79574039 320.47742227 -15.79574039 320.47742227 -8.6796875 343.203125 C-1.57418989 353.37602321 8.15406943 360.13056209 20.375 362.4375 C34.71391986 364.12738437 45.2686749 358.35947929 57.42480469 351.66455078 C59.09874766 350.74274008 60.77545194 349.82592652 62.45483398 348.9140625 C64.06650886 348.03666727 65.67077155 347.14546478 67.26586914 346.23828125 C72.38408145 343.44462029 77.08505448 341.61493172 83 342 C85.78051779 342.97464466 87.87054827 343.88152555 90.375 345.3125 C91.04708496 345.66916748 91.71916992 346.02583496 92.41162109 346.39331055 C95.41599548 347.9944298 98.38514219 349.65665769 101.35742188 351.31640625 C116.14308976 359.5426578 128.684863 365.67328957 146 361 C158.60741634 356.45706158 166.26121865 348.69491038 171.90625 336.69921875 C177.30889202 323.36627005 173.36273923 307.7083681 170.77880859 294.15454102 C170.14058801 290.77533815 169.54793385 287.3949248 169 284 C168.86722656 283.21898926 168.73445312 282.43797852 168.59765625 281.63330078 C168.31602968 278.68412457 168.65063164 276.53922194 170.26513672 274.04736328 C172.07652023 271.90635283 173.99131544 269.95680834 176 268 C176.6899707 267.29311035 177.37994141 266.5862207 178.09082031 265.85791016 C180.24786879 263.6540122 182.43186394 261.48044986 184.625 259.3125 C185.36234375 258.57966797 186.0996875 257.84683594 186.859375 257.09179688 C189.83754315 254.13230899 192.81796482 251.17700658 195.828125 248.25 C197.8504507 246.15492877 199.50830621 244.1037063 201.125 241.6875 C201.84042969 240.64142578 201.84042969 240.64142578 202.5703125 239.57421875 C206.13400207 233.15763014 207.53640588 227.45266979 207.4375 220.125 C207.42992676 219.33488525 207.42235352 218.54477051 207.41455078 217.73071289 C207.23843482 211.47731065 206.17352881 206.46004646 203 201 C202.56429687 200.22398437 202.12859375 199.44796875 201.6796875 198.6484375 C195.95421099 189.29369719 188.34659037 183.53083617 178 180 C171.66415211 178.53549633 165.18784734 177.74977401 158.75 176.875 C156.18428947 176.51862445 153.61959333 176.15723821 151.05621338 175.78445435 C149.47378211 175.5550178 147.88994011 175.33502602 146.30462646 175.12643433 C134.92907694 173.49785574 134.92907694 173.49785574 131.77099609 169.40863037 C130.61777626 167.37589711 129.64495729 165.31893706 128.6953125 163.18359375 C128.32703339 162.41249771 127.95875427 161.64140167 127.57931519 160.84693909 C126.40619972 158.38666776 125.26302952 155.91417476 124.125 153.4375 C116.89210824 137.78688518 110.29499486 125.0346447 93.56640625 117.97265625 C76.40754664 112.01510019 58.39998509 118.23948399 47 132 Z " fill="" transform="translate(176,32)"/>
<path d="M0 0 C0.74378906 0.061875 1.48757813 0.12375 2.25390625 0.1875 C6.99917925 1.95318298 9.06093347 6.94548566 11.07363892 11.31570435 C11.3716037 11.97722504 11.66956848 12.63874573 11.9765625 13.3203125 C12.64636516 14.75817156 13.31696471 16.19565962 13.98828125 17.6328125 C15.02334352 19.86659866 16.05233482 22.10252493 17.06689453 24.34570312 C23.03049712 37.47903017 29.35138413 48.71433967 43.1796875 54.87695312 C49.14548642 56.93350851 55.20501106 57.87493337 61.4375 58.75 C62.71367187 58.94464844 63.98984375 59.13929688 65.3046875 59.33984375 C69.01397661 59.90496039 72.72546169 60.45328131 76.4375 61 C78.66790412 61.3302907 80.89719945 61.66820708 83.125 62.015625 C84.05699219 62.15774414 84.98898437 62.29986328 85.94921875 62.44628906 C90.22828675 63.39849925 91.97078178 64.29992266 94.4375 68 C95.13500421 71.12951004 95.03271482 73.85662726 94.4375 77 C93.17871094 78.88598633 93.17871094 78.88598633 91.484375 80.70703125 C90.84959229 81.39450439 90.21480957 82.08197754 89.56079102 82.7902832 C88.86010498 83.51948975 88.15941895 84.24869629 87.4375 85 C86.70136475 85.76852295 85.96522949 86.5370459 85.20678711 87.32885742 C82.86618103 89.73990581 80.50010481 92.12295949 78.125 94.5 C77.31482422 95.32242188 76.50464844 96.14484375 75.66992188 96.9921875 C74.50879883 98.15621094 74.50879883 98.15621094 73.32421875 99.34375 C72.62514404 100.04693359 71.92606934 100.75011719 71.20581055 101.47460938 C69.4375 103 69.4375 103 67.4375 103 C67.03337891 103.86238281 67.03337891 103.86238281 66.62109375 104.7421875 C65.41515936 107.04261681 64.02348372 109.0239105 62.5 111.125 C53.69839692 124.33816452 56.04594096 138.77645357 58.9375 153.625 C63.26585415 175.99206253 63.26585415 175.99206253 59.5 182.1875 C55.36910135 184.63231757 52.14553928 184.58843778 47.4375 184 C44.49440958 183.0283247 41.88481568 181.64080578 39.18359375 180.1328125 C38.43844009 179.73802704 37.69328644 179.34324158 36.92555237 178.93649292 C34.56563368 177.68325027 32.21991412 176.40606488 29.875 175.125 C27.52488685 173.85462939 25.17209658 172.58992693 22.81373596 171.33493042 C21.35371462 170.55665674 19.89852102 169.76922886 18.44932556 168.97097778 C12.0915828 165.55823081 5.85619415 163.71780621 -1.4375 163.6875 C-2.36304688 163.67074219 -3.28859375 163.65398437 -4.2421875 163.63671875 C-12.62184468 164.55355183 -19.96266356 167.91294005 -27.375 171.75 C-28.24229736 172.18812012 -29.10959473 172.62624023 -30.00317383 173.07763672 C-33.86272365 175.03912365 -37.68459841 177.03810744 -41.4296875 179.2109375 C-51.71439846 185.13977087 -51.71439846 185.13977087 -57.68359375 184.53515625 C-61.3442337 183.49252075 -62.59286019 182.24037518 -64.5625 179 C-65.78762341 169.22923603 -63.18367065 159.35925529 -61.33984375 149.82617188 C-58.88114316 136.52811413 -57.84997297 123.70347057 -64.98828125 111.578125 C-69.25201087 105.71687394 -74.69964489 100.8612997 -79.828125 95.76953125 C-81.31385928 94.29115534 -82.7991232 92.8123087 -84.28417969 91.33325195 C-85.30934429 90.31316404 -86.33539739 89.29396832 -87.36230469 88.27563477 C-88.85325558 86.79676883 -90.3409918 85.3147349 -91.828125 83.83203125 C-93.15505371 82.51295776 -93.15505371 82.51295776 -94.50878906 81.16723633 C-97.88803613 77.60119065 -97.91601651 74.94802614 -97.83203125 70.19140625 C-97.5625 68 -97.5625 68 -96.0625 65.5625 C-90.6135186 62.15688663 -83.61033814 61.6083909 -77.328125 60.703125 C-75.76807514 60.46454667 -74.20818377 60.2249301 -72.6484375 59.984375 C-70.23658595 59.61512434 -67.82455924 59.25172485 -65.40917969 58.90625 C-51.36998114 56.88341009 -38.67272658 53.83919085 -29.5625 42 C-27.30728399 38.44748739 -25.41368719 34.77603156 -23.5625 31 C-23.05195068 29.99485352 -22.54140137 28.98970703 -22.01538086 27.95410156 C-19.68287002 23.34563896 -17.41429176 18.70909244 -15.19140625 14.046875 C-14.83755859 13.31339844 -14.48371094 12.57992187 -14.11914062 11.82421875 C-13.47712023 10.48467915 -12.8484758 9.13860804 -12.23632812 7.78515625 C-9.60393678 2.25653479 -6.29093766 -0.70020871 0 0 Z " fill="" transform="translate(257.5625,179)"/>
</svg>
