<?xml version="1.0" encoding="UTF-8"?>
<svg version="1.1" xmlns="http://www.w3.org/2000/svg" width="" height="" viewBox="0 0 512 512">
<path d="M0 0 C8.87361553 5.52370438 16.21685406 13.81889721 23.56123352 21.17079163 C24.48913277 22.09571976 25.41703203 23.02064789 26.37304944 23.97360414 C28.91978112 26.51236101 31.46345797 29.05415852 34.00657666 31.59653389 C36.76073308 34.34882321 39.51772985 37.0982651 42.27430725 39.84812927 C48.28487668 45.84518809 54.29173138 51.84595827 60.29775643 57.8475678 C64.05121099 61.59825051 67.80539836 65.34819915 71.55971336 69.09802055 C81.96657669 79.49270631 92.37250368 89.8883274 102.77497578 100.28740788 C103.4390469 100.95125943 104.10311803 101.61511099 104.78731252 102.29907927 C105.45289247 102.96444094 106.11847241 103.62980261 106.80422145 104.31532675 C108.15276392 105.66342577 109.50130795 107.01152323 110.84985352 108.35961914 C111.51876589 109.02831008 112.18767826 109.69700102 112.8768607 110.38595533 C123.73114797 121.23628909 134.59218058 132.07984406 145.45611332 142.92051942 C156.62548243 154.06617079 167.78921333 165.21744358 178.94731301 176.37437719 C185.20628059 182.63242885 191.46763458 188.88805035 197.73522377 195.13746834 C203.06731581 200.45415451 208.39423239 205.77595884 213.7144979 211.10448057 C216.4272964 213.82118227 219.14244417 216.53541927 221.86421204 219.24313736 C224.81722711 222.18104788 227.75843978 225.13050129 230.69868469 228.08119202 C231.5566536 228.93110452 232.41462251 229.78101703 233.29859048 230.65668446 C240.28445881 237.70074964 245.86650784 244.05557683 246.0625 254.3125 C246.08828125 255.11171875 246.1140625 255.9109375 246.140625 256.734375 C245.36129256 263.4514784 242.66852649 268.33194675 237.98736572 273.19006348 C237.21594596 273.99752321 237.21594596 273.99752321 236.42894197 274.82129526 C234.57240939 276.75085438 232.69430921 278.6575874 230.8125 280.5625 C230.07268985 281.31568449 229.3328797 282.06886898 228.57065105 282.84487724 C222.61069662 288.90563871 216.60897896 294.92427998 210.59935522 300.93568754 C207.87370761 303.66321001 205.15090519 306.3935706 202.42767334 309.12350464 C196.49688881 315.06776586 190.5624238 321.00834318 184.62710857 326.94808006 C180.91644667 330.66151816 177.20651697 334.37568719 173.49671173 338.08998108 C163.2074145 348.39144865 152.91718716 358.6919851 142.62350082 368.98906708 C141.96718985 369.64559762 141.31087888 370.30212816 140.63467969 370.97855356 C139.64802848 371.96553219 139.64802848 371.96553219 138.64144492 372.97244978 C137.30881329 374.30552486 135.97618321 375.6386015 134.64355469 376.97167969 C133.65203488 377.96353164 133.65203488 377.96353164 132.64048436 378.97542101 C121.90674018 389.7131216 111.17977948 400.45757193 100.45568487 411.20490903 C89.42293949 422.26137162 78.38457325 433.31219638 67.34054589 444.35738993 C61.14849042 450.55036105 54.95886236 456.74571535 48.77544403 462.9473114 C43.51738641 468.22077377 38.2542123 473.48906168 32.98431942 478.75069791 C30.2979758 481.43313869 27.61409637 484.11792693 24.93673706 486.80933762 C22.03183035 489.72935044 19.11538038 492.63755761 16.19769287 495.5447998 C15.35760862 496.39294046 14.51752437 497.24108111 13.65198302 498.114923 C6.44130501 505.26536176 0.09938613 510.64169011 -10.375 510.875 C-17.52603706 510.78769544 -21.95587224 509.63382876 -27.15625 504.69140625 C-31.96750955 499.47592202 -34.46095204 495.10275999 -34.625 487.875 C-34.66496094 486.92238281 -34.70492187 485.96976562 -34.74609375 484.98828125 C-33.17916194 475.37849665 -27.10890743 468.76407855 -20.3860321 462.15975952 C-19.49971267 461.26916796 -18.61339324 460.37857641 -17.70021564 459.46099722 C-15.25986562 457.00954918 -12.80434235 454.57382924 -10.34588611 452.140558 C-7.68994676 449.50632425 -5.0485884 446.85753776 -2.40538025 444.21054077 C2.16943486 439.63311103 6.75327415 435.06488446 11.34346962 430.5028801 C17.97999421 423.90708777 24.60257709 417.2974398 31.22189989 410.68438978 C41.96312072 399.95409689 52.71544666 389.23500439 63.47485352 378.52294922 C73.9231113 368.12062589 84.36607533 357.71303475 94.80200195 347.29833984 C95.44587938 346.65577603 96.08975681 346.01321222 96.75314567 345.35117678 C99.98343795 342.12740996 103.21362683 338.90353955 106.44376433 335.67961764 C133.21733331 308.95783493 160.00896718 282.25422542 186.8125 255.5625 C185.39723517 252.34864595 183.70327252 250.20789038 181.21984291 247.73771381 C180.46939756 246.98636986 179.71895221 246.23502591 178.94576609 245.46091396 C178.11776637 244.64215052 177.28976665 243.82338708 176.43667603 242.97981262 C175.12140051 241.66726558 175.12140051 241.66726558 173.77955377 240.32820243 C171.34402274 237.89963725 168.90409064 235.4756496 166.46226215 233.05342615 C163.83002027 230.44009113 161.20360564 227.82091211 158.57658386 225.20233154 C154.02270025 220.66446268 149.46545018 216.12999772 144.90617752 211.59754372 C137.69804777 204.43132478 130.49970325 197.25532141 123.30282593 190.07780457 C120.8401053 187.62196403 118.3773088 185.1661996 115.91448021 182.71046734 C115.29897921 182.09673799 114.6834782 181.48300864 114.04932565 180.85068143 C107.04251528 173.86436749 100.03338075 166.88038712 93.0234375 159.8972168 C92.38263557 159.25885742 91.74183364 158.62049804 91.08161347 157.96279445 C80.70034396 147.62151904 70.31316643 137.28619255 59.92467745 126.95217041 C49.2572013 116.34014421 38.5993769 105.71848734 27.94959867 95.08870047 C21.38175405 88.53392476 14.80603311 81.98725424 8.2199391 75.45081445 C3.70517648 70.96879293 -0.80044522 66.47771697 -5.299026 61.9794545 C-7.89366162 59.38558468 -10.49219386 56.79596323 -13.10188103 54.21722984 C-15.93412788 51.41838837 -18.74668424 48.6002694 -21.55770874 45.78010559 C-22.38124702 44.97249576 -23.2047853 44.16488593 -24.05327928 43.33280307 C-29.62517218 37.69659933 -33.41204564 32.26654297 -34.71875 24.33984375 C-34.6340671 16.64428496 -33.70521248 11.27115303 -28.31640625 5.58984375 C-20.54970718 -1.56021759 -10.16731368 -4.54416673 0 0 Z " fill="" transform="translate(57.1875,1.4375)"/>
<path d="M0 0 C1.04542969 -0.03996094 2.09085938 -0.07992188 3.16796875 -0.12109375 C13.24468094 1.4233541 19.98231573 7.8848645 26.90290833 14.89299011 C27.8762537 15.86056376 28.85068454 16.82704646 29.82609385 17.79253942 C32.48449048 20.43018399 35.12721366 23.08304792 37.76746356 25.73884022 C40.62482407 28.60755818 43.49658966 31.46179537 46.3664856 34.31796265 C51.97886582 39.90815277 57.57769703 45.51172406 63.17172883 51.12026908 C67.71985239 55.67970152 72.27285337 60.23420963 76.82935143 64.7852726 C77.4787628 65.43391781 78.12817418 66.08256302 78.79726469 66.75086415 C80.11670455 68.06870533 81.4361556 69.3865353 82.7556177 70.7043542 C95.11693194 83.05142332 107.46289669 95.41374905 119.80363777 107.7813761 C130.38444302 118.38451897 140.97828881 128.97448429 151.58178711 139.55493164 C163.90627513 151.85263986 176.22258267 164.15844723 188.52601641 176.47722226 C189.83890962 177.79170815 191.15181324 179.10618363 192.4647274 180.42064857 C193.11063988 181.06733243 193.75655235 181.71401628 194.42203793 182.38029661 C198.9662443 186.92881343 203.51621296 191.47151621 208.06846046 196.01198387 C213.61877298 201.54824866 219.16003787 207.09338416 224.69002602 212.64995315 C227.50974996 215.4827845 230.33326257 218.31153259 233.16783333 221.12951469 C235.76610941 223.7128147 238.35241927 226.3075152 240.92994531 228.91151444 C242.29934272 230.28908052 243.68094043 231.65448604 245.06303245 233.01931542 C251.01406165 239.06469677 255.74790507 245.22724718 257.4765625 253.6875 C257.45722656 255.04875 257.45722656 255.04875 257.4375 256.4375 C257.45683594 257.79875 257.45683594 257.79875 257.4765625 259.1875 C255.46436052 269.03545322 249.30942929 275.66232616 242.35700989 282.52790833 C241.38943624 283.5012537 240.42295354 284.47568454 239.45746058 285.45109385 C236.81981601 288.10949048 234.16695208 290.75221366 231.51115978 293.39246356 C228.64244182 296.24982407 225.78820463 299.12158966 222.93203735 301.9914856 C217.34184723 307.60386582 211.73827594 313.20269703 206.12973092 318.79672883 C201.57029848 323.34485239 197.01579037 327.89785337 192.4647274 332.45435143 C191.81608219 333.1037628 191.16743698 333.75317418 190.49913585 334.42226469 C189.18129467 335.74170455 187.8634647 337.0611556 186.5456458 338.3806177 C174.19857668 350.74193194 161.83625095 363.08789669 149.4686239 375.42863777 C138.86548103 386.00944302 128.27551571 396.60328881 117.69506836 407.20678711 C105.39736014 419.53127513 93.09155277 431.84758267 80.77277774 444.15101641 C79.45829185 445.46390962 78.14381637 446.77681324 76.82935143 448.0897274 C76.18266757 448.73563988 75.53598372 449.38155235 74.86970339 450.04703793 C70.32118657 454.5912443 65.77848379 459.14121296 61.23801613 463.69346046 C55.70175134 469.24377298 50.15661584 474.78503787 44.60004685 480.31502602 C41.7672155 483.13474996 38.93846741 485.95826257 36.12048531 488.79283333 C33.5371853 491.39110941 30.9424848 493.97741927 28.33848556 496.55494531 C26.96091948 497.92434272 25.59551396 499.30594043 24.23068458 500.68803245 C18.10905786 506.71411704 11.8972975 511.53391016 3.2734375 513.06640625 C-4.4409553 512.90040033 -10.110309 512.19819672 -15.8984375 506.859375 C-20.60596207 501.76147034 -23.30490052 496.51958587 -23.5625 489.5 C-22.98150757 475.23340819 -11.70023391 466.79470861 -2.17076111 457.30050659 C-1.30960884 456.4384999 -0.44845657 455.57649321 0.43879122 454.6883651 C2.79958925 452.32621709 5.16257993 449.96630426 7.52657545 447.60735893 C10.08655125 445.05173816 12.64359873 442.49319017 15.20101929 439.93501282 C19.62238654 435.51312351 24.0455678 431.09305565 28.47001839 426.67425156 C34.86687556 420.28555271 41.26093996 413.89406463 47.6543458 407.50191213 C58.02956921 397.12887246 68.40701959 386.75806372 78.78588867 376.38867188 C88.86258729 366.32116496 98.93822563 356.25259885 109.01245117 346.18261719 C109.63436874 345.56096235 110.2562863 344.93930751 110.89704985 344.29881464 C114.01730227 341.17986734 117.13753398 338.06089932 120.2577554 334.941921 C146.1061268 309.10390107 171.95812011 283.26950755 197.8125 257.4375 C196.39924883 254.23111207 194.7115184 252.08967497 192.23546028 249.62274456 C191.48849833 248.87365061 190.74153637 248.12455665 189.97193921 247.35276288 C189.14783043 246.53652615 188.32372166 245.72028942 187.47463989 244.87931824 C186.6018731 244.00695929 185.72910631 243.13460035 184.82989204 242.23580629 C182.40577322 239.81477597 179.97724866 237.39832216 177.54680514 234.98365104 C174.92685998 232.37850199 172.31272127 229.76753848 169.69793701 227.1572113 C165.16547279 222.6339358 160.62952821 218.11417498 156.09137344 213.59660912 C149.52408459 207.05884188 142.96374361 200.51413747 136.40537523 193.967423 C125.757108 183.33817503 115.10548131 172.71230129 104.45068359 162.08959961 C103.81287228 161.45370623 103.17506096 160.81781285 102.51792203 160.16264997 C95.40374116 153.07001037 88.2887483 145.97818616 81.17285156 138.88726807 C78.59357798 136.3170259 76.0143118 133.74677629 73.43505859 131.17651367 C72.7986286 130.54230533 72.16219861 129.908097 71.50648285 129.25467023 C60.89243899 118.67735572 50.28422673 108.09421359 39.68056571 97.50649053 C33.14022092 90.97647736 26.59488407 84.45154721 20.04303454 77.93307696 C15.55273678 73.46492566 11.06783984 68.99140129 6.58714379 64.51362153 C4.00216272 61.930688 1.41477698 59.35028831 -1.17925644 56.77644348 C-3.99287448 53.98461987 -6.79477183 51.18121778 -9.59567261 48.37663269 C-10.41531994 47.56708812 -11.23496727 46.75754356 -12.0794524 45.92346734 C-18.61815631 39.34356064 -23.15922564 33.33597902 -23.5625 23.8125 C-23.47298529 17.06905863 -20.99574167 11.53360244 -16.47265625 6.546875 C-11.4358052 2.00599396 -6.84126656 0.14165838 0 0 Z " fill="" transform="translate(232.1875,-0.4375)"/>
</svg>
