<?xml version="1.0" encoding="UTF-8"?>
<svg version="1.1" xmlns="http://www.w3.org/2000/svg" width="" height="" viewBox="0 0 512 512">
<path d="M0 0 C1.37984035 0.15512374 2.75974111 0.30971092 4.13969594 0.46381301 C7.90411933 0.88576555 11.66764051 1.31532307 15.43104947 1.74621689 C19.50091082 2.21083722 23.5715737 2.66833567 27.64213562 3.12677002 C35.60692222 4.02494175 43.57094253 4.92973956 51.53470638 5.83693031 C58.01241438 6.57470991 64.49039524 7.31004831 70.96857643 8.04366112 C72.35403052 8.20055746 72.35403052 8.20055746 73.76747358 8.36062342 C75.64415934 8.57313812 77.52084577 8.7856469 79.39753286 8.99814983 C96.98225669 10.98960368 114.56612253 12.98855019 132.14969895 14.99010625 C147.2114026 16.70442346 162.27380581 18.41247552 177.33674622 20.1158905 C194.85264714 22.0967059 212.36810919 24.08133316 229.88288862 26.07204264 C231.7540207 26.28470368 233.62515329 26.4973603 235.49628639 26.71001244 C236.41676707 26.81462649 237.33724775 26.91924054 238.28562179 27.02702472 C244.74713173 27.76112633 251.20894158 28.49254955 257.67087364 29.22292519 C265.55859921 30.11453376 273.44583005 31.01038091 281.33247402 31.91150836 C285.35031295 32.37048298 289.36833355 32.82765491 293.38696098 33.27967834 C297.07707761 33.69480598 300.76652155 34.11547634 304.45553557 34.54028734 C306.39823854 34.76263482 308.3415847 34.97934118 310.2849595 35.19573814 C331.22135622 37.62557114 348.47735635 41.18988393 362.37947083 58.45256042 C376.14346905 78.00369426 371.1430237 103.07609143 368.54426575 125.35319519 C368.27228984 127.76032593 368.00132878 130.16757152 367.73129272 132.57492065 C367.07754269 138.37842536 366.41300234 144.18061542 365.74303647 149.98226894 C364.96095403 156.75851613 364.19106721 163.53613343 363.42141334 170.31380152 C362.04710249 182.41205633 360.66117475 194.50895177 359.26887512 206.60514832 C357.9216112 218.31011106 356.58389761 230.01611623 355.25617981 241.72331238 C353.80453743 254.52309587 352.34781634 267.32228158 350.88215905 280.12046856 C350.72567094 281.48696848 350.56918416 282.85346856 350.41269875 284.2199688 C350.33572579 284.89205663 350.25875284 285.56414447 350.17944738 286.25659861 C349.64013706 290.96825078 349.10426325 295.68028639 348.56964684 300.39247322 C347.84905113 306.73907738 347.12036645 313.08470309 346.38553429 319.42967415 C346.11793416 321.75125195 345.85303337 324.07314282 345.59109879 326.39536667 C343.08573089 348.57779774 340.54044433 366.82583603 322.31697083 381.89006042 C316.24708291 386.18548514 308.52197776 389.57756042 301.06697083 389.57756042 C301.10177551 390.60494324 301.1365802 391.63232605 301.17243958 392.69084167 C301.51309013 406.90353988 299.21972437 419.02884635 289.80525208 430.28068542 C278.70283729 441.9234061 265.18314681 448.17450242 249.04721284 448.67035711 C245.32624593 448.70954609 241.60597005 448.71584932 237.88487244 448.71127319 C236.44141419 448.71314322 234.99795645 448.71544469 233.55449951 448.71813852 C229.60132379 448.72423908 225.64816927 448.72412498 221.69498992 448.72294414 C217.42632075 448.7227397 213.15765832 448.72826302 208.88899231 448.73300171 C200.53136125 448.74129893 192.17373724 448.74405612 183.8161024 448.74461409 C177.02194582 448.74508963 170.22779156 448.74714627 163.43363571 448.75031471 C144.16342141 448.75911825 124.89321267 448.76373448 105.62299635 448.76298424 C104.58469835 448.76294428 103.54640036 448.76290433 102.47663879 448.76286316 C101.43707074 448.76282228 100.39750269 448.7627814 99.32643257 448.76273928 C82.47545275 448.76233275 65.62449527 448.77190483 48.77352192 448.78600153 C31.46368882 448.80036766 14.15386661 448.8072716 -3.1559726 448.80640775 C-12.87121724 448.80607589 -22.58643844 448.80881809 -32.3016777 448.8195858 C-40.57231151 448.82869384 -48.84291126 448.83086349 -57.11354791 448.82407638 C-61.3314712 448.8208129 -65.54932918 448.82074831 -69.76724625 448.82942963 C-73.63240693 448.83730297 -77.49745059 448.8358547 -81.36260845 448.82714549 C-82.75688578 448.82561236 -84.15117188 448.8274196 -85.54543887 448.83300557 C-101.77567063 448.89369627 -115.91665402 445.9803198 -128.10099792 434.54240417 C-137.85387735 424.16738985 -141.24176075 413.27955561 -141.20045471 399.33850098 C-141.20498582 398.21392634 -141.20951694 397.08935171 -141.21418536 395.93069905 C-141.22683533 392.16621577 -141.22520856 388.40187705 -141.22355652 384.63737488 C-141.22954144 381.93662988 -141.23629047 379.23589615 -141.24391174 376.53515625 C-141.26050093 369.96208814 -141.26602037 363.38905591 -141.2671365 356.81596861 C-141.26808809 351.47012327 -141.27220393 346.12428972 -141.27853775 340.7784481 C-141.29614552 325.60742927 -141.3053775 310.43643869 -141.3038768 295.26540957 C-141.30379689 294.44810929 -141.30371698 293.63080902 -141.30363464 292.78874207 C-141.30355288 291.97043862 -141.30347112 291.15213518 -141.30338688 290.30903467 C-141.30257441 277.05469183 -141.32170342 263.80046275 -141.34991138 250.54615281 C-141.37867564 236.92243566 -141.39244968 223.29877392 -141.39072382 209.67502564 C-141.39006108 202.03211454 -141.39550236 194.38932265 -141.41707993 186.74643898 C-141.43533857 180.23761384 -141.43960093 173.72896193 -141.42606108 167.2201222 C-141.41955434 163.90302885 -141.42152572 160.58653704 -141.43676758 157.26943207 C-141.45226068 153.66317397 -141.44288373 150.05777833 -141.42750549 146.45153809 C-141.43779262 145.41736529 -141.44807975 144.3831925 -141.4586786 143.31768113 C-141.32174679 128.71286532 -135.17714386 116.36646962 -125.31584167 105.87052917 C-113.33742605 94.34375873 -99.31122355 92.36302152 -83.37052917 92.51506042 C-82.45722839 92.51957214 -81.54392761 92.52408386 -80.60295105 92.5287323 C-78.37957179 92.54037303 -76.15633796 92.55672191 -73.93302917 92.57756042 C-73.88767029 91.79389099 -73.8423114 91.01022156 -73.795578 90.20280457 C-73.18102894 80.6115725 -72.14697973 71.10579197 -70.94108582 61.57292175 C-70.62070285 59.01644624 -70.31685704 56.45832403 -70.0131073 53.89982605 C-67.81181145 36.02906655 -64.12781709 20.64750605 -49.40763855 8.86955261 C-34.28872555 -2.71028899 -18.13948911 -2.09828385 0 0 Z M-38.42521667 34.28459167 C-42.40609427 40.33841331 -43.54775547 46.12598364 -44.31974792 53.20256042 C-44.42648331 54.10828796 -44.53321869 55.0140155 -44.64318848 55.94718933 C-44.86568701 57.85269535 -45.08306513 59.75880555 -45.295578 61.66545105 C-45.61967274 64.56988529 -45.95952371 67.4721371 -46.3021698 70.37443542 C-46.51728687 72.23370371 -46.73150967 74.09307572 -46.94474792 75.95256042 C-47.04470566 76.81317078 -47.14466339 77.67378113 -47.24765015 78.56047058 C-47.33807083 79.3782196 -47.42849152 80.19596863 -47.52165222 81.03849792 C-47.60142807 81.7479657 -47.68120392 82.45743347 -47.76339722 83.18840027 C-47.98578166 86.32054623 -47.94296165 89.43847982 -47.93302917 92.57756042 C-47.30914283 92.57891695 -46.68525649 92.58027348 -46.04246449 92.58167112 C-9.04083693 92.66237466 27.96075219 92.75335113 64.96232115 92.85761204 C69.40817422 92.87013045 73.85402752 92.88256329 78.29988098 92.89494324 C79.18494584 92.89740923 80.07001071 92.89987523 80.98189571 92.90241595 C95.30036807 92.94210659 109.61884827 92.97487026 123.93734345 93.00506024 C138.63662626 93.03620781 153.33587581 93.07483129 168.0351212 93.12035048 C177.10051821 93.14818902 186.16589098 93.17024209 195.23131916 93.18482293 C201.4533677 93.19538989 207.67536923 93.2132385 213.89738229 93.23672746 C217.48360399 93.25005359 221.06975999 93.26025135 224.65600777 93.26177406 C228.55361828 93.2635134 232.4510791 93.28062879 236.34864807 93.29908752 C237.46930562 93.29715279 238.58996316 93.29521806 239.74458003 93.29322469 C257.20506474 93.41637624 271.59634478 97.29677825 284.81697083 109.01506042 C295.00022115 120.61265108 300.38097431 133.49888034 300.34544373 149.00553894 C300.35123613 149.92300652 300.35702853 150.84047409 300.36299646 151.78574371 C300.37992535 154.84268758 300.38286683 157.89947982 300.38581848 160.95646667 C300.39512156 163.15466682 300.4052908 165.35286344 300.41625977 167.55105591 C300.44353094 173.50699633 300.4587007 179.46291314 300.47168779 185.41889954 C300.48733089 191.64759526 300.51411738 197.87624285 300.53971863 204.10490417 C300.5811739 214.55557281 300.61577422 225.00624558 300.64509583 235.45695496 C300.67530802 246.21836745 300.70967051 256.97975358 300.74958801 267.74113464 C300.75328034 268.73713198 300.75328034 268.73713198 300.75704725 269.75325048 C300.76942237 273.08453355 300.78188324 276.41581629 300.79437566 279.74709892 C300.8976644 307.3572169 300.98693479 334.96736595 301.06697083 362.57756042 C305.38856959 361.23927546 307.8929575 360.27253512 310.81697083 356.76506042 C311.38931458 356.09861511 311.96165833 355.4321698 312.55134583 354.74552917 C316.25613168 349.44615765 316.70076728 343.85717136 317.40843201 337.59298706 C317.58862981 336.07218032 317.58862981 336.07218032 317.77246797 334.52065021 C318.17370468 331.11938825 318.56490262 327.71704757 318.95613098 324.31462097 C319.24156134 321.87675346 319.52758147 319.43895493 319.81414795 317.0012207 C320.51055797 311.06218033 321.20033991 305.12240484 321.88679434 299.18220832 C322.44553471 294.34809591 323.00685459 289.51428963 323.57000351 284.68068886 C323.69032525 283.64787392 323.69032525 283.64787392 323.81307774 282.59419403 C323.97606427 281.195203 324.13905421 279.79621237 324.30204754 278.39722214 C325.83071541 265.27341484 327.350454 252.14858498 328.86737077 239.02341501 C330.25206263 227.04457792 331.64726458 215.06699332 333.04759867 203.08997562 C334.4875457 190.77341664 335.92065835 178.4560803 337.3463558 166.13786346 C338.14598637 159.22989395 338.94817629 152.32224639 339.75741959 145.41539574 C340.51953221 138.90997191 341.27188574 132.40346833 342.01791573 125.89617729 C342.2920897 123.51755186 342.5693346 121.13927792 342.85000038 118.76140976 C346.88766361 96.49808615 346.88766361 96.49808615 342.53181458 75.31974792 C335.13366685 66.52088424 328.24094116 63.62257315 317.07785034 62.37634277 C315.7342253 62.21852442 315.7342253 62.21852442 314.36345631 62.05751783 C311.36564254 61.70696205 308.36685701 61.36556742 305.36799622 61.02409363 C303.21510041 60.77416473 301.06227187 60.52365588 298.90950584 60.27261162 C293.04074355 59.58981401 287.17110112 58.91486983 281.3012836 58.24121261 C275.05947699 57.52345896 268.81851668 56.79842263 262.57748413 56.07397461 C254.73352303 55.16399614 246.88946911 54.25483983 239.04500103 53.34924221 C238.38304502 53.27282225 237.72108901 53.19640229 237.03907372 53.11766658 C236.37649164 53.04117557 235.71390955 52.96468456 235.03124923 52.88587564 C218.37340191 50.96280691 201.71753642 49.02304368 185.06257629 47.07511902 C162.93565822 44.48766308 140.80764844 41.90979198 118.6785183 39.34132195 C106.17050684 37.88936266 93.66289139 36.43412961 81.15608215 34.97184753 C69.90548884 33.65644708 58.65425951 32.3466548 47.40221745 31.0437029 C41.54217363 30.36494859 35.68246394 29.68358215 29.8235302 28.99530602 C24.40322313 28.35864147 18.98209114 27.72953969 13.56023788 27.10618401 C11.59031538 26.87838132 9.62070227 26.64788285 7.6514492 26.41436386 C-17.63470507 22.31742541 -17.63470507 22.31742541 -38.42521667 34.28459167 Z M-110.93302917 128.57756042 C-115.23399977 135.72512717 -116.05910255 142.80551974 -116.05328369 151.05665588 C-116.05413812 151.78865475 -116.05499254 152.52065362 -116.05587286 153.27483428 C-116.05751381 155.71610029 -116.05202906 158.15729688 -116.04655457 160.59855652 C-116.04627237 162.35311379 -116.04643106 164.10767119 -116.04699707 165.86222839 C-116.04728378 170.61793014 -116.04140748 175.37360662 -116.03442311 180.1293025 C-116.02816852 185.10209493 -116.02758411 190.07488796 -116.02639771 195.04768372 C-116.02329061 204.46105359 -116.01508558 213.87441183 -116.00504822 223.28777659 C-115.9938678 234.00596899 -115.98837177 244.72416195 -115.98335278 255.44235873 C-115.97290246 277.48743245 -115.95531502 299.5324957 -115.93302917 321.57756042 C-114.48439458 320.61468742 -113.03613818 319.65124541 -111.58804321 318.68756104 C-110.78150519 318.1511049 -109.97496717 317.61464876 -109.14398861 317.06193638 C-106.89848926 315.55437129 -104.69987222 314.00154122 -102.53068542 312.38615417 C-101.79527527 311.84088074 -101.05986511 311.2956073 -100.3021698 310.73381042 C-99.54097839 310.16662292 -98.77978699 309.59943542 -97.99552917 309.01506042 C-91.67073326 304.32744615 -85.32407382 299.67445427 -78.93302917 295.07756042 C-72.73630192 290.61757342 -66.5741847 286.11373376 -60.43302917 281.57756042 C-58.84585988 280.40949616 -57.25862045 279.24152718 -55.67131042 278.07365417 C-52.51142163 275.74747137 -49.36540111 273.40395202 -46.22599792 271.05021667 C-28.36676607 257.76063138 -12.31349383 249.7392315 10.48103333 253.07756042 C25.25886928 256.43789522 35.36694681 265.00472274 46.25837708 275.05021667 C48.90055691 277.42781104 51.60489064 279.66958142 54.37947083 281.89006042 C59.43613797 285.96569086 64.15045386 290.33119002 68.87483215 294.779953 C73.16753621 298.80036524 77.62650136 302.52803848 82.22322083 306.19865417 C85.63361881 309.05158326 88.84022034 312.08327654 92.06697083 315.14006042 C101.49625239 323.98864559 110.55819443 332.24869632 124.06697083 332.95256042 C133.80623222 332.35952235 141.79791373 327.79287487 150.00447083 322.89006042 C151.12982239 322.22941589 152.25517395 321.56877136 153.41462708 320.8881073 C156.38220108 319.14534979 159.34189247 317.38967934 162.29908752 315.62937927 C165.1475652 313.93465061 168.00015844 312.24687442 170.85212708 310.55802917 C174.21960051 308.56266163 177.58631087 306.56606105 180.95075989 304.56559753 C189.76172228 299.33099131 198.62399723 294.19025172 207.50837708 289.08146667 C215.68987472 284.37661028 223.84621991 279.63022107 231.9934845 274.86637878 C237.34193539 271.74198357 242.69833908 268.63199515 248.06697083 265.54240417 C248.65284973 265.20512299 249.23872864 264.8678418 249.84236145 264.52033997 C252.67380562 262.89076036 255.50634492 261.26312814 258.34040833 259.6381073 C259.36392395 259.04965027 260.38743958 258.46119324 261.44197083 257.85490417 C262.3365802 257.34177673 263.23118958 256.82864929 264.15290833 256.29997253 C265.11454895 255.73157654 266.07618958 255.16318054 267.06697083 254.57756042 C267.72710804 254.28087841 268.38724525 253.9841964 269.06738663 253.67852402 C273.42863009 251.49368147 273.42863009 251.49368147 275.80493927 247.42623234 C276.08315392 244.67411614 276.10233365 242.02024245 276.03865051 239.25456238 C276.05004059 237.69748314 276.05004059 237.69748314 276.06166077 236.10894775 C276.07648095 232.67668274 276.03369245 229.24780589 275.98884583 225.81584167 C275.98407528 223.4255615 275.98226669 221.03527373 275.98329163 218.64498901 C275.97703331 213.63188291 275.94390037 208.61991985 275.89021301 203.60710144 C275.82243505 197.19914189 275.80695062 190.79244365 275.80999374 184.38416767 C275.80890251 179.44508951 275.78690415 174.50628406 275.75798798 169.56729698 C275.74530509 167.20595042 275.73738667 164.8445731 275.73441315 162.48319435 C275.72567925 159.17077954 275.69053226 155.85966365 275.64802551 152.54753113 C275.65074463 151.09842346 275.65074463 151.09842346 275.65351868 149.62004089 C275.49593614 141.16588669 273.29477796 132.63704845 267.06697083 126.57756042 C257.13199096 118.58551009 247.37265961 118.28102505 235.02363586 118.31686401 C233.60747403 118.31383968 232.19131383 118.30994878 230.7751565 118.30527145 C226.90209794 118.29501935 223.02913225 118.29716611 219.15606618 118.30145204 C214.97195397 118.30392429 210.78786383 118.294899 206.60375977 118.28741455 C198.41437009 118.27468013 190.22501323 118.27287223 182.03561532 118.27521481 C175.37877117 118.27699927 168.72193696 118.27524561 162.06509399 118.27099037 C161.116963 118.27039518 160.16883201 118.26979999 159.19196978 118.26918677 C157.26574417 118.267975 155.33951856 118.26676086 153.41329294 118.26554439 C135.35923614 118.25467404 117.30519803 118.25682916 99.25114018 118.26292924 C82.73902706 118.26809994 66.22697292 118.25683801 49.71487147 118.23783102 C32.75192135 118.21845499 15.78899914 118.21019608 -1.17396212 118.21395427 C-10.69410932 118.21586641 -20.21420631 118.21337729 -29.73434448 118.19923973 C-37.83738098 118.18732809 -45.94033634 118.18591875 -54.04337394 118.1980299 C-58.17614801 118.20391962 -62.30877366 118.20501537 -66.44153786 118.1930275 C-70.22771004 118.18217268 -74.0136098 118.18526713 -77.79976922 118.19928918 C-79.81181091 118.20318772 -81.82386469 118.19238587 -83.8358779 118.18099231 C-94.86804802 118.24685176 -103.53277437 119.88812096 -110.93302917 128.57756042 Z M-30.52726746 290.74845886 C-33.65967387 293.13002866 -36.83125856 295.45578545 -40.0052948 297.78141785 C-42.39028708 299.52954235 -44.76983189 301.28483772 -47.14787292 303.04240417 C-51.90631133 306.55858251 -56.66927605 310.06858742 -61.43302917 313.57756042 C-63.01638296 314.74419933 -64.59971629 315.910866 -66.18302917 317.07756042 C-69.34969584 319.41089376 -72.51636251 321.74422709 -75.68302917 324.07756042 C-76.46774597 324.65578552 -77.25246277 325.23401062 -78.06095886 325.82975769 C-79.63447742 326.98916685 -81.20804464 328.14850997 -82.78166199 329.30778503 C-86.89057557 332.33493466 -90.99848133 335.36343894 -95.10490417 338.39396667 C-96.38010925 339.33466003 -96.38010925 339.33466003 -97.68107605 340.2943573 C-99.29727764 341.48663716 -100.91318411 342.67931723 -102.5287323 343.8724823 C-103.26543152 344.41582214 -104.00213074 344.95916199 -104.76115417 345.51896667 C-105.39956238 345.99019958 -106.03797058 346.4614325 -106.69572449 346.94694519 C-108.93302917 348.57756042 -108.93302917 348.57756042 -110.72303772 349.49787903 C-113.7419875 351.21077976 -115.61035365 352.41220691 -116.56303406 355.85284424 C-116.79517586 358.74812577 -116.79831684 361.5645035 -116.72209167 364.46818542 C-116.71930206 365.52737183 -116.71651245 366.58655823 -116.71363831 367.67784119 C-116.7008878 369.91719265 -116.67123833 372.15650276 -116.62590027 374.39543152 C-116.55853491 377.80198648 -116.54392098 381.20555748 -116.53849792 384.61271667 C-116.51948219 386.79373569 -116.49744392 388.97473086 -116.47209167 391.15568542 C-116.46561615 392.16536377 -116.45914063 393.17504211 -116.45246887 394.21531677 C-116.25487457 402.73313471 -114.92598996 410.66348637 -108.77007341 416.96418852 C-101.47143517 423.3741691 -92.8173634 423.14767896 -83.58598328 423.07876587 C-82.13681954 423.08266325 -80.68765964 423.0883072 -79.2385087 423.09553677 C-75.27412865 423.11024676 -71.31014761 423.10013694 -67.34578061 423.08580005 C-63.06349851 423.07466867 -58.78127139 423.08664002 -54.49899292 423.09564209 C-46.11705101 423.10956182 -37.73525995 423.10202773 -29.35332525 423.08696651 C-19.58864964 423.07008985 -9.82401144 423.07331877 -0.05932575 423.07706059 C17.3654533 423.08293685 34.79016004 423.06877677 52.21492004 423.04411316 C69.1163148 423.02019309 86.01761296 423.01310921 102.91902161 423.02360535 C121.33124284 423.03501927 139.74341942 423.03693874 158.15564013 423.02250725 C160.11963939 423.02098144 162.08363866 423.01946108 164.04763794 423.01794624 C165.01391934 423.01718843 165.98020075 423.01643061 166.97576341 423.01564984 C173.77942195 423.01091068 180.58306052 423.01275584 187.38671875 423.01701164 C195.68007452 423.02194256 203.97333903 423.01593497 212.26667392 422.99611735 C216.49665184 422.9862579 220.72649092 422.98112566 224.95647621 422.98900986 C228.83147913 422.99608454 232.70620234 422.98922047 236.58116847 422.97140623 C237.98010288 422.96737329 239.37906293 422.96834218 240.77798766 422.97492509 C251.02238827 423.01899215 259.63900078 422.54972688 267.44197083 415.32756042 C268.2540802 414.60052917 269.06618958 413.87349792 269.90290833 413.12443542 C275.59940121 406.42025968 275.48853923 399.93944731 275.407547 391.49186707 C275.40820412 389.69080002 275.40820412 389.69080002 275.40887451 387.85334778 C275.40714899 384.5789175 275.39215736 381.30487743 275.37115264 378.03052449 C275.35233288 374.60192022 275.35063124 371.17330738 275.34707642 367.74465942 C275.33777144 361.26015568 275.31317881 354.77580462 275.28302795 348.29136795 C275.24943555 340.90563618 275.2329858 333.51989692 275.21794164 326.13410771 C275.18662772 310.94850705 275.13389758 295.76304904 275.06697083 280.57756042 C270.23707879 282.10899992 266.12895537 284.13758454 261.81697083 286.76506042 C260.30340496 287.67127398 258.78902764 288.57613309 257.27400208 289.47990417 C256.44594055 289.97474304 255.61787903 290.46958191 254.76472473 290.97941589 C249.70560889 293.97642696 244.60208876 296.89669412 239.50447083 299.82756042 C231.01012744 304.71852301 222.5293118 309.63143538 214.06697083 314.57756042 C204.7140661 320.04260311 195.34380937 325.4767329 185.95368958 330.87760925 C180.88383168 333.79407087 175.81853991 336.71727654 170.77348328 339.67642212 C169.01040302 340.71012683 167.24571947 341.74104004 165.48054504 342.77116394 C163.27324636 344.06046507 161.06892547 345.35488375 158.86824036 346.65544128 C142.9208518 355.94596265 127.32749448 360.01024545 108.87165833 355.85881042 C96.63428385 352.15245158 87.212694 345.3004505 78.06697083 336.57756042 C76.82449518 335.46493367 75.57478458 334.36031774 74.31697083 333.26506042 C73.67759583 332.70689636 73.03822083 332.1487323 72.37947083 331.57365417 C70.55193022 329.99616558 68.7182279 328.42705644 66.87947083 326.86271667 C60.6066361 321.5209717 54.42775016 316.11591497 48.39167786 310.50773621 C44.40037399 306.82416996 40.22223331 303.42809532 35.98493958 300.03459167 C33.15830291 297.65446522 30.48962527 295.17198434 27.81892395 292.6212616 C19.38505064 284.57435691 10.89952386 276.90846365 -1.37052917 276.49552917 C-13.35067478 276.87903993 -21.39155313 283.77182516 -30.52726746 290.74845886 Z " fill="" transform="translate(140.9330291748047,32.42243957519531)"/>
<path d="M0 0 C12.71815962 8.61906932 20.19923918 20.2641047 23.83984375 35.1640625 C26.26578733 50.45905919 22.59362808 65.51029324 13.5859375 78.0703125 C4.85583169 88.55441218 -8.02842152 96.49351825 -21.75 97.75 C-38.4593963 98.83374622 -51.80606586 94.98087641 -64.5625 84 C-73.77782647 75.24412713 -80.45630699 63.15159322 -80.98828125 50.30859375 C-81.33654508 34.24139495 -78.36694081 20.64718983 -67.3359375 8.24609375 C-48.79662193 -9.24296503 -22.02477438 -13.11284252 0 0 Z M-47.75 25.75 C-53.06547431 31.58793546 -55.3973674 37.88970558 -55.75 45.75 C-55.20918471 53.91499183 -51.3750146 60.55877642 -45.4375 66.0625 C-39.4490737 70.78884936 -33.30635098 72.46624975 -25.69140625 72.22265625 C-18.42839634 71.05555904 -11.76538237 67.6255041 -7.1875 61.8125 C-6.33657388 60.48214353 -5.52037536 59.12856643 -4.75 57.75 C-4.13125 56.656875 -3.5125 55.56375 -2.875 54.4375 C-0.50005885 46.65297068 -1.06876302 39.44249753 -4.4296875 32.0390625 C-8.45043774 25.06817599 -14.16575408 21.16854636 -21.75 18.75 C-31.50610421 16.20330101 -40.28368777 19.20995959 -47.75 25.75 Z " fill="" transform="translate(287.75,197.25)"/>
</svg>
