<?xml version="1.0" encoding="UTF-8"?>
<svg version="1.1" xmlns="http://www.w3.org/2000/svg" width="" height="" viewBox="0 0 512 512">
<path d="M0 0 C3.98011935 2.49720391 7.26517597 5.63616682 10.64453125 8.8828125 C13.26874658 11.37415616 15.9682481 13.64066163 18.796875 15.89453125 C23.5932821 19.76171988 28.0922896 23.86933841 32.58544922 28.07763672 C35.93269285 31.19492461 39.35183406 34.15519607 42.921875 37.01953125 C47.68295978 40.83947136 52.13460525 44.90891944 56.5859375 49.078125 C59.93304369 52.19521679 63.35201641 55.15534238 66.921875 58.01953125 C71.68295978 61.83947136 76.13460525 65.90891944 80.5859375 70.078125 C83.93304369 73.19521679 87.35201641 76.15534238 90.921875 79.01953125 C95.68295978 82.83947136 100.13460525 86.90891944 104.5859375 91.078125 C107.93304369 94.19521679 111.35201641 97.15534238 114.921875 100.01953125 C119.68295978 103.83947136 124.13460525 107.90891944 128.5859375 112.078125 C131.93304369 115.19521679 135.35201641 118.15534238 138.921875 121.01953125 C143.68295978 124.83947136 148.13460525 128.90891944 152.5859375 133.078125 C155.93304369 136.19521679 159.35201641 139.15534238 162.921875 142.01953125 C167.68295978 145.83947136 172.13460525 149.90891944 176.5859375 154.078125 C179.93304369 157.19521679 183.35201641 160.15534238 186.921875 163.01953125 C191.68295978 166.83947136 196.13460525 170.90891944 200.5859375 175.078125 C203.93304369 178.19521679 207.35201641 181.15534238 210.921875 184.01953125 C215.73810778 187.88657947 220.27640747 191.98533234 224.77709961 196.20996094 C227.76590221 199.01289161 230.80501808 201.68113287 233.984375 204.26953125 C238.80181401 208.53698779 241.02500549 212.35591428 241.83203125 218.7890625 C242.31226315 230.15455083 239.04949258 236.70714822 231.796875 245.20703125 C225.17052842 252.20040601 217.80549483 258.05526799 207.984375 258.76953125 C202.53669149 258.38723767 199.76396696 255.8495124 195.765625 252.40234375 C195.13849609 251.8623877 194.51136719 251.32243164 193.86523438 250.76611328 C193.15077148 250.14905518 193.15077148 250.14905518 192.421875 249.51953125 C192.41856485 250.64505622 192.41525471 251.77058119 192.41184425 252.93021297 C192.33083407 280.32236525 192.23851356 307.71446164 192.13434792 335.10653591 C192.0842357 348.35315739 192.03779255 361.59977272 192 374.84643555 C191.967049 386.39281883 191.92720049 397.93915424 191.87908494 409.48548466 C191.85385097 415.59860688 191.83206044 421.71169745 191.81853104 427.82485771 C191.80568266 433.58104287 191.78359811 439.33711935 191.75449181 445.09324455 C191.74543777 447.20351485 191.73973088 449.31380263 191.73766136 451.42409134 C191.73432348 454.31124679 191.71880473 457.19809698 191.7003479 460.08518982 C191.70228263 460.91498287 191.70421737 461.74477592 191.70621073 462.59971422 C191.61519235 472.161396 189.89102491 480.21519568 183.421875 487.51953125 C178.67252266 491.29028358 174.15101489 493.63322379 168.0148468 493.66670227 C167.11355545 493.67385757 166.2122641 493.68101288 165.28366089 493.68838501 C164.29713531 493.69107391 163.31060974 493.69376282 162.29418945 493.6965332 C161.25321609 493.7031044 160.21224274 493.7096756 159.13972473 493.71644592 C155.68820119 493.73618669 152.2367212 493.74784388 148.78515625 493.7578125 C147.01698579 493.76392579 147.01698579 493.76392579 145.21309471 493.77016258 C138.97287547 493.79102756 132.73267823 493.80532693 126.49243164 493.81469727 C120.05074634 493.82575691 113.60940692 493.86015093 107.16784382 493.89986897 C102.21180077 493.92603134 97.25584014 493.93438884 92.29973412 493.93797874 C89.92552545 493.94284637 87.55132051 493.95446528 85.17717934 493.97301674 C81.85001974 493.99739702 78.52375502 493.9964446 75.1965332 493.98950195 C73.73192657 494.00871704 73.73192657 494.00871704 72.23773193 494.02832031 C64.64459613 493.97072156 59.53959606 492.07039393 53.671875 487.26953125 C47.75410512 480.03670139 46.29430379 473.02468933 46.30162048 463.76174927 C46.30033885 462.78013221 46.30033885 462.78013221 46.29903132 461.7786845 C46.29739265 459.5999865 46.30287129 457.42136661 46.30834961 455.24267578 C46.30863186 453.67530825 46.30847301 452.10794058 46.3079071 450.54057312 C46.30762059 446.29518442 46.31349375 442.04982406 46.32048106 437.80444193 C46.32673889 433.36416677 46.32732032 428.92389095 46.32850647 424.48361206 C46.33161262 416.07959658 46.33981636 407.67559414 46.34985596 399.27158439 C46.36313107 387.91221478 46.36852279 376.5528416 46.37435818 365.19346619 C46.38375673 347.30214478 46.40368044 329.41085088 46.421875 311.51953125 C9.131875 311.51953125 -28.158125 311.51953125 -66.578125 311.51953125 C-66.49111328 328.99535156 -66.49111328 328.99535156 -66.40234375 346.82421875 C-66.37679476 354.2070368 -66.35251783 361.58982277 -66.33398438 368.97265625 C-66.30433362 380.68989014 -66.26950511 392.40694406 -66.20092773 404.12402344 C-66.15100361 412.65810858 -66.11881285 421.19204749 -66.10768253 429.72627461 C-66.10117899 434.24279903 -66.08595486 438.75890522 -66.04947472 443.27529526 C-66.0153726 447.53202465 -66.00510047 451.78816612 -66.01258659 456.04501915 C-66.01121836 457.60180679 -66.00137052 459.15861541 -65.98209763 460.71528435 C-65.86723543 470.47684829 -66.40906544 478.92527434 -73.33372021 486.4195385 C-79.97336562 492.72334021 -86.74228617 493.96781576 -95.57739258 493.93945312 C-96.55721603 493.94792267 -97.53703949 493.95639221 -98.54655457 493.96511841 C-101.7720554 493.98843604 -104.99707764 493.98951168 -108.22265625 493.98828125 C-110.47556243 493.99538668 -112.7284668 494.00308623 -114.98136902 494.01135254 C-119.69962597 494.02478589 -124.41771563 494.02637152 -129.13598633 494.02050781 C-135.16499534 494.01461723 -141.19319757 494.04518301 -147.22205067 494.08562469 C-151.87452983 494.11155003 -156.52681609 494.1143746 -161.17935753 494.11073303 C-163.40119133 494.11242018 -165.62303443 494.12202337 -167.84479713 494.13987732 C-170.96062881 494.16215889 -174.07484488 494.15231726 -177.19067383 494.13476562 C-178.09749908 494.14802887 -179.00432434 494.16129211 -179.93862915 494.17495728 C-187.38343437 494.07813649 -193.92799574 491.85273721 -199.50043964 486.76412201 C-205.61534411 480.22786377 -207.02510466 473.65025228 -206.97685242 464.98402405 C-206.98349924 464.04290958 -206.99014607 463.10179512 -206.99699432 462.13216203 C-207.0155975 458.9891201 -207.01302079 455.84645974 -207.01049805 452.70336914 C-207.01951682 450.44620222 -207.02984432 448.18904021 -207.04138184 445.93188477 C-207.06896422 439.81058075 -207.0782381 433.68936963 -207.08423591 427.56801152 C-207.09361628 421.16846741 -207.11981944 414.76899278 -207.14424133 408.36949158 C-207.18295701 397.63036652 -207.21130612 386.89127173 -207.23168945 376.15209961 C-207.25270881 365.09282757 -207.27999223 354.03360011 -207.31567383 342.97436523 C-207.31787265 342.29218231 -207.32007148 341.60999939 -207.32233693 340.90714426 C-207.33340683 337.48468604 -207.34459959 334.06222824 -207.35585344 330.63977063 C-207.44899293 302.26639708 -207.52039061 273.8929974 -207.578125 245.51953125 C-208.05044556 245.99529602 -208.52276611 246.47106079 -209.00939941 246.96124268 C-209.63342651 247.58794861 -210.25745361 248.21465454 -210.90039062 248.86035156 C-211.51708618 249.48049133 -212.13378174 250.1006311 -212.76916504 250.73956299 C-220.54233694 258.38815642 -227.70295681 264.48429858 -238.890625 265.01953125 C-249.30632674 264.69813245 -255.80690164 260.0720251 -262.87084961 252.734375 C-269.69055042 245.30145858 -271.28022947 240.04262728 -270.96484375 229.86328125 C-269.84594684 220.18877864 -263.23983915 213.81218536 -256.140625 207.76171875 C-252.75503708 204.79932932 -249.48291504 201.72310218 -246.203125 198.64453125 C-241.21488275 193.96851329 -236.19112851 189.34241518 -231.09375 184.78515625 C-227.54543702 181.58947065 -224.04234774 178.3457786 -220.53686523 175.10327148 C-215.39321923 170.34560625 -210.2297056 165.60993327 -205.06201172 160.87841797 C-202.56648093 158.59310629 -200.07237973 156.30623545 -197.578125 154.01953125 C-196.57813175 153.10285721 -195.57813176 152.18619055 -194.578125 151.26953125 C-194.083125 150.81578125 -193.588125 150.36203125 -193.078125 149.89453125 C-147.578125 108.18619792 -102.078125 66.47786458 -56.578125 24.76953125 C-55.83526245 24.088302 -55.83526245 24.088302 -55.07739258 23.39331055 C-54.08056366 22.47991593 -53.08300836 21.56731338 -52.0847168 20.65551758 C-49.52956144 18.31986438 -46.98978489 15.97038039 -44.47265625 13.59375 C-31.74365759 1.63134089 -18.03453343 -8.3394983 0 0 Z " fill="" transform="translate(270.578125,10.48046875)"/>
</svg>
