<?xml version="1.0" encoding="UTF-8"?>
<svg version="1.1" xmlns="http://www.w3.org/2000/svg" width="" height="" viewBox="0 0 512 512">
<path d="M0 0 C1.24089238 -0.00322445 2.48178477 -0.00644889 3.76027995 -0.00977105 C5.1241029 -0.00830015 6.48792573 -0.00673245 7.85174847 -0.00507832 C9.31084285 -0.00694775 10.76993674 -0.00924898 12.22902983 -0.01194364 C16.23007112 -0.01805168 20.23109148 -0.01792922 24.23213637 -0.01674926 C28.55058496 -0.01654501 32.86902687 -0.02206639 37.18747234 -0.02680683 C45.64483648 -0.03510839 54.10219365 -0.03786145 62.55956153 -0.03841921 C69.43478703 -0.03889459 76.31001024 -0.04095042 83.18523502 -0.04411983 C102.68270757 -0.05292492 122.18017462 -0.05753942 141.67764918 -0.05678936 C142.72846056 -0.0567494 143.77927193 -0.05670945 144.86192608 -0.05666828 C146.4400701 -0.05660696 146.4400701 -0.05660696 148.05009582 -0.0565444 C165.10160142 -0.05613793 182.15308494 -0.0657081 199.20458416 -0.07980665 C216.71778781 -0.09417257 234.2309807 -0.10107672 251.74419039 -0.10021287 C261.57458598 -0.09988099 271.40495842 -0.10262443 281.2353487 -0.11339092 C289.60482069 -0.12249873 297.97425903 -0.12466884 306.34373382 -0.1178815 C310.61228155 -0.11461778 314.88076472 -0.11455431 319.1493063 -0.12323475 C323.06076699 -0.1311071 326.97211202 -0.12966082 330.88356992 -0.12095062 C332.29470071 -0.11941726 333.70584017 -0.12122559 335.11696074 -0.12681069 C348.10829027 -0.17480283 360.844105 0.5924257 370.63804913 10.12863445 C378.22568352 20.02472619 379.59655012 28.95931171 378.63804913 41.12863445 C376.52608566 50.06970134 369.80652867 56.91620266 362.50914288 62.12082195 C357.82696262 64.64274785 353.46563684 65.37919795 348.19612026 65.38590336 C346.91193478 65.39235225 345.6277493 65.39880114 344.30464911 65.40544546 C342.88679035 65.40250342 341.46893198 65.39936801 340.05107403 65.39605999 C338.53921858 65.39979753 337.02736507 65.40439946 335.51551461 65.40979064 C331.36397707 65.42202339 327.21252009 65.42175984 323.06096864 65.41940188 C318.58230075 65.41899379 314.10365871 65.43003223 309.62500286 65.43951702 C300.85133134 65.45612971 292.0776867 65.4616267 283.30400077 65.46274178 C276.17178808 65.46369216 269.03958426 65.46780198 261.90737438 65.47414303 C241.68460248 65.49175649 221.4618518 65.50098178 201.23907217 65.49948208 C200.14886445 65.49940217 199.05865673 65.49932226 197.93541241 65.49923992 C196.8438729 65.49915816 195.75233339 65.4990764 194.62771693 65.49899216 C176.93916779 65.49817932 159.25070381 65.5173162 141.5621793 65.54551665 C123.39811566 65.57424664 105.23409355 65.58805687 87.07000661 65.5863291 C76.87292176 65.58566522 66.67592619 65.59115666 56.47886181 65.6126852 C47.79642502 65.63089853 39.11411796 65.6352431 30.43167034 65.62166636 C26.00306622 65.61513737 21.57471099 65.61501695 17.14613056 65.63237286 C13.08833375 65.64811184 9.030983 65.6452317 4.97319701 65.62780459 C3.50887235 65.62473649 2.04451433 65.62835997 0.58022901 65.63952474 C-11.00210115 65.7219554 -20.00799813 64.16799492 -28.60804462 56.0544157 C-36.02038148 47.91570286 -37.83786723 39.68517469 -37.67835712 28.8278532 C-37.25395237 23.86598526 -35.96195386 20.32798137 -33.36195087 16.12863445 C-32.83601337 15.19470867 -32.83601337 15.19470867 -32.29945087 14.2419157 C-28.09954847 7.51915525 -21.02224334 2.96044352 -13.36195087 1.12863445 C-8.86625066 0.39590051 -4.55286263 0.00300495 0 0 Z " fill="" transform="translate(133.3619508743286,222.87136554718018)"/>
<path d="M0 0 C1.31060005 -0.00226556 2.6212001 -0.00453111 3.9715153 -0.00686532 C7.59404592 -0.01296088 11.21655339 -0.01285239 14.83908796 -0.01167095 C18.75192588 -0.01146638 22.66475647 -0.01699103 26.57759094 -0.02172852 C34.23738153 -0.03002297 41.89716443 -0.0327828 49.55695914 -0.03334089 C55.78427743 -0.03381656 62.01159319 -0.03587384 68.23891068 -0.03904152 C85.90433676 -0.04784428 103.56975678 -0.05246141 121.23518507 -0.05171105 C122.66269775 -0.05165111 122.66269775 -0.05165111 124.11904907 -0.05158997 C125.54830941 -0.05152864 125.54830941 -0.05152864 127.00644369 -0.05146609 C142.45095488 -0.05105957 157.8954417 -0.06063146 173.33994584 -0.07472833 C189.20788326 -0.08909716 205.07580879 -0.09599826 220.94375288 -0.09513456 C229.84857375 -0.09480279 238.75336905 -0.09754085 247.65818405 -0.10831261 C255.23895023 -0.11742419 262.81967926 -0.11958739 270.40044855 -0.11280318 C274.26597765 -0.1095415 278.13143548 -0.1094686 281.99695778 -0.11815643 C286.19260569 -0.12748905 290.38808906 -0.12123635 294.58374023 -0.11352539 C296.40535378 -0.12124074 296.40535378 -0.12124074 298.2637676 -0.12911195 C310.30203046 -0.08025551 321.92746302 1.37893757 330.91885376 10.13371277 C338.49753129 20.01812261 339.89996854 28.97273449 338.91885376 41.13371277 C338.04665056 44.5093749 336.7722616 47.19508587 334.91885376 50.13371277 C334.56822876 50.75504089 334.21760376 51.37636902 333.85635376 52.01652527 C329.52212838 58.96934515 322.64304283 62.88817772 314.91885376 65.13371277 C312.02957696 65.38671243 312.02957696 65.38671243 308.95827007 65.39098167 C307.78145316 65.39743057 306.60463624 65.40387946 305.39215821 65.41052377 C304.10841571 65.40742657 302.82467321 65.40432936 301.50202942 65.40113831 C300.11732988 65.40487642 298.73263245 65.40947859 297.34793836 65.41486895 C293.54791691 65.42709439 289.74798353 65.42683903 285.94794691 65.4244802 C281.84762363 65.42407192 277.74732855 65.43511225 273.64701843 65.44459534 C265.61563903 65.4612037 257.58428898 65.46670481 249.55289384 65.46782009 C243.02421921 65.46877063 236.49555427 65.47288118 229.96688271 65.47922134 C211.45450811 65.49683316 192.94215669 65.50606029 174.42977365 65.5045604 C173.43190007 65.50448048 172.43402648 65.50440057 171.40591431 65.50431824 C170.40682155 65.50423648 169.40772879 65.50415471 168.37836049 65.50407048 C152.18613328 65.50325755 135.99399909 65.52239706 119.80179878 65.55059497 C103.17342626 65.57932383 86.54509911 65.59313527 69.91670114 65.59140742 C60.58204839 65.59074353 51.24749316 65.59623546 41.91286278 65.61776352 C33.96527759 65.63597532 26.01783414 65.64032266 18.07023712 65.62674467 C14.01642281 65.62021505 9.96288039 65.62009744 5.90909195 65.63745117 C2.19489521 65.65318743 -1.51881416 65.65031304 -5.23299905 65.63288291 C-7.20642076 65.62836525 -9.17985762 65.64346601 -11.15322047 65.6593622 C-21.52147934 65.57886264 -28.67989264 63.14095467 -36.29208374 56.05949402 C-43.77693737 48.00265376 -45.56970242 39.64794302 -45.38973999 28.82902527 C-44.60088009 19.38267757 -39.33783868 12.63618412 -32.28427124 6.59465027 C-22.74201847 -0.62537284 -11.43666199 -0.01453053 0 0 Z " fill="" transform="translate(141.08114624023438,78.86628723144531)"/>
<path d="M0 0 C0.85914373 -0.00297112 1.71828746 -0.00594224 2.60346586 -0.0090034 C5.46964744 -0.01764438 8.33578703 -0.01919474 11.20198059 -0.02069092 C13.26233509 -0.02532234 15.32268873 -0.03034744 17.38304138 -0.03573608 C22.972097 -0.04883061 28.56114063 -0.05529926 34.15020919 -0.05974674 C37.64543235 -0.06268216 41.14065227 -0.06678784 44.63587379 -0.07125092 C55.58156194 -0.08491793 66.52724263 -0.09458855 77.47293872 -0.09845281 C90.08975881 -0.10293208 102.70647049 -0.12047734 115.32325763 -0.1494534 C125.08826359 -0.17109828 134.8532391 -0.18115858 144.61826879 -0.18249393 C150.44470443 -0.18353991 156.27103805 -0.18940391 162.09744835 -0.20731354 C167.58123588 -0.22384278 173.06484521 -0.22592616 178.54864883 -0.21717453 C180.55447811 -0.21640676 182.56031716 -0.22071232 184.56612206 -0.23063278 C212.41968066 -0.36024796 212.41968066 -0.36024796 223.22859192 9.14044189 C229.84000337 16.1433185 233.22859192 24.49821009 233.22859192 34.14044189 C232.23201176 44.15295813 228.66408527 51.4661581 221.38484192 58.37872314 C214.2695429 64.19212868 207.36846527 65.28957178 198.3868866 65.28761292 C197.0325206 65.29312795 197.0325206 65.29312795 195.65079367 65.29875439 C192.61861521 65.30978673 189.58647103 65.31363433 186.55427551 65.31744385 C184.38274527 65.32370886 182.2112161 65.3303557 180.03968811 65.33735657 C172.90214281 65.35839569 165.76459729 65.36875915 158.62702942 65.37872314 C156.16937372 65.38277082 153.71171813 65.38688775 151.25406265 65.39107323 C139.7071584 65.41012494 128.16026054 65.42435575 116.6133436 65.4326852 C103.28781379 65.4424565 89.96250017 65.46877338 76.63702524 65.50918609 C66.33538592 65.53935527 56.03379421 65.55415487 45.73211157 65.55746621 C39.58037484 65.55981586 33.42881562 65.56876555 27.27712631 65.59392738 C21.48720296 65.61722676 15.69757377 65.62143363 9.90761566 65.611166 C7.78645219 65.61067098 5.66527414 65.61698134 3.54415512 65.63072205 C-9.8293241 65.71248518 -20.77826325 65.72627247 -31.01750183 56.06622314 C-38.42983868 47.9275103 -40.24732444 39.69698214 -40.08781433 28.83966064 C-39.66340958 23.8777927 -38.37141106 20.33978882 -35.77140808 16.14044189 C-35.24547058 15.20651611 -35.24547058 15.20651611 -34.70890808 14.25372314 C-30.50900567 7.53096269 -23.43170054 2.97225096 -15.77140808 1.14044189 C-10.46079663 0.23451673 -5.36554057 -0.00586706 0 0 Z " fill="" transform="translate(135.7714080810547,366.85955810546875)"/>
<path d="M0 0 C8.52142427 5.05910161 14.0182274 12.81911203 17.10546875 22.25 C17.98784022 30.7453904 17.5148028 37.87048954 13.10546875 45.25 C12.23921875 46.796875 12.23921875 46.796875 11.35546875 48.375 C6.41326239 54.69004146 0.35188753 60.31307542 -7.88842773 61.54907227 C-10.00476987 61.6874823 -12.08646589 61.71794103 -14.20703125 61.6875 C-15.32742798 61.67505249 -15.32742798 61.67505249 -16.47045898 61.66235352 C-25.68610265 61.38163852 -32.41091322 58.52482246 -39.140625 52.17578125 C-46.28974127 44.32608343 -48.39104615 36.29053854 -48.203125 25.7890625 C-47.42898914 16.91099808 -43.43349785 10.19331175 -36.89453125 4.25 C-26.21501205 -3.7291845 -12.28836569 -5.92805581 0 0 Z " fill="" transform="translate(47.89453125,226.75)"/>
<path d="M0 0 C7.42292148 4.76019013 12.28418031 12.70372888 15 21 C15.88237147 29.4953904 15.40933405 36.62048954 11 44 C10.13375 45.546875 10.13375 45.546875 9.25 47.125 C4.30779364 53.44004146 -1.75358122 59.06307542 -9.99389648 60.29907227 C-12.11027809 60.43748488 -14.19189441 60.46817784 -16.3125 60.4375 C-17.06015625 60.42847656 -17.8078125 60.41945313 -18.578125 60.41015625 C-28.24789196 60.10849974 -34.97134707 56.94196374 -42.01953125 50.29296875 C-49.54051668 41.58524006 -50.69127491 32.12211961 -50 21 C-47.88265869 11.08274693 -41.15716171 4.19080268 -33.04296875 -1.33203125 C-23.29622211 -6.60608344 -9.35826544 -5.55592753 0 0 Z " fill="" transform="translate(50,372)"/>
<path d="M0 0 C0.62261719 0.350625 1.24523438 0.70125 1.88671875 1.0625 C8.95412997 5.47771569 12.71903263 12.0914281 14.875 20 C17.15735119 30.95528572 15.92316313 37.27297064 10 47 C7.51956726 50.41938198 5.15700119 52.87620799 1.625 55.1875 C0.89539062 55.67605469 0.16578125 56.16460937 -0.5859375 56.66796875 C-8.37995431 60.96855084 -17.32449586 61.15673388 -26 60 C-35.65732378 57.09425656 -41.34549681 51.35993801 -46.875 43.25 C-50.59919152 35.80161697 -50.09589993 25.50650437 -48.1640625 17.5625 C-44.63958105 8.29003873 -38.87774577 1.84656469 -29.859375 -2.30859375 C-20.27424779 -5.87281122 -8.70991221 -5.39269513 0 0 Z " fill="" transform="translate(49,84)"/>
</svg>
