<?xml version="1.0" encoding="UTF-8"?>
<svg version="1.1" xmlns="http://www.w3.org/2000/svg" width="" height="" viewBox="0 0 512 512">
<path d="M0 0 C2.36798533 -0.00542549 4.73596727 -0.01255054 7.10394287 -0.02124023 C13.51300129 -0.03942543 19.9218012 -0.03242572 26.33086395 -0.01972389 C30.33868378 -0.01259401 34.3464861 -0.01396087 38.35430908 -0.01768494 C39.3547657 -0.01860433 39.3547657 -0.01860433 40.37543356 -0.01954231 C41.73070766 -0.02082131 43.08598174 -0.02211817 44.44125581 -0.02343267 C57.12608283 -0.03481725 69.8107939 -0.0217582 82.49560189 -0.00023121 C93.36105824 0.01763788 104.22634361 0.01453318 115.09179688 -0.00390625 C127.7336807 -0.0253506 140.37546311 -0.03371882 153.01736259 -0.0214572 C154.36743035 -0.02018311 155.71749813 -0.01892562 157.06756592 -0.01768494 C158.0637489 -0.01675928 158.0637489 -0.01675928 159.08005679 -0.01581493 C163.74231267 -0.01237268 168.40446837 -0.01836326 173.06671143 -0.02760315 C179.35087004 -0.03918829 185.63470689 -0.03108679 191.91883087 -0.00802612 C194.22017127 -0.00275333 196.52153892 -0.0042282 198.82286835 -0.01307678 C214.35669994 -0.06728123 226.88977196 0.23272255 238.7109375 11.51757812 C247.32999383 20.54625298 250.34508332 30.50828917 250.2421875 42.81054688 C250.2460144 43.84141922 250.24984131 44.87229156 250.25378418 45.93440247 C250.25648544 48.09486885 250.24925072 50.25536895 250.23242188 52.41577148 C250.21092095 55.70761215 250.23231956 58.99728704 250.2578125 62.2890625 C250.25517019 64.4003954 250.25004723 66.51172696 250.2421875 68.62304688 C250.25028442 69.5971904 250.25838135 70.57133392 250.26672363 71.57499695 C250.16746142 78.85622089 248.5903504 84.23172723 243.74609375 89.75976562 C243.09511719 90.29859375 242.44414062 90.83742188 241.7734375 91.39257812 C241.12503906 91.946875 240.47664063 92.50117187 239.80859375 93.07226562 C233.30736193 97.55169909 226.33952833 97.19221541 218.7109375 96.51757812 C212.05134417 94.8367223 207.52546303 90.05379491 203.7109375 84.51757812 C199.24737708 73.35867707 201.7109375 60.53608238 201.7109375 48.51757812 C133.0709375 48.51757812 64.4309375 48.51757812 -6.2890625 48.51757812 C-6.2890625 169.95757812 -6.2890625 291.39757812 -6.2890625 416.51757812 C62.3509375 416.51757812 130.9909375 416.51757812 201.7109375 416.51757812 C201.7109375 406.28757812 201.7109375 396.05757813 201.7109375 385.51757812 C206.23627534 376.46690245 206.23627534 376.46690245 209.6484375 373.64257812 C210.29683594 373.08828125 210.94523437 372.53398437 211.61328125 371.96289062 C218.11451307 367.48345716 225.08234667 367.84294084 232.7109375 368.51757812 C239.37053083 370.19843395 243.89641197 374.98136134 247.7109375 380.51757812 C250.40269555 385.47274825 250.03452948 390.62974151 250.046875 396.11914062 C250.0535318 397.15138763 250.0601886 398.18363464 250.06704712 399.24716187 C250.07716098 401.43086978 250.08186453 403.61460853 250.08154297 405.79833984 C250.08589499 409.11023174 250.12217064 412.42076744 250.16015625 415.73242188 C250.16602917 417.86132361 250.16999538 419.99023162 250.171875 422.11914062 C250.18624603 423.09662262 250.20061707 424.07410461 250.21542358 425.08120728 C250.14253588 436.26356497 246.4374124 445.42390442 238.7109375 453.51757812 C225.98335939 465.66772358 212.00940722 465.09893513 195.421875 465.03515625 C193.05388967 465.04058174 190.68590773 465.04770679 188.31793213 465.05639648 C181.90887371 465.07458168 175.5000738 465.06758197 169.09101105 465.05488014 C165.08319122 465.04775026 161.0753889 465.04911712 157.06756592 465.05284119 C156.0671093 465.05376058 156.0671093 465.05376058 155.04644144 465.05469856 C153.69116734 465.05597756 152.33589326 465.05727442 150.98061919 465.05858892 C138.29579217 465.0699735 125.6110811 465.05691445 112.92627311 465.03538746 C102.06081676 465.01751837 91.19553139 465.02062307 80.33007812 465.0390625 C67.6881943 465.06050685 55.04641189 465.06887507 42.40451241 465.05661345 C41.05444465 465.05533936 39.70437687 465.05408187 38.35430908 465.05284119 C37.3581261 465.05191553 37.3581261 465.05191553 36.34181821 465.05097118 C31.67956233 465.04752893 27.01740663 465.05351951 22.35516357 465.0627594 C16.07100496 465.07434454 9.78716811 465.06624304 3.50304413 465.04318237 C1.20170373 465.03790958 -1.09966392 465.03938445 -3.40099335 465.04823303 C-18.93482494 465.10243748 -31.46789696 464.8024337 -43.2890625 453.51757812 C-53.54157804 442.77781432 -54.88394358 431.30170987 -54.79699707 417.00732422 C-54.80161226 415.34749493 -54.80796931 413.68766974 -54.81590605 412.02785301 C-54.8325377 407.49039749 -54.82438118 402.95328035 -54.81196117 398.41582394 C-54.80288768 393.51321609 -54.8168918 388.61066526 -54.82788086 383.70806885 C-54.84564613 374.11321106 -54.84183496 364.51847859 -54.8302303 354.92361593 C-54.82118842 347.12409533 -54.81997524 339.32460979 -54.82432556 331.52508545 C-54.82524496 329.85854213 -54.82524496 329.85854213 -54.82618293 328.15833127 C-54.82746186 325.90113718 -54.82875872 323.6439431 -54.8300733 321.38674903 C-54.84147326 300.23232033 -54.82837453 279.07796101 -54.80687183 257.92354369 C-54.7890014 239.78102563 -54.79210567 221.63860996 -54.81054688 203.49609375 C-54.83196387 182.41618731 -54.84037468 161.33634166 -54.82809782 140.25642586 C-54.82682365 138.00764085 -54.82556617 135.75885583 -54.82432556 133.5100708 C-54.82370846 132.40369117 -54.82309136 131.29731154 -54.82245556 130.15740526 C-54.81900515 122.36930592 -54.82482434 114.58124521 -54.83424377 106.79315186 C-54.84547433 97.29911613 -54.84240143 87.80521265 -54.8211208 78.31119204 C-54.81062467 73.46929173 -54.80646408 68.62761176 -54.81971741 63.7857132 C-54.83167687 59.34934204 -54.8250204 54.91339449 -54.8038072 50.47706151 C-54.79935616 48.8762673 -54.80157356 47.27543696 -54.81131035 45.67466617 C-54.88715208 32.16472262 -52.85958251 21.54293473 -43.2890625 11.51757812 C-30.56148439 -0.63256733 -16.58753222 -0.06377888 0 0 Z " fill="" transform="translate(78.2890625,23.482421875)"/>
<path d="M0 0 C3.53749616 2.84414138 6.69264975 6.0187293 9.87841797 9.24731445 C10.82949444 10.19324285 11.78163844 11.13809892 12.73475647 12.08197021 C15.30177095 14.63057938 17.85294019 17.19450797 20.40087271 19.76217675 C23.07820569 22.45598058 25.76821284 25.13707914 28.45632935 27.82011414 C32.96540946 32.32468386 37.46423191 36.83930299 41.95703125 41.36010742 C47.14288826 46.57804063 52.3446234 51.7797209 57.55514991 56.97301131 C62.58077802 61.98275003 67.59500731 67.00375085 72.60416031 72.02995872 C74.73040642 74.16305649 76.8605203 76.29217626 78.99389267 78.41814613 C81.50662254 80.92318788 84.00917929 83.43797843 86.50437737 85.96047974 C87.85328734 87.31950515 89.2119738 88.66880518 90.57096863 90.01774597 C97.0186814 96.56708715 100.42681522 101.43873405 100.4375 110.9375 C100.46650391 112.65259766 100.46650391 112.65259766 100.49609375 114.40234375 C99.21164522 123.717124 93.27749753 129.30401271 86.8762207 135.65722656 C85.95375046 136.58831238 85.03128021 137.51939819 84.08085632 138.47869873 C81.56514099 141.01679824 79.03698892 143.54214621 76.50561547 146.06461811 C74.38709324 148.17800798 72.27483278 150.29760163 70.16251534 152.41719031 C65.17634843 157.42032131 60.18002803 162.41314592 55.17700195 167.39941406 C50.02943448 172.53006103 44.89846006 177.67687629 39.7755273 182.8321116 C35.36322589 187.27116928 30.94121192 191.70038267 26.51127881 196.12184501 C23.87142369 198.75678885 21.2352019 201.39511058 18.60811806 204.04279327 C15.67644005 206.9963569 12.72471995 209.92908096 9.77075195 212.86035156 C8.4822081 214.16643372 8.4822081 214.16643372 7.16763306 215.49890137 C1.44827392 221.12938896 -3.95464454 225.09714692 -11.96875 226.53125 C-19.62645805 226.43671039 -25.48809767 225.19098711 -31.265625 219.94140625 C-37.54096077 213.2484672 -39.16388012 208.10746365 -39.4609375 199.07421875 C-37.87293093 188.4830224 -30.76629859 182.10217916 -23.453125 174.96484375 C-22.31431566 173.83537595 -21.17661712 172.70478717 -20.03997803 171.57313538 C-17.06550459 168.61762596 -14.07632176 165.67745181 -11.0836792 162.74035645 C-8.02451298 159.73261249 -4.97969629 156.71041652 -1.93359375 153.68945312 C4.03042349 147.77883625 10.01007898 141.88436353 16 136 C15.43807386 135.99940291 14.87614773 135.99880582 14.29719353 135.99819064 C-19.01331682 135.96229018 -52.32371972 135.90564124 -85.63414353 135.82207905 C-89.63451329 135.81206169 -93.63488346 135.80221754 -97.63525391 135.79248047 C-98.43164957 135.7905391 -99.22804523 135.78859772 -100.04857409 135.78659752 C-112.94065242 135.75558349 -125.83271296 135.73859854 -138.72482157 135.72680578 C-151.95509614 135.71439112 -165.18527737 135.68688262 -178.41549301 135.64538693 C-186.5780842 135.6202605 -194.74052056 135.60688209 -202.90315098 135.60857043 C-209.16418502 135.60860372 -215.42498905 135.58762825 -221.68595314 135.55883217 C-224.25299548 135.55031041 -226.82007082 135.54859859 -229.3871212 135.55419731 C-232.89229692 135.56082403 -236.39653047 135.54294642 -239.90161133 135.51898193 C-240.91719179 135.52674235 -241.93277225 135.53450277 -242.97912788 135.54249835 C-250.30372595 135.45386259 -255.67933955 133.90991674 -261.2421875 129.03515625 C-262.05042969 128.05869141 -262.05042969 128.05869141 -262.875 127.0625 C-263.42929687 126.41410156 -263.98359375 125.76570312 -264.5546875 125.09765625 C-269.03412097 118.59642443 -268.67463728 111.62859083 -268 104 C-266.31914417 97.34040667 -261.53621678 92.81452553 -256 89 C-251.01119088 86.26906885 -245.79193558 86.71108286 -240.26237488 86.7215271 C-238.62050397 86.7128385 -238.62050397 86.7128385 -236.94546396 86.70397437 C-233.27114875 86.68694484 -229.59695893 86.68409528 -225.92260742 86.68115234 C-223.29135835 86.67185622 -220.66011223 86.66168803 -218.02886963 86.65071106 C-212.36059793 86.62844297 -206.69234428 86.61342698 -201.02403831 86.60334396 C-192.82863806 86.58875515 -184.63330066 86.56321776 -176.4379373 86.53501268 C-163.14134008 86.48954837 -149.84473381 86.45293207 -136.5480957 86.421875 C-123.63206391 86.39168798 -110.71605426 86.35733701 -97.80004883 86.31738281 C-97.00383463 86.31492126 -96.20762042 86.31245972 -95.38727852 86.30992357 C-91.39288445 86.29754894 -87.39849065 86.28509242 -83.40409696 86.27259517 C-50.26942799 86.16903278 -17.13473478 86.07982774 16 86 C15.36995056 85.38105362 14.73990112 84.76210724 14.09075928 84.12440491 C8.13403601 78.26817274 2.18964319 72.39975521 -3.74147415 66.51758671 C-6.79062303 63.4944496 -9.84421035 60.47610631 -12.90869141 57.46850586 C-15.86999331 54.56182406 -18.81864823 51.64283553 -21.75920868 48.71517754 C-22.87907798 47.60449442 -24.00331447 46.49819555 -25.13208771 45.39656258 C-31.94634934 38.73959425 -37.79274836 32.7464062 -39.53125 23.03125 C-39.43671039 15.37354195 -38.19098711 9.51190233 -32.94140625 3.734375 C-23.07821116 -5.51340994 -11.75576576 -6.76466081 0 0 Z " fill="" transform="translate(388,145)"/>
</svg>
