<?xml version="1.0" encoding="UTF-8"?>
<svg version="1.1" xmlns="http://www.w3.org/2000/svg" width="" height="" viewBox="0 0 512 512">
<path d="M0 0 C1.01823853 0.00215515 2.03647705 0.0043103 3.08557129 0.00653076 C17.7097884 0.05623391 32.00304638 0.37042012 46.375 3.3125 C47.37160645 3.50585938 48.36821289 3.69921875 49.39501953 3.8984375 C97.79648057 13.46213524 141.99059771 35.87987765 177.375 70.3125 C178.37877686 71.27760498 178.37877686 71.27760498 179.40283203 72.26220703 C188.33991207 80.87657599 196.74206664 89.58564609 204.10107422 99.59423828 C205.39750666 101.34285682 206.72788718 103.06078803 208.06640625 104.77734375 C215.93067241 114.9920598 222.3161092 125.94975258 228.375 137.3125 C229.03846436 138.55314209 229.03846436 138.55314209 229.71533203 139.81884766 C241.23204842 161.72199262 248.9030584 186.01309889 253.375 210.3125 C253.53581055 211.11316895 253.69662109 211.91383789 253.86230469 212.73876953 C259.3544441 240.81662453 259.10896692 274.30227935 253.375 302.3125 C253.18164062 303.30910645 252.98828125 304.30571289 252.7890625 305.33251953 C244.67028127 346.42132055 227.30084885 383.51549494 201.375 416.3125 C200.56289063 417.35019531 199.75078125 418.38789063 198.9140625 419.45703125 C186.24907313 435.01858759 171.69874403 449.61464417 155.375 461.3125 C154.02974408 462.30180622 152.68470229 463.29140366 151.33984375 464.28125 C120.03306909 487.08129792 84.47487825 502.30078684 46.375 509.3125 C45.57433105 509.47331055 44.77366211 509.63412109 43.94873047 509.79980469 C15.88172956 515.289821 -17.62684244 515.06193715 -45.625 509.3125 C-46.63755859 509.11382324 -47.65011719 508.91514648 -48.69335938 508.71044922 C-89.78600049 500.49315205 -126.72136417 483.05232803 -159.625 457.3125 C-160.16415039 456.89339355 -160.70330078 456.47428711 -161.25878906 456.04248047 C-177.49886305 443.27946125 -192.56962343 428.08823511 -204.625 411.3125 C-205.4887527 410.14261544 -206.35335469 408.9733575 -207.21875 407.8046875 C-222.36207742 387.1786757 -234.4442165 364.56952873 -242.625 340.3125 C-243.03806396 339.08998535 -243.03806396 339.08998535 -243.45947266 337.84277344 C-246.69755506 328.07192323 -249.22985473 318.19031263 -251.375 308.125 C-251.57375732 307.20033936 -251.77251465 306.27567871 -251.97729492 305.32299805 C-255.26999027 289.11638823 -256.00030278 273.1821298 -255.9375 256.6875 C-255.93534485 255.66926147 -255.9331897 254.65102295 -255.93096924 253.60192871 C-255.88126609 238.9777116 -255.56707988 224.68445362 -252.625 210.3125 C-252.33496094 208.81759033 -252.33496094 208.81759033 -252.0390625 207.29248047 C-242.60837882 159.56419789 -220.63885226 115.26845549 -186.625 80.3125 C-185.93245117 79.59416992 -185.23990234 78.87583984 -184.52636719 78.13574219 C-174.78805129 68.06884541 -165.02732714 58.47657992 -153.625 50.3125 C-153.08182129 49.9191748 -152.53864258 49.52584961 -151.97900391 49.12060547 C-121.06483319 26.8400395 -86.69185396 11.73917236 -49.375 4.0625 C-48.64442383 3.91127686 -47.91384766 3.76005371 -47.16113281 3.60424805 C-31.46684491 0.57387475 -15.9450952 -0.06071045 0 0 Z M-8.625 99.3125 C-17.11218078 107.07736752 -16.13308894 118.64579691 -16.625 129.3125 C-17.800625 129.8075 -18.97625 130.3025 -20.1875 130.8125 C-41.45237126 140.40844033 -57.80501079 152.9204606 -66.85205078 175.20532227 C-69.88799574 183.48177234 -71.18021335 191.19311207 -71.125 200 C-71.12072998 201.04365723 -71.11645996 202.08731445 -71.11206055 203.16259766 C-70.91315332 212.28702725 -69.16330808 219.94567206 -65.625 228.3125 C-65.24085938 229.2509375 -64.85671875 230.189375 -64.4609375 231.15625 C-61.51524519 237.64879633 -57.30857369 242.97867405 -52.625 248.3125 C-52.03074219 249.00214844 -51.43648437 249.69179687 -50.82421875 250.40234375 C-37.31065151 265.01551603 -19.95708205 270.31403582 -0.625 272.3125 C12.3428339 273.65305667 22.27819359 276.54561633 31.375 286.3125 C33.36817421 288.85068279 34.93288652 291.42827304 36.375 294.3125 C36.85453125 295.240625 36.85453125 295.240625 37.34375 296.1875 C41.19294011 305.31150618 40.85666006 318.0719419 37.8125 327.375 C33.15480541 337.97247236 25.05813389 345.74632591 14.375 350.25 C3.65698387 353.30139249 -9.85570092 352.70080407 -19.625 347.3125 C-28.4838292 341.91705798 -35.12219554 333.88711325 -38.0859375 323.87109375 C-38.76680365 320.63944645 -39.1567226 317.40216836 -39.5625 314.125 C-40.52184295 306.87923086 -41.81238284 303.85724886 -47.25 298.9375 C-51.82770239 296.73342107 -55.63052411 296.5153361 -60.625 297.3125 C-65.54698436 299.68234432 -67.98119914 302.58787884 -70.625 307.3125 C-71.04918321 310.11503461 -71.24634159 312.40040212 -71.1875 315.1875 C-71.1721521 316.29689941 -71.1721521 316.29689941 -71.15649414 317.42871094 C-70.39780333 337.6576003 -59.4658619 354.06849456 -45.22265625 367.59375 C-39.42508767 372.60994911 -33.10607737 375.73024628 -26.140625 378.76953125 C-22.91091001 380.18701727 -19.76542783 381.70856984 -16.625 383.3125 C-16.58761719 384.43527344 -16.55023438 385.55804688 -16.51171875 386.71484375 C-16.53823006 399.66911072 -16.53823006 399.66911072 -11.1640625 410.921875 C-6.45192567 415.01338893 -3.21541119 415.66831945 2.8359375 415.58984375 C7.9713584 415.02889777 10.5695391 412.31388382 13.6875 408.4375 C16.63239245 402.98399547 16.60222596 397.01640303 16.9375 390.9375 C16.98068359 390.20144531 17.02386719 389.46539062 17.06835938 388.70703125 C17.17343799 386.90901932 17.27462093 385.11078042 17.375 383.3125 C18.550625 382.8175 19.72625 382.3225 20.9375 381.8125 C42.20237126 372.21655967 58.55501079 359.7045394 67.60205078 337.41967773 C70.63799574 329.14322766 71.93021335 321.43188793 71.875 312.625 C71.86859497 311.05951416 71.86859497 311.05951416 71.86206055 309.46240234 C71.66315332 300.33797275 69.91330808 292.67932794 66.375 284.3125 C65.99085938 283.3740625 65.60671875 282.435625 65.2109375 281.46875 C62.26524519 274.97620367 58.05857369 269.64632595 53.375 264.3125 C52.78074219 263.62285156 52.18648438 262.93320312 51.57421875 262.22265625 C38.06065151 247.60948397 20.70708205 242.31096418 1.375 240.3125 C-11.5928339 238.97194333 -21.52819359 236.07938367 -30.625 226.3125 C-32.61817421 223.77431721 -34.18288652 221.19672696 -35.625 218.3125 C-35.9446875 217.69375 -36.264375 217.075 -36.59375 216.4375 C-40.44294011 207.31349382 -40.10666006 194.5530581 -37.0625 185.25 C-32.40480541 174.65252764 -24.30813389 166.87867409 -13.625 162.375 C-2.90698387 159.32360751 10.60570092 159.92419593 20.375 165.3125 C29.2338292 170.70794202 35.87219554 178.73788675 38.8359375 188.75390625 C39.51680365 191.98555355 39.9067226 195.22283164 40.3125 198.5 C41.27184295 205.74576914 42.56238284 208.76775114 48 213.6875 C52.57770239 215.89157893 56.38052411 216.1096639 61.375 215.3125 C66.29698436 212.94265568 68.73119914 210.03712116 71.375 205.3125 C71.79918321 202.50996539 71.99634159 200.22459788 71.9375 197.4375 C71.92726807 196.69790039 71.91703613 195.95830078 71.90649414 195.19628906 C71.14780333 174.9673997 60.2158619 158.55650544 45.97265625 145.03125 C40.17508767 140.01505089 33.85607737 136.89475372 26.890625 133.85546875 C23.66091001 132.43798273 20.51542783 130.91643016 17.375 129.3125 C17.31892578 127.62833984 17.31892578 127.62833984 17.26171875 125.91015625 C17.238664 111.97660334 17.238664 111.97660334 10.625 100.375 C3.70378744 95.98269203 -1.42337877 95.48874989 -8.625 99.3125 Z " fill="" transform="translate(255.625,-0.3125)"/>
</svg>
