<?xml version="1.0" encoding="UTF-8"?>
<svg version="1.1" xmlns="http://www.w3.org/2000/svg" width="" height="" viewBox="0 0 512 512">
<path d="M0 0 C10.13859394 6.1441821 17.49928386 13.97217893 22 25 C22.35964844 25.86753906 22.71929687 26.73507813 23.08984375 27.62890625 C24.28694313 32.06279795 24.2911761 36.17945334 24.25 40.75 C24.25773437 41.59304687 24.26546875 42.43609375 24.2734375 43.3046875 C24.25478345 49.40456154 23.39208224 55.06700256 22 61 C23.23492187 61.29132813 24.46984375 61.58265625 25.7421875 61.8828125 C68.50593038 72.15036589 105.76941514 91.6786124 137.42382812 122.47070312 C138.78483564 123.79123458 140.16421069 125.09278672 141.546875 126.390625 C179.73912004 162.95766812 199.54066145 216.32413568 204 268 C204.56920166 267.97905273 205.13840332 267.95810547 205.72485352 267.93652344 C208.33721816 267.85269006 210.94929884 267.80113182 213.5625 267.75 C214.45775391 267.71648437 215.35300781 267.68296875 216.27539062 267.6484375 C222.44099796 267.55809893 225.95372212 268.40784693 231 272 C234.65058943 275.88611133 234.50519224 280.24780324 234.34765625 285.34375 C233.68166647 290.43221123 231.23970008 292.99396264 227.37689209 296.12869596 C223.33520122 298.3683981 220.09131481 298.55791979 215.59472656 298.50336456 C214.75892122 298.50917833 213.92311588 298.51499209 213.06198311 298.52098203 C210.25457149 298.53560786 207.4480306 298.52168475 204.640625 298.50793457 C202.61031649 298.51254246 200.58001131 298.51889461 198.54971313 298.52684355 C192.96518811 298.54357532 187.38093574 298.53527293 181.79640961 298.52289867 C175.77587516 298.51386629 169.75538833 298.52780891 163.73486328 298.53881836 C152.62062373 298.55559774 141.50645938 298.55411455 130.39221931 298.54317249 C120.12507697 298.53311391 109.85796657 298.53048175 99.59082031 298.53526306 C98.91002088 298.5355686 98.22922145 298.53587414 97.52779174 298.53618894 C94.76426898 298.53743428 92.00074623 298.53870787 89.23722351 298.540028 C63.30836807 298.55226654 37.37956813 298.54116613 11.45072126 298.51964041 C-11.59017389 298.50065769 -34.63098062 298.50235619 -57.671875 298.52148438 C-83.55302284 298.54289862 -109.43412163 298.55139862 -135.3152771 298.53903532 C-138.07379149 298.53775243 -140.8323059 298.53650107 -143.59082031 298.53526306 C-144.27004681 298.53494675 -144.9492733 298.53463044 -145.64908242 298.53430455 C-155.91027412 298.52975288 -166.17143039 298.53507905 -176.43261719 298.54518127 C-188.09897868 298.55660957 -199.76525602 298.553392 -211.4316082 298.5320583 C-217.3867371 298.52152823 -223.3416863 298.51745947 -229.29681396 298.53065491 C-234.7446597 298.54254395 -240.19215857 298.53607374 -245.63997269 298.5147447 C-247.61431153 298.51026384 -249.58867948 298.51257798 -251.56299973 298.52224785 C-254.24066237 298.53436002 -256.9171271 298.52198963 -259.59472656 298.50336456 C-260.36658735 298.51272923 -261.13844814 298.52209389 -261.93369865 298.53174233 C-267.10496555 298.45953606 -270.00541401 297.24167338 -274 294 C-277.42917072 290.30010527 -278.29969749 287.4207651 -278.5 282.5 C-278.30013186 277.5965683 -277.46987891 274.65250412 -274 271 C-268.61139932 267.45531111 -263.83688782 267.63970141 -257.625 267.8125 C-256.69816406 267.82603516 -255.77132812 267.83957031 -254.81640625 267.85351562 C-252.54366002 267.88866119 -250.27214153 267.93785868 -248 268 C-247.94054199 267.37359619 -247.88108398 266.74719238 -247.81982422 266.10180664 C-241.93118279 206.32070927 -215.34798924 150.27467368 -168.6875 111.4375 C-166.80002872 109.94767779 -164.9034397 108.46936564 -163 107 C-162.14462646 106.32203369 -162.14462646 106.32203369 -161.27197266 105.63037109 C-132.85900496 83.1239341 -99.32607592 68.55670841 -64 61 C-64.33 59.7625 -64.66 58.525 -65 57.25 C-67.69522546 43.55903591 -67.60293374 29.24547306 -60.26953125 17.14453125 C-54.31692763 8.34038098 -46.8580309 2.02329694 -37 -2 C-36.13117188 -2.35707031 -35.26234375 -2.71414063 -34.3671875 -3.08203125 C-23.68802308 -5.99340438 -9.68698586 -5.48465707 0 0 Z M-33.875 33.125 C-35.84665599 38.16367643 -36.12296283 43.25497975 -34.05078125 48.3203125 C-31.72405408 52.29850217 -29.42935015 55.35186971 -25 57 C-20.17176142 57.62299853 -17.28769997 57.56223465 -13.1875 54.875 C-9.32431402 51.70859871 -7.34639803 48.6542749 -6.6875 43.60546875 C-6.4142075 37.90902819 -7.0465756 34.38082163 -11 30 C-14.83713196 26.61429533 -18.63401462 26.48708828 -23.5625 26.6484375 C-28.22526146 27.32095117 -30.85190292 29.69882331 -33.875 33.125 Z " fill="" transform="translate(278,4)"/>
<path d="M0 0 C2.65846315 2.29265283 5.24330673 4.62973485 7.78125 7.0546875 C14.7395996 13.15549401 22.0252015 13.1289314 30.86328125 13.17578125 C32.57227793 13.19898021 34.28126235 13.22309757 35.99023438 13.24804688 C38.64941662 13.28306511 41.30814498 13.31247797 43.9675293 13.32592773 C67.36622843 13.46700142 67.36622843 13.46700142 76.39453125 22.06640625 C82.81748481 29.80208024 84.91355032 37.48389644 84.4453125 47.44921875 C83.26679316 56.84635983 79.45938776 63.1592859 72 69 C66.70050527 72.25904756 61.87502154 74.11579085 55.61401367 74.15771484 C54.51244431 74.16797699 53.41087494 74.17823914 52.27592468 74.18881226 C51.08529922 74.19611359 49.89467377 74.20341492 48.66796875 74.2109375 C46.15298828 74.23900595 43.63801441 74.26767041 41.12304688 74.296875 C37.15324079 74.33814271 33.18355784 74.37502616 29.21362305 74.40136719 C25.38564547 74.4289768 21.55822986 74.47485025 17.73046875 74.5234375 C16.54591599 74.52669037 15.36136322 74.52994324 14.14091492 74.53329468 C6.99179815 74.63989491 2.01885363 75.06273701 -3.3125 80.25 C-5.73466609 84.19723363 -6.4481412 87.48097472 -5.62890625 92.0859375 C-4.23352366 96.74876878 -2.6072949 98.71366585 1.79199219 101.14057922 C6.15218325 102.83769223 10.69217507 102.56748714 15.3125 102.53125 C16.94227783 102.53699036 16.94227783 102.53699036 18.60498047 102.54284668 C20.90121386 102.54556188 23.19747839 102.53822832 25.49365234 102.52148438 C28.96133835 102.50023689 32.42691285 102.52121453 35.89453125 102.546875 C63.00831999 102.58214175 78.9238085 94.97347773 98.12554932 75.92904663 C102.08684482 71.97418964 106.02730802 67.99884408 109.96397781 64.0194912 C112.59368455 61.36278591 115.22804815 58.71078144 117.86386108 56.06013489 C125.34916636 48.53241935 132.83174763 41.00208199 140.29785156 33.45532227 C144.88669783 28.81700819 149.48620601 24.18941983 154.09174728 19.56768227 C155.8344207 17.81515508 157.57344352 16.0589895 159.30861282 14.29903221 C161.73636556 11.837339 164.17647107 9.38853049 166.61962891 6.94213867 C167.67353569 5.86430367 167.67353569 5.86430367 168.74873352 4.76469421 C176.66380361 -3.10305136 184.34426096 -8.07487911 195.625 -8.3125 C203.81403192 -8.24439994 209.45683111 -6.31668735 216.25 -1.875 C222.67398167 4.84098083 226.13312483 11.78219491 226.3125 21.0625 C226.34988281 22.31160156 226.38726562 23.56070313 226.42578125 24.84765625 C225.82898011 35.30328939 219.84975523 42.02126994 212.69604492 49.06445312 C211.74318564 50.02382013 210.79161181 50.98446528 209.84121704 51.9462738 C207.27369992 54.53672384 204.68784501 57.10808889 202.09741759 59.67560387 C199.37113078 62.38283353 196.66005696 65.1052305 193.9466095 67.82531738 C189.38323367 72.39502059 184.80775367 76.95232452 180.22485352 81.50244141 C174.95865658 86.73127273 169.71222347 91.97930566 164.47609824 97.23823786 C159.4067809 102.32866686 154.32324139 107.4046699 149.23342323 112.47459412 C147.08366038 114.61645825 144.93883419 116.76308254 142.79808617 118.91395569 C131.96620393 129.78724385 121.43534542 140.35821662 108 148 C107.21050461 148.46223465 106.42100922 148.9244693 105.60758972 149.40071106 C85.54104925 160.68526732 64.57170016 164.48763101 41.83398438 164.34057617 C39.9695792 164.3397277 38.10517303 164.34020933 36.24076843 164.34190369 C31.23145486 164.34275648 26.22236142 164.32524817 21.21309853 164.30418181 C15.95876844 164.28529417 10.70443204 164.28365512 5.45007324 164.28010559 C-4.47653766 164.27082037 -14.4030482 164.24625477 -24.32961512 164.21605712 C-35.64051856 164.1824028 -46.95142707 164.16599949 -58.2623682 164.15097082 C-81.50830088 164.1197017 -104.75414479 164.06701047 -128 164 C-128.09349822 143.14641666 -128.16400613 122.29286795 -128.20724869 101.43911743 C-128.22786187 91.75605252 -128.25595869 82.07311796 -128.30175781 72.39013672 C-128.34166366 63.94909483 -128.36744186 55.50814735 -128.37635398 47.06701374 C-128.38156238 42.59868492 -128.39377804 38.13062618 -128.42292023 33.66238403 C-128.45014861 29.45332043 -128.45843007 25.24463716 -128.45243073 21.03549385 C-128.45352765 19.49400323 -128.46143742 17.95249937 -128.4768219 16.41108513 C-128.63057794 0.20564029 -128.63057794 0.20564029 -122.51129532 -6.67358398 C-91.35842032 -37.88281079 -30.36054869 -23.16989242 0 0 Z " fill="" transform="translate(248,348)"/>
<path d="M0 0 C0 49.83 0 99.66 0 151 C-52.625 151 -52.625 151 -58.25 146 C-61.11019463 142.73120613 -61.12851156 139.87829567 -61.14717102 135.7063446 C-61.15432632 134.60863739 -61.16148163 133.51093018 -61.16885376 132.37995911 C-61.17154266 131.17522446 -61.17423157 129.97048981 -61.17700195 128.72924805 C-61.18357315 127.46072998 -61.19014435 126.19221191 -61.19691467 124.88525391 C-61.21793545 120.67742168 -61.22831464 116.46958917 -61.23828125 112.26171875 C-61.24232943 110.81219781 -61.24644638 109.36267706 -61.25063133 107.91315651 C-61.26967802 101.10333853 -61.28391059 94.29353136 -61.2922433 87.48369187 C-61.30201661 79.62663449 -61.32834046 71.76985876 -61.36874419 63.91290063 C-61.39891436 57.83721036 -61.41371299 51.76160081 -61.41702431 45.68583709 C-61.41937364 42.05821437 -61.42831841 38.43089272 -61.45348549 34.80335045 C-61.48111869 30.75503202 -61.47693239 26.7073423 -61.4699707 22.65893555 C-61.48918579 20.86094261 -61.48918579 20.86094261 -61.50878906 19.02662659 C-61.4691818 12.71709517 -61.30225165 8.76718892 -57 4 C-43.72535634 -8.03014581 -3.80844082 0 0 0 Z " fill="" transform="translate(91,361)"/>
</svg>
