<?xml version="1.0" encoding="UTF-8"?>
<svg version="1.1" xmlns="http://www.w3.org/2000/svg" width="" height="" viewBox="0 0 512 512">
<path d="M0 0 C0.60585938 0.32226562 1.21171875 0.64453125 1.8359375 0.9765625 C50.79376898 27.27269033 85.60624498 73.30164156 101.56640625 126.046875 C104.7561756 137.19106739 106.59243962 148.50799301 108 160 C108.13277344 161.051875 108.26554687 162.10375 108.40234375 163.1875 C114.10888114 218.22040851 95.33371255 271.7562648 62 315 C64.64847495 319.19976282 67.39053455 322.62083268 70.95703125 326.1171875 C71.42308273 326.57803741 71.88913422 327.03888733 72.36930847 327.51370239 C73.84562091 328.97238847 75.32847839 330.42416118 76.8125 331.875 C82.48861415 337.44341688 88.10359569 342.99685922 93.2722168 349.04736328 C96.66140871 352.87762425 100.35464289 356.4158066 104 360 C108.92910718 364.84640404 113.68972211 369.72997619 118.1953125 374.97265625 C121.62009831 378.81998057 125.32854526 382.39014685 129 386 C133.92910718 390.84640404 138.68972211 395.72997619 143.1953125 400.97265625 C146.62009831 404.81998057 150.32854526 408.39014685 154 412 C158.9715726 416.88815696 163.76969256 421.81593223 168.31152344 427.10644531 C170.53281763 429.59753232 172.92139962 431.87637786 175.34106445 434.17260742 C183.70798762 442.15708193 189.56937092 449.24799948 190.12890625 461.26953125 C189.74601012 469.3799674 186.73039027 476.24402764 181 482 C175.10255918 486.49009699 170.33669868 488.16929568 162.875 488.3125 C161.61429687 488.34988281 160.35359375 488.38726563 159.0546875 488.42578125 C147.3730018 487.67203236 140.50940562 479.13765923 132.875 471.25 C131.72377388 470.08223048 130.57143695 468.91555495 129.41796875 467.75 C124.33557805 462.59245685 119.3788833 457.37993911 114.66845703 451.87792969 C111.29306072 448.07875667 107.6223148 444.56153771 104 441 C99.07089282 436.15359596 94.31027789 431.27002381 89.8046875 426.02734375 C86.37990169 422.18001943 82.67145474 418.60985315 79 415 C74.07089282 410.15359596 69.31027789 405.27002381 64.8046875 400.02734375 C61.37990169 396.18001943 57.67145474 392.60985315 54 389 C45.43475056 380.5784628 45.43475056 380.5784628 41.52734375 376.03125 C37.4449263 371.2808006 33.01260669 366.90348994 28.5625 362.5 C27.73556641 361.67757813 26.90863281 360.85515625 26.05664062 360.0078125 C24.04005041 358.00287887 22.02114764 356.00033747 20 354 C15.42236858 356.518408 10.86315609 359.03281847 6.4375 361.8125 C-41.14770502 390.34902632 -97.546477 396.48289548 -151.06591797 383.73730469 C-193.52169214 373.06860457 -232.88410112 347.31083059 -260 313 C-260.41040527 312.48775879 -260.82081055 311.97551758 -261.24365234 311.44775391 C-267.47298117 303.6640912 -273.07383813 295.6886991 -278 287 C-278.5878125 285.96794434 -278.5878125 285.96794434 -279.1875 284.91503906 C-295.77598287 255.45752222 -304.84881344 222.78013053 -306 189 C-306.04125 187.98550781 -306.0825 186.97101563 -306.125 185.92578125 C-307.10837229 138.90829362 -291.48820716 91.64602838 -262 55 C-260.79150391 53.48599609 -260.79150391 53.48599609 -259.55859375 51.94140625 C-244.26329779 33.14474255 -226.48897354 17.83201178 -206 5 C-205.10087891 4.43200684 -205.10087891 4.43200684 -204.18359375 3.85253906 C-185.90410656 -7.52772483 -164.9192538 -15.15004828 -144 -20 C-143.11634766 -20.20882813 -142.23269531 -20.41765625 -141.32226562 -20.6328125 C-93.8924596 -31.30029912 -42.55438583 -22.75356956 0 0 Z M-204.61474609 73.66162109 C-205.80926144 74.81571576 -207.02212082 75.95076858 -208.23828125 77.08203125 C-234.18965838 101.78524596 -249.38299116 139.57280629 -251 175 C-251.05285156 176.12792969 -251.10570312 177.25585938 -251.16015625 178.41796875 C-252.04755146 216.26730366 -239.11179236 253.5763018 -214 282 C-213.57605957 282.48952148 -213.15211914 282.97904297 -212.71533203 283.48339844 C-206.37672193 290.78773759 -199.72005451 297.12436481 -192 303 C-190.72576172 303.99773437 -190.72576172 303.99773437 -189.42578125 305.015625 C-158.02538395 328.85927497 -117.90141547 338.80751376 -78.90600586 334.23046875 C-49.77011314 330.23707142 -22.33737476 318.08234738 0 299 C0.52045898 298.55930176 1.04091797 298.11860352 1.57714844 297.66455078 C30.42384744 272.99760493 47.34663094 239.25317072 53 202 C53.19722656 200.74123047 53.19722656 200.74123047 53.3984375 199.45703125 C58.41946165 160.0352065 45.82288554 120.04818525 21.8125 88.875 C-2.51227489 58.43809508 -38.45147871 36.19356516 -77.53125 31.30859375 C-125.28151364 27.06054102 -169.83381032 39.9609085 -204.61474609 73.66162109 Z " fill="" transform="translate(314,24)"/>
</svg>
