<?xml version="1.0" encoding="UTF-8"?>
<svg version="1.1" xmlns="http://www.w3.org/2000/svg" width="" height="" viewBox="0 0 512 512">
<path d="M0 0 C3.39111328 1.05957031 3.39111328 1.05957031 6.8203125 2.578125 C7.46030685 2.85647186 8.10030121 3.13481873 8.75968933 3.42160034 C10.88767688 4.35089722 13.0059802 5.30045328 15.125 6.25 C16.65065221 6.9205515 18.17695695 7.58961999 19.70385742 8.25732422 C23.02140604 9.71035145 26.33528609 11.1713585 29.64697266 12.63769531 C35.24737716 15.11408314 40.86255267 17.55583499 46.48046875 19.9921875 C47.45105225 20.41318222 48.42163574 20.83417694 49.42163086 21.26792908 C51.39457561 22.12367532 53.36753709 22.97938301 55.34051514 23.83505249 C60.26657186 25.97313694 65.18986442 28.11756409 70.11328125 30.26171875 C79.07177067 34.16232906 88.03391497 38.05438388 97 41.9375 C98.17602783 42.44684082 99.35205566 42.95618164 100.5637207 43.48095703 C102.87838347 44.48331535 105.1930802 45.48559524 107.5078125 46.48779297 C113.04198619 48.88423255 118.57541852 51.28238241 124.10888672 53.68045044 C127.23922543 55.03704168 130.36961516 56.3935152 133.5 57.75 C134.75000025 58.2916661 136.00000025 58.83333276 137.25 59.375 C137.86875 59.643125 138.4875 59.91125 139.125 60.1875 C201 87 262.875 113.8125 416.62472534 180.43739319 C417.875629 180.9794433 419.12654454 181.52146597 420.37747192 182.0634613 C423.48874373 183.41153744 426.5998123 184.7600786 429.71044922 186.10961914 C435.49858385 188.62020697 441.28852375 191.12633059 447.08551025 193.61642456 C449.78433526 194.77603507 452.482048 195.93822068 455.1796875 197.10058594 C456.4496462 197.64694869 457.7201316 198.19208927 458.99121094 198.73583984 C482.36887738 208.73775475 482.36887738 208.73775475 484 212 C484.58843107 219.2965453 484.58843107 219.2965453 482.38134766 221.93505859 C479.56703518 224.37543741 476.89190452 225.62912377 473.47265625 227.109375 C472.82463547 227.39299896 472.17661469 227.67662292 471.50895691 227.96884155 C469.36395303 228.90495775 467.21337466 229.82746229 465.0625 230.75 C463.54163828 231.41048124 462.02113699 232.07179299 460.50097656 232.73388672 C456.48368141 234.48080261 452.46149542 236.21615897 448.43804932 237.94885254 C444.4807505 239.65501351 440.52769321 241.37093843 436.57421875 243.0859375 C429.59554094 246.11136242 422.6129123 249.12754334 415.62850952 252.13972473 C408.26952303 255.31390549 400.91549985 258.49948098 393.5625 261.6875 C392.35174805 262.21230957 391.14099609 262.73711914 389.89355469 263.27783203 C387.47475001 264.32628359 385.05596732 265.37478587 382.63720703 266.42333984 C377.05238601 268.84425367 371.46721442 271.26435831 365.88204956 273.68447876 C362.75468344 275.03961496 359.62734298 276.3948104 356.5 277.75 C355.25000012 278.29166695 354.00000012 278.83333362 352.75 279.375 C352.13125 279.643125 351.5125 279.91125 350.875 280.1875 C289 307 227.125 333.8125 73.37516785 400.43742371 C72.12460489 400.97933669 70.87404541 401.52125768 69.62348938 402.06318665 C66.50713086 403.41365007 63.39071311 404.76397647 60.27416992 406.11401367 C53.22920711 409.16598333 46.18579842 412.22149265 39.14428711 415.28141785 C34.71742933 417.2044394 30.28705558 419.11915149 25.85546875 421.03125 C21.61729134 422.86042603 17.39069224 424.71163381 13.17578125 426.59375 C11.49225026 427.33347619 9.80866162 428.07307119 8.125 428.8125 C7.40094971 429.14419189 6.67689941 429.47588379 5.9309082 429.81762695 C1.06608337 431.93022164 -2.69026399 432.42637066 -8 432 C-10.5 430.5 -10.5 430.5 -12 428 C-13.15610173 419.98986659 -9.6302941 414.80877139 -5.625 408.0625 C-4.98232178 406.94931396 -4.33964355 405.83612793 -3.67749023 404.68920898 C-1.80183176 401.44926489 0.09565302 398.22314249 2 395 C2.87707645 393.50045265 3.75348878 392.00051644 4.62890625 390.5 C6.18639449 387.83838301 7.75447303 385.18333775 9.328125 382.53125 C12.66001908 376.90132145 15.92147673 371.2308083 19.1875 365.5625 C20.14450806 363.90166382 20.14450806 363.90166382 21.12084961 362.20727539 C22.42889477 359.93662932 23.73675448 357.66587642 25.04443359 355.39501953 C28.19332054 349.9283002 31.34683264 344.46425113 34.5 339 C35.7500235 336.83334689 37.00002347 334.66668021 38.25 332.5 C40.75 328.16666667 43.25 323.83333333 45.75 319.5 C46.36907227 318.42693604 46.98814453 317.35387207 47.62597656 316.24829102 C48.87270256 314.08731012 50.11944727 311.92634002 51.36621094 309.76538086 C55.18849333 303.14032449 59.01033551 296.51501485 62.83081055 289.88891602 C64.09675403 287.69473208 65.36381948 285.50119504 66.63208008 283.30834961 C69.52683806 278.30175067 72.40780428 273.28885924 75.24609375 268.25 C75.99584473 266.92826782 75.99584473 266.92826782 76.76074219 265.57983398 C77.68123756 263.95573615 78.59515646 262.32788487 79.50097656 260.69555664 C79.90670898 259.98262451 80.31244141 259.26969238 80.73046875 258.53515625 C81.24710083 257.61295288 81.24710083 257.61295288 81.77416992 256.67211914 C85.00961234 252.25874628 89.79141372 250.7204782 94.7421875 248.83984375 C95.91254044 248.38631027 95.91254044 248.38631027 97.10653687 247.9236145 C99.69380923 246.92239735 102.2843496 245.92994013 104.875 244.9375 C107.62132466 243.8780957 110.36687196 242.81669245 113.11242676 241.7552948 C115.04206066 241.00957966 116.97199878 240.26465127 118.90222168 239.52046204 C126.20476126 236.70300474 133.49182234 233.84762133 140.7734375 230.9765625 C142.87645191 230.14848603 144.97947912 229.32044208 147.08251953 228.49243164 C150.15586795 227.28221261 153.22876038 226.07090171 156.30023193 224.85592651 C159.16221324 223.72436171 162.02618663 222.59798387 164.890625 221.47265625 C165.74095306 221.13485138 166.59128113 220.79704651 167.46737671 220.44900513 C171.29052247 218.95193588 174.91224379 217.59910337 179 217 C179 216.34 179 215.68 179 215 C177.73027344 214.65195313 176.46054688 214.30390625 175.15234375 213.9453125 C166.77602778 211.42640635 158.69163861 208.08569691 150.5625 204.875 C149.68403412 204.52807098 148.80556824 204.18114197 147.90048218 203.82369995 C146.55695175 203.29306442 146.55695175 203.29306442 145.1862793 202.75170898 C143.3273431 202.01798558 141.46837449 201.28434429 139.609375 200.55078125 C138.1987957 199.99332466 138.1987957 199.99332466 136.75971985 199.42460632 C130.84608377 197.09533122 124.91269036 194.82730348 118.95826721 192.60443115 C115.0202311 191.13155426 111.09079942 189.63649766 107.16207886 188.13897705 C105.27557933 187.42631965 103.3852157 186.72380127 101.49099731 186.03192139 C83.59428633 179.48423288 83.59428633 179.48423288 80.08178711 172.44946289 C79.72479736 171.64114014 79.36780762 170.83281738 79 170 C77.91328757 168.13061099 76.81057448 166.27046703 75.6953125 164.41796875 C74.501992 162.34299223 73.31205166 160.26606915 72.125 158.1875 C71.15542358 156.49874756 71.15542358 156.49874756 70.16625977 154.77587891 C66.07990817 147.65672448 62.01558614 140.52494112 57.94677734 133.39575195 C57.61554871 132.81540192 57.28432007 132.23505188 56.9430542 131.63711548 C56.27026829 130.4581373 55.59762116 129.27907992 54.92510986 128.09994507 C49.76832566 119.05979679 44.5476844 110.0587505 39.28881836 101.07763672 C34.46127164 92.82076358 29.71451329 84.51905969 24.97949219 76.20898438 C20.36495898 68.11253588 15.70673238 60.0433036 11 52 C9.8723274 50.06253983 8.74472414 48.1250393 7.6171875 46.1875 C5.3354184 42.27078262 3.03111339 38.36865187 0.70855713 34.47607422 C-0.79797408 31.94335041 -2.28986293 29.40218286 -3.77929688 26.859375 C-4.50121442 25.6343028 -5.22927416 24.41282632 -5.96386719 23.1953125 C-13.16784358 11.24401526 -13.16784358 11.24401526 -12 4 C-9.10139028 -0.8310162 -5.14806727 -0.51045139 0 0 Z " fill="" transform="translate(20,40)"/>
</svg>
