<?xml version="1.0" encoding="UTF-8"?>
<svg version="1.1" xmlns="http://www.w3.org/2000/svg" width="" height="" viewBox="0 0 512 512">
<path d="M0 0 C0.66 0 1.32 0 2 0 C2.33805664 0.87543457 2.67611328 1.75086914 3.02441406 2.65283203 C12.0361698 25.96273237 21.24767621 49.19068868 30.54174805 72.38910675 C33.25125462 79.15232667 35.95958729 85.91601696 38.66796875 92.6796875 C38.96911465 93.43172832 39.27026054 94.18376915 39.58053207 94.95859909 C45.92931634 110.8143004 52.26488512 126.67522987 58.57693481 142.54559326 C59.68831657 145.33958284 60.80139665 148.13288629 61.91598511 150.92559814 C63.45303472 154.77700521 64.98464295 158.63055196 66.515625 162.484375 C66.97354935 163.62979767 67.43147369 164.77522034 67.90327454 165.95535278 C68.5201136 167.51224319 68.5201136 167.51224319 69.14941406 169.10058594 C69.50908264 170.00419861 69.86875122 170.90781128 70.23931885 171.83880615 C71 174 71 174 71 176 C71.75393539 176.03669296 72.50787079 176.07338593 73.28465271 176.1111908 C105.88064193 177.72745573 138.44013112 179.94101244 171.00383317 182.09595048 C177.32673918 182.51423054 183.64979965 182.93013552 189.97290331 183.34541565 C197.63759314 183.84882822 205.30217669 184.35384454 212.96672893 184.85934711 C215.14124266 185.00265974 217.31577531 185.14568213 219.49031258 185.28863716 C223.54318656 185.5551727 227.59593926 185.82351176 231.64868164 186.09204102 C232.82846085 186.1694603 234.00824005 186.24687958 235.22377014 186.3266449 C242.48948515 186.8099023 249.74542514 187.37123866 257 188 C255.08399704 192.2760899 252.11178181 194.7472304 248.5625 197.6875 C247.93142334 198.21931885 247.30034668 198.7511377 246.65014648 199.29907227 C242.10833435 203.1152049 237.50734787 206.85820357 232.90234375 210.59765625 C228.77244783 214.01607616 224.73527988 217.53766778 220.69213867 221.05786133 C215.03600979 225.98000517 209.32240409 230.83064755 203.58837891 235.66162109 C200.91091047 237.91767427 198.23627043 240.17706606 195.5625 242.4375 C195.03011719 242.88738281 194.49773437 243.33726562 193.94921875 243.80078125 C190.50778995 246.71275946 187.08328959 249.64371267 183.66601562 252.58398438 C179.00818074 256.59165256 174.33696364 260.56841613 169.5625 264.4375 C164.45692535 268.58060991 159.50199947 272.8823045 154.54711914 277.20288086 C150.91262149 280.36465838 147.24479157 283.46850206 143.5 286.5 C137.19949905 291.60265121 131.10135845 296.93412794 124.99707031 302.26831055 C123.128755 303.88835462 121.25307281 305.49930337 119.37518311 307.10823059 C118.74351604 307.6494798 118.11184898 308.19072901 117.4610405 308.74837971 C116.97889713 309.1614144 116.49675377 309.5744491 116 310 C118.56948598 321.82639003 121.33268746 333.58417565 124.31640625 345.3125 C124.73015054 346.94661596 125.14369323 348.58078297 125.55705261 350.21499634 C126.66066814 354.57513348 127.76767673 358.93440265 128.87528992 363.2935257 C129.80074285 366.93828389 130.7236338 370.58368891 131.64658165 374.22908211 C136.35501513 392.82323636 141.09336781 411.40938548 145.89614677 429.97940826 C146.56719841 432.57441432 147.23756428 435.1695966 147.9077301 437.76483154 C149.80431248 445.10770949 151.70299098 452.449975 153.617383 459.7882328 C154.39563349 462.77613338 155.16891254 465.7653053 155.9410038 468.7548027 C156.29667334 470.12725969 156.65451845 471.49915517 157.01479149 472.87041092 C158.86709451 479.92325489 160.43585122 486.72208761 161 494 C152.84264339 489.82442005 145.23382975 484.99111702 137.57421875 479.98046875 C133.01729381 477.00075322 128.42058538 474.08728305 123.8125 471.1875 C116.86294928 466.810427 109.92666284 462.4132081 103 458 C93.78961614 452.13351858 84.5630092 446.29326934 75.32666016 440.46777344 C71.38339755 437.98016643 67.44179232 435.48993586 63.5 433 C61.9166744 431.99998776 60.33334107 430.99998775 58.75 430 C55.58333333 428 52.41666667 426 49.25 424 C48.46584717 423.5047583 47.68169434 423.0095166 46.8737793 422.49926758 C45.29446854 421.5017825 43.71520402 420.50422421 42.13598633 419.5065918 C38.11648855 416.96750329 34.09613233 414.42979166 30.07421875 411.89453125 C28.85822998 411.12713623 28.85822998 411.12713623 27.61767578 410.34423828 C26.01461303 409.33382883 24.41014826 408.32563987 22.80419922 407.31982422 C19.11281204 405.00140115 15.45926992 402.65149265 11.87109375 400.17578125 C11.23469971 399.74354248 10.59830566 399.31130371 9.94262695 398.8659668 C8.24667483 397.70807228 6.56417517 396.5305421 4.8828125 395.3515625 C2.13303478 393.66855844 2.13303478 393.66855844 -0.36987305 394.72900391 C-3.02113665 396.01021418 -5.47377246 397.4146916 -7.96484375 398.984375 C-8.9185083 399.5827417 -9.87217285 400.1811084 -10.85473633 400.79760742 C-11.87204834 401.44189697 -12.88936035 402.08618652 -13.9375 402.75 C-15.530177 403.75220581 -15.530177 403.75220581 -17.1550293 404.7746582 C-26.0414446 410.37342294 -34.90278159 416.01191838 -43.7578125 421.66015625 C-51.04761989 426.30851522 -58.36063971 430.92000322 -65.67333984 435.53222656 C-69.61660245 438.01983357 -73.55820768 440.51006414 -77.5 443 C-79.0833256 444.00001224 -80.66665893 445.00001225 -82.25 446 C-83.03375 446.495 -83.8175 446.99 -84.625 447.5 C-110.75 464 -110.75 464 -113.1262207 465.50073242 C-114.70553146 466.4982175 -116.28479598 467.49577579 -117.86401367 468.4934082 C-121.88351145 471.03249671 -125.90386767 473.57020834 -129.92578125 476.10546875 C-130.73668213 476.6169043 -131.54758301 477.12833984 -132.38305664 477.65527344 C-133.98482214 478.66549153 -135.58686662 479.67526745 -137.18920898 480.68457031 C-140.88674337 483.01740448 -144.57312851 485.36445211 -148.234375 487.75390625 C-148.8843042 488.17712158 -149.5342334 488.60033691 -150.20385742 489.03637695 C-151.40980841 489.82381717 -152.61326154 490.61510123 -153.8137207 491.41088867 C-157.77956727 494 -157.77956727 494 -160 494 C-156.76595552 478.4577474 -152.75403297 463.11371126 -148.77560425 447.74972534 C-146.66769357 439.60871081 -144.57251721 431.46441164 -142.4765625 423.3203125 C-142.25752447 422.46954321 -142.03848644 421.61877392 -141.8128109 420.74222374 C-136.53588033 400.2422825 -131.32949642 379.72455266 -126.13740158 359.20298386 C-125.43950729 356.44543128 -124.74098153 353.68803939 -124.04226685 350.93069458 C-122.93926586 346.57759171 -121.83767103 342.22413551 -120.73724747 337.8703804 C-120.33262533 336.27016638 -119.9276061 334.6700527 -119.52215195 333.07004929 C-117.57939322 325.40131064 -115.65410919 317.73748874 -114 310 C-119.83769432 304.64350391 -125.79042272 299.4984133 -131.94921875 294.515625 C-135.52056499 291.57075051 -139.01214487 288.54283024 -142.5 285.5 C-146.78206292 281.76584832 -151.08331835 278.07540896 -155.5 274.5 C-160.53428272 270.42178284 -165.42510708 266.19382942 -170.31030273 261.93969727 C-174.89116089 257.95283667 -179.50750287 254.0118092 -184.15136719 250.09863281 C-188.16384184 246.71518052 -192.14710388 243.29899816 -196.125 239.875 C-200.18620876 236.38176144 -204.27518971 232.93551293 -208.4375 229.5625 C-213.48854068 225.46084729 -218.40128396 221.21408989 -223.30786133 216.94213867 C-227.38926613 213.39036997 -231.49144707 209.86593382 -235.625 206.375 C-236.14392822 205.93567139 -236.66285645 205.49634277 -237.19750977 205.04370117 C-240.01789193 202.6595825 -242.8517633 200.29313581 -245.69921875 197.94140625 C-246.30362793 197.43883301 -246.90803711 196.93625977 -247.53076172 196.41845703 C-248.69629537 195.44968105 -249.86575526 194.48560448 -251.03955078 193.52685547 C-252.39731788 192.3948914 -253.70424036 191.20244798 -255 190 C-255 189.34 -255 188.68 -255 188 C-156.50098028 181.26036252 -156.50098028 181.26036252 -109.91640854 178.22430038 C-107.44005403 178.0626667 -104.96374975 177.90028242 -102.48745728 177.73770142 C-98.63495981 177.48490705 -94.78233545 177.23414911 -90.92959213 176.98513031 C-89.53937589 176.89502243 -88.14919928 176.80430053 -86.75906754 176.71289825 C-84.87782893 176.5893832 -82.9964132 176.46857475 -81.11499023 176.34790039 C-79.54913429 176.24633385 -79.54913429 176.24633385 -77.9516449 176.14271545 C-74.96283553 175.99820305 -71.99180417 175.97514982 -69 176 C-68.87125488 175.27227386 -68.74250977 174.54454773 -68.60986328 173.79476929 C-68.02959231 171.13561019 -67.24947699 168.80768474 -66.2421875 166.28369141 C-65.87254379 165.35135681 -65.50290009 164.41902222 -65.12205505 163.45843506 C-64.71052689 162.43316711 -64.29899872 161.40789917 -63.875 160.3515625 C-63.43257462 159.23928284 -62.99014923 158.12700317 -62.53431702 156.98101807 C-61.55126454 154.51143394 -60.56664339 152.04254199 -59.57937622 149.574646 C-57.97257586 145.55806253 -56.37155893 141.53918902 -54.77124023 137.52001953 C-52.64248895 132.17514865 -50.51190798 126.83101189 -48.37961102 121.48755455 C-43.00598959 108.02124713 -37.64526322 94.5498163 -32.28515625 81.078125 C-30.41604752 76.38068392 -28.54689813 71.68325903 -26.67773438 66.98583984 C-26.21405771 65.82055693 -25.75038105 64.65527401 -25.27265358 63.45467949 C-20.27848003 50.90402166 -15.28207406 38.35425294 -10.28515625 25.8046875 C-9.87528032 24.77525276 -9.4654044 23.74581802 -9.04310799 22.68518829 C-7.89345053 19.79775649 -6.74373488 16.91034786 -5.59399414 14.02294922 C-5.25703018 13.17664759 -4.92006622 12.33034595 -4.57289124 11.45839882 C-3.05144881 7.63778557 -1.52892272 3.81762811 0 0 Z " fill="#000000" transform="translate(255,9)"/>
</svg>
