<?xml version="1.0" encoding="UTF-8"?>
<svg version="1.1" xmlns="http://www.w3.org/2000/svg" width="" height="" viewBox="0 0 512 512">
<path d="M0 0 C1.20806565 -0.00427212 2.41613129 -0.00854425 3.66080499 -0.01294583 C7.01577494 -0.01976584 10.36929121 -0.00411305 13.72408557 0.02094448 C17.34095416 0.04251448 20.95777696 0.03523152 24.57469177 0.03143311 C30.8416892 0.02880991 37.10842657 0.04451208 43.37535858 0.0726223 C52.43627101 0.11323844 61.49705754 0.12627756 70.55805114 0.13256226 C85.25843759 0.14350842 99.95868541 0.17679131 114.65899658 0.22407532 C128.939914 0.2699626 143.22079378 0.30535856 157.50177002 0.32661438 C158.38188282 0.327928 159.26199562 0.32924161 160.16877851 0.33059504 C164.58399675 0.33712017 168.99921527 0.34343873 173.41443396 0.34965456 C210.0496009 0.40149759 246.68461022 0.4895716 283.31964111 0.60127258 C283.33946045 1.91321594 283.35927979 3.2251593 283.37969971 4.57685852 C283.45577862 9.44489213 283.54449275 14.31262774 283.63702393 19.18037415 C283.67530417 21.28708512 283.71015871 23.39386125 283.74151611 25.50068665 C283.7871871 28.52924379 283.84517856 31.55735281 283.90557861 34.58564758 C283.92290543 35.9983493 283.92290543 35.9983493 283.94058228 37.43959045 C283.97038681 38.7605069 283.97038681 38.7605069 284.00079346 40.10810852 C284.02077896 41.26726776 284.02077896 41.26726776 284.04116821 42.44984436 C284.35677696 44.888177 285.04782008 46.50605331 286.31964111 48.60127258 C288.72005675 50.33950459 289.91237524 50.63107252 292.88214111 50.41377258 C295.58597738 49.51249383 296.56600466 48.81381983 298.31964111 46.60127258 C298.7895917 44.44929857 298.7895917 44.44929857 298.75201416 42.03804016 C298.7817054 40.65694817 298.7817054 40.65694817 298.81199646 39.24795532 C298.81838638 38.25724533 298.82477631 37.26653534 298.83135986 36.24580383 C298.84931107 35.22903061 298.86726227 34.21225739 298.88575745 33.16467285 C298.93997652 29.91441506 298.97379371 26.66430508 299.00714111 23.41377258 C299.0403039 21.211278 299.07479258 19.00880296 299.11065674 16.80635071 C299.19570944 11.40479055 299.2640101 6.00321152 299.31964111 0.60127258 C311.11537909 0.48549116 322.9109822 0.39661411 334.70717239 0.34221172 C340.18448182 0.31610295 345.66140288 0.28068102 351.13848877 0.22407532 C356.42288791 0.16980198 361.70691321 0.1398617 366.99156952 0.12688637 C369.0090702 0.11763812 371.02655012 0.09957852 373.04389191 0.0726223 C375.86705452 0.03639423 378.68866678 0.03132462 381.51202393 0.03364563 C382.76682808 0.00668106 382.76682808 0.00668106 384.04698181 -0.02082825 C387.76044682 0.01226859 389.88370134 0.25786262 392.83677673 2.58413696 C394.8350928 6.65004526 394.88849215 9.96686964 394.85308838 14.44306946 C394.86170395 15.32334305 394.87031952 16.20361664 394.87919617 17.11056519 C394.90185878 20.01401859 394.89511719 22.91650712 394.88604736 25.82002258 C394.89128255 27.84114367 394.89755864 29.8622623 394.90483093 31.88337708 C394.91523548 36.1167705 394.91067238 40.34982779 394.89605713 44.58320618 C394.878863 50.00749521 394.90237233 55.43072562 394.93754673 60.85489655 C394.95950868 65.02767451 394.95808225 69.20019866 394.94978142 73.37301636 C394.94896136 75.37289593 394.95583509 77.37279404 394.97055244 79.37261963 C394.98797753 82.16890028 394.97347357 84.96327181 394.95074463 87.75947571 C394.96243683 88.58456131 394.97412903 89.40964691 394.98617554 90.25973511 C394.91581303 94.51539267 394.68776391 96.13242033 391.96867371 99.59553528 C388.91541778 101.90733368 386.83135796 102.452708 383.06964111 103.03877258 C375.30736368 104.60353519 369.95745358 107.42237038 364.88214111 113.53877258 C361.22388504 120.70895449 360.22062472 127.336955 362.44464111 135.10127258 C364.66805796 141.17171765 368.20522211 145.67746766 373.88214111 148.85127258 C378.5220453 150.9733993 383.46562711 151.80430877 388.46417236 152.69502258 C391.9535701 153.80246482 392.59739863 154.39653919 394.31964111 157.60127258 C394.76812074 160.60130827 394.73960868 163.57609636 394.72369385 166.60493469 C394.73398872 167.96901711 394.73398872 167.96901711 394.74449158 169.36065674 C394.76279316 172.36680209 394.75891721 175.37242722 394.75323486 178.37861633 C394.75779511 180.46842621 394.76310021 182.55823459 394.76911926 184.64804077 C394.77805702 189.02859081 394.77561969 193.40895861 394.76568604 197.789505 C394.75419669 203.40311727 394.77440422 209.01610048 394.80360317 214.62963009 C394.82194972 218.94563798 394.82167575 223.26149472 394.81596565 227.57753181 C394.81581224 229.64718572 394.82187275 231.71684974 394.83425713 233.7864666 C394.84913558 236.68078436 394.83851293 239.5739347 394.8213501 242.46821594 C394.83101807 243.3229248 394.84068604 244.17763367 394.85064697 245.0582428 C394.80387401 248.82525034 394.51115595 251.20872746 392.83876038 254.63661194 C389.22816902 257.45251147 385.9005959 257.26320585 381.51202393 257.16889954 C380.6238649 257.16962967 379.73570587 257.1703598 378.82063293 257.17111206 C375.88738759 257.1676309 372.95573374 257.12874488 370.02276611 257.08955383 C367.98824939 257.08022759 365.95372142 257.07311059 363.91918945 257.06811523 C358.5660905 257.04903069 353.21367062 256.99991686 347.86083984 256.94459534 C342.39798163 256.89343454 336.93501362 256.87060794 331.47198486 256.84541321 C320.7542387 256.79179993 310.03699639 256.70646911 299.31964111 256.60127258 C299.31084175 255.74682808 299.31084175 255.74682808 299.30186462 254.87512207 C299.23800147 248.95400063 299.15360073 243.0334263 299.05718994 237.11274719 C299.02390603 234.90220852 298.99588499 232.69158416 298.97320557 230.48091125 C298.93972352 227.30581592 298.8874106 224.13150841 298.83135986 220.95674133 C298.82177498 219.47067635 298.82177498 219.47067635 298.81199646 217.95458984 C298.7922023 217.03386185 298.77240814 216.11313385 298.75201416 215.164505 C298.7409111 214.35398178 298.72980804 213.54345856 298.71836853 212.70837402 C298.22355045 210.09347512 297.39689915 209.21875954 295.31964111 207.60127258 C292.52507311 206.66974991 290.95507986 206.40156326 288.13214111 207.28877258 C285.93264012 208.88151468 285.34991322 210.10266592 284.31964111 212.60127258 C283.99729401 214.77830987 283.99729401 214.77830987 284.00079346 217.09443665 C283.98092377 217.97504761 283.96105408 218.85565857 283.94058228 219.76295471 C283.92903107 220.70475586 283.91747986 221.64655701 283.90557861 222.61689758 C283.88621246 223.58786377 283.86684631 224.55882996 283.84689331 225.55921936 C283.78717602 228.65648144 283.74074332 231.75378084 283.69464111 234.85127258 C283.65645413 236.95285117 283.61740198 239.05441424 283.57745361 241.15596008 C283.48148081 246.30427126 283.39742051 251.4526557 283.31964111 256.60127258 C245.80650924 256.71565092 208.29340358 256.80378733 170.7801327 256.85659923 C166.35401152 256.86285296 161.92789068 256.86932455 157.50177002 256.87593079 C156.17999685 256.87789811 156.17999685 256.87789811 154.83152118 256.87990519 C140.55284644 256.90167744 126.27427208 256.94110895 111.99565694 256.98703656 C97.35068318 257.03375063 82.70576208 257.06155727 68.06071687 257.07171506 C59.01973822 257.07858473 49.97904327 257.10030215 40.93815193 257.14085492 C34.74325565 257.16723101 28.5485066 257.17528528 22.35355821 257.16877947 C18.77624721 257.16556849 15.19943283 257.17058107 11.62220955 257.19729996 C7.74795394 257.22602689 3.87435077 257.21624617 0 257.20254517 C-1.13617838 257.21710937 -2.27235676 257.23167358 -3.44296479 257.24667913 C-11.00238025 257.17400793 -11.00238025 257.17400793 -14.37821484 254.32220745 C-15.60144304 251.7661736 -16.18352232 250.25961932 -16.19502258 247.46504211 C-16.20774704 246.67446411 -16.2204715 245.88388611 -16.23358154 245.0693512 C-16.22705566 244.21621338 -16.22052979 243.36307556 -16.21380615 242.48408508 C-16.22242172 241.57455078 -16.23103729 240.66501648 -16.23991394 239.72792053 C-16.26258195 236.7270802 -16.25583387 233.72717302 -16.24676514 230.72627258 C-16.25200008 228.63789085 -16.25827608 226.54951149 -16.26554871 224.46113586 C-16.27595427 220.08651088 -16.27138866 215.71221115 -16.2567749 211.33760071 C-16.23958083 205.7317219 -16.2630897 200.12686742 -16.2982645 194.52110291 C-16.32022404 190.2093578 -16.31880059 185.89785838 -16.31049919 181.58607483 C-16.309679 179.51920955 -16.31655526 177.45232636 -16.33127022 175.38551331 C-16.3486906 172.49585462 -16.33419475 169.60804437 -16.3114624 166.71846008 C-16.3231546 165.86532227 -16.3348468 165.01218445 -16.34689331 164.13319397 C-16.27787618 159.82123004 -16.07249289 158.10699074 -13.34526062 154.58979797 C-10.13331382 152.19307254 -7.81648667 151.72537455 -3.86785889 151.16377258 C4.18636208 149.662567 8.5909438 146.97624032 13.69464111 140.66377258 C17.49021936 133.51056743 18.42408461 126.81314911 16.13214111 119.03877258 C13.58592501 112.12761458 9.41319208 108.07770356 2.99932861 104.68721008 C-1.15970465 103.00177095 -5.44849245 102.22848373 -9.86004639 101.47236633 C-13.32912077 100.40089322 -13.96201254 99.77442215 -15.68035889 96.60127258 C-15.97637037 93.62185236 -16.10059567 90.85222465 -16.08441162 87.8730011 C-16.09127487 86.99287354 -16.09813812 86.11274597 -16.10520935 85.20594788 C-16.12350748 82.29719399 -16.1196355 79.38897792 -16.11395264 76.48017883 C-16.11851306 74.45762964 -16.12381821 72.435082 -16.12983704 70.41253662 C-16.13877412 66.17321987 -16.13633826 61.93409143 -16.12640381 57.69477844 C-16.11491468 52.26276072 -16.1351219 46.8313931 -16.16432095 41.39946079 C-16.18266956 37.22242098 -16.18239312 33.04553733 -16.17668343 28.86846733 C-16.17653004 26.86579921 -16.18258856 24.86312062 -16.1949749 22.8604908 C-16.20985731 20.05955894 -16.19922802 17.25983279 -16.18206787 14.4589386 C-16.19173584 13.63228195 -16.20140381 12.80562531 -16.21136475 11.95391846 C-16.20153061 11.18713776 -16.19169647 10.42035706 -16.18156433 9.63034058 C-16.18135505 8.96907952 -16.18114576 8.30781847 -16.18093014 7.6265192 C-14.04040791 -1.03375724 -7.43969077 -0.09536636 0 0 Z M130.31964111 74.60127258 C128.50014274 77.6172857 128.50014274 77.6172857 126.98760986 80.92549133 C126.70613602 81.51296646 126.42466217 82.10044159 126.13465881 82.70571899 C125.54754107 83.93619934 124.96545121 85.1690905 124.38824463 86.4042511 C123.50232749 88.29906805 122.60088003 90.18586596 121.69659424 92.07197571 C118.65235783 97.60892366 118.65235783 97.60892366 117.31964111 103.60127258 C116.47780273 103.70673401 115.63596436 103.81219543 114.76861572 103.92085266 C111.61596061 104.32082123 108.46468399 104.7300777 105.31402588 105.14546204 C103.95577618 105.32263906 102.59705116 105.496214 101.237854 105.66596985 C89.31388025 106.7249319 89.31388025 106.7249319 79.31964111 112.60127258 C78.72039053 115.93044249 78.56968299 118.38224975 80.39385986 121.34736633 C82.27237903 123.54764697 84.26000927 125.56762978 86.31964111 127.60127258 C88.10528034 129.37007608 89.88998467 131.13979266 91.67266846 132.91157532 C92.91872099 134.14463812 94.17148353 135.37096397 95.43145752 136.58979797 C96.01846436 137.16463928 96.60547119 137.73948059 97.21026611 138.33174133 C97.73652588 138.84116272 98.26278564 139.35058411 98.80499268 139.8754425 C101.75706436 143.23911026 103.3719306 145.30915193 103.18536377 149.91938782 C102.95381592 151.15374573 102.72226807 152.38810364 102.48370361 153.65986633 C102.3073085 154.66002525 102.3073085 154.66002525 102.12734985 155.6803894 C101.75071856 157.80349267 101.34956083 159.92089784 100.94464111 162.03877258 C100.54994103 164.15340966 100.16090251 166.26867491 99.78335571 168.38644409 C99.43887289 170.31114427 99.0762735 172.23257595 98.71270752 174.15376282 C98.1897193 178.74079178 98.29845263 182.16404435 101.00714111 185.97627258 C104.05407382 188.11736043 105.63497877 187.9320756 109.31964111 187.60127258 C112.40109394 186.3655307 112.40109394 186.3655307 115.45245361 184.57392883 C116.58811768 183.94679993 117.72378174 183.31967102 118.89385986 182.67353821 C120.07785701 182.00432954 121.26144716 181.33440031 122.44464111 180.66377258 C124.77712997 179.35662679 127.11417794 178.05825408 129.45245361 176.76142883 C130.48257568 176.18014221 131.51269775 175.59885559 132.57403564 174.99995422 C136.9670525 172.76203909 136.9670525 172.76203909 139.31964111 172.60127258 C141.92926025 173.64936829 141.92926025 173.64936829 144.85479736 175.27705383 C146.43937744 176.14813782 146.43937744 176.14813782 148.05596924 177.03681946 C149.15360596 177.65621399 150.25124268 178.27560852 151.38214111 178.91377258 C152.48364502 179.52156555 153.58514893 180.12935852 154.72003174 180.75556946 C162.60045316 185.12181395 162.60045316 185.12181395 166.31964111 187.60127258 C169.93296716 188.07257598 171.89541372 187.80416394 175.19464111 186.22627258 C178.41071471 182.25347578 177.6640707 178.55842182 177.31964111 173.60127258 C176.61640016 168.18167483 175.62246138 162.8163592 174.65362549 157.43916321 C174.46993408 156.37246399 174.28624268 155.30576477 174.09698486 154.20674133 C173.92416992 153.24920959 173.75135498 152.29167786 173.57330322 151.30513 C173.16321148 146.93384413 173.50055487 144.59898352 176.3291626 141.15351868 C177.19098145 140.31901184 178.05280029 139.484505 178.94073486 138.62471008 C180.34355713 137.24799133 180.34355713 137.24799133 181.77471924 135.84346008 C182.76839806 134.88725079 183.76254376 133.93152643 184.75714111 132.97627258 C186.6972775 131.09223882 188.63159776 129.20241977 190.56573486 127.31221008 C191.86015503 126.06383362 191.86015503 126.06383362 193.1807251 124.79023743 C195.75446203 122.15627723 197.19671539 120.40907022 197.75714111 116.72627258 C197.16149451 112.47165402 195.60822107 111.30042641 192.31964111 108.60127258 C188.92011573 107.51982455 188.92011573 107.51982455 185.15557861 107.12471008 C184.48169098 107.02791962 183.80780334 106.93112915 183.11349487 106.83140564 C180.9760619 106.52652701 178.83635781 106.24929323 176.69464111 105.97627258 C174.54644075 105.69318387 172.39967466 105.40395798 170.25436401 105.09971619 C168.31377109 104.82572104 166.3702035 104.57304531 164.42657471 104.32148743 C161.15280895 103.5625994 160.19254591 103.30278497 158.31964111 100.60127258 C157.17396622 98.44444744 156.09938422 96.24938542 155.06964111 94.03486633 C154.45512923 92.73209825 153.84054368 91.42936492 153.22589111 90.12666321 C152.26893018 88.07810717 151.31477151 86.02828431 150.36260986 83.97749329 C149.43858533 81.99326467 148.50458642 80.01396704 147.56964111 78.03486633 C147.01792236 76.8494928 146.46620361 75.66411926 145.89776611 74.44282532 C144.47862397 71.37642573 144.47862397 71.37642573 141.31964111 69.60127258 C135.67176195 68.74181271 133.9628253 70.44344837 130.31964111 74.60127258 Z M284.31964111 73.60127258 C283.0877696 77.29688712 283.13815412 80.74286983 283.11651611 84.59346008 C283.11081604 85.37641449 283.10511597 86.1593689 283.09924316 86.96604919 C283.08980267 88.62194979 283.08326295 90.2778691 283.07940674 91.93379211 C283.06970359 94.46000625 283.03867329 96.98540567 283.00714111 99.51142883 C283.00061036 101.1221011 282.99536017 102.73277917 282.99151611 104.34346008 C282.97916931 105.09569855 282.96682251 105.84793701 282.95410156 106.62297058 C282.97316742 111.13793106 283.49884195 114.03272204 286.31964111 117.60127258 C289.20477089 119.94650193 289.20477089 119.94650193 292.81964111 119.47627258 C296.23016297 118.90650851 296.23016297 118.90650851 298.00909424 117.12275696 C300.00130413 113.28975699 299.78739727 109.64391713 299.78839111 105.38252258 C299.79600464 104.48763123 299.80361816 103.59273987 299.8114624 102.67073059 C299.82225389 100.78123258 299.82512037 98.89167496 299.82061768 97.00215149 C299.81964439 94.11100527 299.86129457 91.22250505 299.90557861 88.33174133 C299.91078506 86.49450728 299.91347382 84.65726401 299.91339111 82.82002258 C299.92978638 81.95639099 299.94618164 81.0927594 299.96307373 80.20295715 C299.91915855 75.11873751 299.91915855 75.11873751 296.97393799 71.05635071 C291.62113694 68.12196014 288.02957749 68.7920958 284.31964111 73.60127258 Z M284.31964111 141.60127258 C283.0877696 145.29688712 283.13815412 148.74286983 283.11651611 152.59346008 C283.11081604 153.37641449 283.10511597 154.1593689 283.09924316 154.96604919 C283.08980267 156.62194979 283.08326295 158.2778691 283.07940674 159.93379211 C283.06970359 162.46000625 283.03867329 164.98540567 283.00714111 167.51142883 C283.00061036 169.1221011 282.99536017 170.73277917 282.99151611 172.34346008 C282.97916931 173.09569855 282.96682251 173.84793701 282.95410156 174.62297058 C282.97842378 180.38268283 284.28913266 183.57076413 288.31964111 187.60127258 C291.88588937 188.07677235 293.80209161 187.88353341 296.97735596 186.15180969 C300.39525339 182.43002791 300.04126864 179.31182281 299.98370361 174.41767883 C299.98848724 173.52515915 299.99327087 172.63263947 299.99819946 171.71307373 C300.00159795 169.82772558 299.99239898 167.94231847 299.97149658 166.05708313 C299.94476008 163.17658952 299.971228 160.30000345 300.00323486 157.41963196 C299.99993014 155.585639 299.9935226 153.75164848 299.98370361 151.91767883 C299.99888535 150.62997337 299.99888535 150.62997337 300.01437378 149.31625366 C299.9284403 144.91313735 299.73509594 143.13200869 296.93438721 139.55415344 C294.50811699 137.46510561 294.50811699 137.46510561 291.81964111 137.03877258 C288.48366787 137.78936656 286.7532605 139.23525374 284.31964111 141.60127258 Z " fill="" transform="translate(66.68035888671875,127.39872741699219)"/>
</svg>
